<?xml version="1.0" encoding="UTF-8" standalone="no"?><svg xmlns="http://www.w3.org/2000/svg" xmlns:xlink="http://www.w3.org/1999/xlink" contentScriptType="application/ecmascript" contentStyleType="text/css" height="1195px" preserveAspectRatio="none" style="width:1442px;height:1195px;background:#FEFEFE;" version="1.1" viewBox="0 0 1442 1195" width="1442px" zoomAndPan="magnify"><defs><filter height="300%" id="f1alqsaao3av70" width="300%" x="-1" y="-1"><feGaussianBlur result="blurOut" stdDeviation="2.0"/><feColorMatrix in="blurOut" result="blurOut2" type="matrix" values="0 0 0 0 0 0 0 0 0 0 0 0 0 0 0 0 0 0 .4 0"/><feOffset dx="4.0" dy="4.0" in="blurOut2" result="blurOut3"/><feBlend in="SourceGraphic" in2="blurOut3" mode="normal"/></filter></defs><g><path d="M460,66 C460,63 462,61 465,61 C468,61 470,63 470,66 C470,63 472,61 475,61 C478,61 480,63 480,66 C480,63 482,61 485,61 C488,61 490,63 490,66 C490,63 492,61 495,61 C498,61 500,63 500,66 C500,63 502,61 505,61 C508,61 510,63 510,66 C510,63 512,61 515,61 C518,61 520,63 520,66 C520,63 522,61 525,61 C528,61 530,63 530,66 C530,63 532,61 535,61 C538,61 540,63 540,66 C540,63 542,61 545,61 C548,61 550,63 550,66 C550,63 552,61 555,61 C558,61 560,63 560,66 C560,63 562,61 565,61 C568,61 570,63 570,66 C570,63 572,61 575,61 C578,61 580,63 580,66 C580,63 582,61 585,61 C588,61 590,63 590,66 C590,63 592,61 595,61 C598,61 600,63 600,66 C600,63 602,61 605,61 C608,61 610,63 610,66 C610,63 612,61 615,61 C618,61 620,63 620,66 C623,66 625,68 625,71 C625,74 623,76 620,76 C623,76 625,78 625,81 C625,84 623,86 620,86 C623,86 625,88 625,91 C625,94 623,96 620,96 C623,96 625,98 625,101 C625,104 623,106 620,106 C623,106 625,108 625,111 C625,114 623,116 620,116 C620,119 617,121 615,121 C612,121 610,119 610,116 C610,119 607,121 605,121 C602,121 600,119 600,116 C600,119 597,121 595,121 C592,121 590,119 590,116 C590,119 587,121 585,121 C582,121 580,119 580,116 C580,119 577,121 575,121 C572,121 570,119 570,116 C570,119 567,121 565,121 C562,121 560,119 560,116 C560,119 557,121 555,121 C552,121 550,119 550,116 C550,119 547,121 545,121 C542,121 540,119 540,116 C540,119 537,121 535,121 C532,121 530,119 530,116 C530,119 527,121 525,121 C522,121 520,119 520,116 C520,119 517,121 515,121 C512,121 510,119 510,116 C510,119 507,121 505,121 C502,121 500,119 500,116 C500,119 497,121 495,121 C492,121 490,119 490,116 C490,119 487,121 485,121 C482,121 480,119 480,116 C480,119 477,121 475,121 C472,121 470,119 470,116 C470,119 467,121 465,121 C462,121 460,119 460,116 C457,116 455,114 455,111 C455,108 457,106 460,106 C457,106 455,104 455,101 C455,98 457,96 460,96 C457,96 455,94 455,91 C455,88 457,86 460,86 C457,86 455,84 455,81 C455,78 457,76 460,76 C457,76 455,74 455,71 C455,68 457,66 460,66 " fill="#FEFEFE" filter="url(#f1alqsaao3av70)" style="stroke: #000000; stroke-width: 1.5;"/><!--cluster Management Layer--><rect fill="#FEFEFE" filter="url(#f1alqsaao3av70)" height="87" style="stroke: #000000; stroke-width: 1.5;" width="247" x="643" y="40"/><path d="M803,41 L803,49.2969 L793,59.2969 L643,59.2969 " fill="none" style="stroke: #000000; stroke-width: 1.5;"/><text fill="#000000" font-family="sans-serif" font-size="14" font-weight="bold" lengthAdjust="spacingAndGlyphs" textLength="150" x="646" y="53.9951">Management Layer</text><!--cluster Ingestion Layer--><rect fill="#FEFEFE" filter="url(#f1alqsaao3av70)" height="87" style="stroke: #000000; stroke-width: 1.5;" width="138" x="511" y="192"/><path d="M643,193 L643,201.2969 L633,211.2969 L511,211.2969 " fill="none" style="stroke: #000000; stroke-width: 1.5;"/><text fill="#000000" font-family="sans-serif" font-size="14" font-weight="bold" lengthAdjust="spacingAndGlyphs" textLength="122" x="514" y="205.9951">Ingestion Layer</text><!--cluster Configuration Layer--><rect fill="#FEFEFE" filter="url(#f1alqsaao3av70)" height="103" style="stroke: #000000; stroke-width: 1.5;" width="509" x="922" y="32"/><path d="M1088,33 L1088,41.2969 L1078,51.2969 L922,51.2969 " fill="none" style="stroke: #000000; stroke-width: 1.5;"/><text fill="#000000" font-family="sans-serif" font-size="14" font-weight="bold" lengthAdjust="spacingAndGlyphs" textLength="156" x="925" y="45.9951">Configuration Layer</text><!--cluster Storage Layer--><rect fill="#FEFEFE" filter="url(#f1alqsaao3av70)" height="434" style="stroke: #000000; stroke-width: 1.5;" width="1100" x="22" y="390"/><path d="M143,391 L143,399.2969 L133,409.2969 L22,409.2969 " fill="none" style="stroke: #000000; stroke-width: 1.5;"/><text fill="#000000" font-family="sans-serif" font-size="14" font-weight="bold" lengthAdjust="spacingAndGlyphs" textLength="111" x="25" y="403.9951">Storage Layer</text><!--cluster Repository Doc--><polygon fill="#FEFEFE" filter="url(#f1alqsaao3av70)" points="46,443,56,433,450,433,450,790,440,800,46,800,46,443" style="stroke: #000000; stroke-width: 1.5;"/><line style="stroke: #000000; stroke-width: 1.5;" x1="440" x2="449" y1="443" y2="434"/><line style="stroke: #000000; stroke-width: 1.5;" x1="46" x2="440" y1="443" y2="443"/><line style="stroke: #000000; stroke-width: 1.5;" x1="440" x2="440" y1="443" y2="800"/><text fill="#000000" font-family="sans-serif" font-size="14" font-weight="bold" lengthAdjust="spacingAndGlyphs" textLength="120" x="184" y="458.9951">Repository Doc</text><!--cluster Postgres--><path d="M264,593 C264,583 345,583 345,583 C345,583 426,583 426,593 L426,675 C426,685 345,685 345,685 C345,685 264,685 264,675 L264,593 " fill="#FEFEFE" filter="url(#f1alqsaao3av70)" style="stroke: #000000; stroke-width: 1.5;"/><path d="M264,593 C264,603 345,603 345,603 C345,603 426,603 426,593 " fill="none" style="stroke: #000000; stroke-width: 1.5;"/><text fill="#000000" font-family="sans-serif" font-size="14" font-weight="bold" lengthAdjust="spacingAndGlyphs" textLength="71" x="309.5" y="617.9951">Postgres</text><!--cluster Repository TS--><polygon fill="#FEFEFE" filter="url(#f1alqsaao3av70)" points="474,443,484,433,686,433,686,790,676,800,474,800,474,443" style="stroke: #000000; stroke-width: 1.5;"/><line style="stroke: #000000; stroke-width: 1.5;" x1="676" x2="685" y1="443" y2="434"/><line style="stroke: #000000; stroke-width: 1.5;" x1="474" x2="676" y1="443" y2="443"/><line style="stroke: #000000; stroke-width: 1.5;" x1="676" x2="676" y1="443" y2="800"/><text fill="#000000" font-family="sans-serif" font-size="14" font-weight="bold" lengthAdjust="spacingAndGlyphs" textLength="110" x="521" y="458.9951">Repository TS</text><!--cluster Victoria Metrics--><path d="M498,593 C498,583 580,583 580,583 C580,583 662,583 662,593 L662,675 C662,685 580,685 580,685 C580,685 498,685 498,675 L498,593 " fill="#FEFEFE" filter="url(#f1alqsaao3av70)" style="stroke: #000000; stroke-width: 1.5;"/><path d="M498,593 C498,603 580,603 580,603 C580,603 662,603 662,593 " fill="none" style="stroke: #000000; stroke-width: 1.5;"/><text fill="#000000" font-family="sans-serif" font-size="14" font-weight="bold" lengthAdjust="spacingAndGlyphs" textLength="123" x="518.5" y="617.9951">Victoria Metrics</text><!--cluster Retrieval Layer--><rect fill="#FEFEFE" filter="url(#f1alqsaao3av70)" height="87" style="stroke: #000000; stroke-width: 1.5;" width="144" x="508" y="935"/><path d="M636,936 L636,944.2969 L626,954.2969 L508,954.2969 " fill="none" style="stroke: #000000; stroke-width: 1.5;"/><text fill="#000000" font-family="sans-serif" font-size="14" font-weight="bold" lengthAdjust="spacingAndGlyphs" textLength="118" x="511" y="948.9951">Retrieval Layer</text><path d="M551,1078 C551,1075 553,1073 556,1073 C559,1073 561,1075 561,1078 C561,1075 563,1073 566,1073 C569,1073 571,1075 571,1078 C571,1075 573,1073 576,1073 C579,1073 581,1075 581,1078 C581,1075 583,1073 586,1073 C589,1073 591,1075 591,1078 C591,1075 593,1073 596,1073 C599,1073 601,1075 601,1078 C601,1075 603,1073 606,1073 C609,1073 611,1075 611,1078 C614,1078 616,1080 616,1083 C616,1086 614,1088 611,1088 C614,1088 616,1090 616,1093 C616,1096 614,1098 611,1098 C614,1098 616,1100 616,1103 C616,1106 614,1108 611,1108 C614,1108 616,1110 616,1113 C616,1116 614,1118 611,1118 C614,1118 616,1120 616,1123 C616,1126 614,1128 611,1128 C614,1128 616,1130 616,1133 C616,1136 614,1138 611,1138 C614,1138 616,1140 616,1143 C616,1146 614,1148 611,1148 C614,1148 616,1150 616,1153 C616,1156 614,1158 611,1158 C614,1158 616,1160 616,1163 C616,1166 614,1168 611,1168 C614,1168 616,1170 616,1173 C616,1176 614,1178 611,1178 C611,1181 608,1183 606,1183 C603,1183 601,1181 601,1178 C601,1181 598,1183 596,1183 C593,1183 591,1181 591,1178 C591,1181 588,1183 586,1183 C583,1183 581,1181 581,1178 C581,1181 578,1183 576,1183 C573,1183 571,1181 571,1178 C571,1181 568,1183 566,1183 C563,1183 561,1181 561,1178 C561,1181 558,1183 556,1183 C553,1183 551,1181 551,1178 C548,1178 546,1176 546,1173 C546,1170 548,1168 551,1168 C548,1168 546,1166 546,1163 C546,1160 548,1158 551,1158 C548,1158 546,1156 546,1153 C546,1150 548,1148 551,1148 C548,1148 546,1146 546,1143 C546,1140 548,1138 551,1138 C548,1138 546,1136 546,1133 C546,1130 548,1128 551,1128 C548,1128 546,1126 546,1123 C546,1120 548,1118 551,1118 C548,1118 546,1116 546,1113 C546,1110 548,1108 551,1108 C548,1108 546,1106 546,1103 C546,1100 548,1098 551,1098 C548,1098 546,1096 546,1093 C546,1090 548,1088 551,1088 C548,1088 546,1086 546,1083 C546,1080 548,1078 551,1078 " fill="#FEFEFE" filter="url(#f1alqsaao3av70)" style="stroke: #000000; stroke-width: 1.5;"/><!--entity External System--><rect fill="#FEFECE" filter="url(#f1alqsaao3av70)" height="36.2969" style="stroke: #A80036; stroke-width: 1.5;" width="130" x="473" y="75"/><rect fill="#FEFECE" height="5" style="stroke: #A80036; stroke-width: 1.5;" width="10" x="468" y="80"/><rect fill="#FEFECE" height="5" style="stroke: #A80036; stroke-width: 1.5;" width="10" x="468" y="101.2969"/><text fill="#000000" font-family="sans-serif" font-size="14" lengthAdjust="spacingAndGlyphs" textLength="110" x="483" y="97.9951">External System</text><!--entity CLI--><rect fill="#FEFECE" filter="url(#f1alqsaao3av70)" height="36.2969" style="stroke: #A80036; stroke-width: 1.5;" width="40" x="834" y="75"/><rect fill="#FEFECE" height="5" style="stroke: #A80036; stroke-width: 1.5;" width="10" x="829" y="80"/><rect fill="#FEFECE" height="5" style="stroke: #A80036; stroke-width: 1.5;" width="10" x="829" y="101.2969"/><text fill="#000000" font-family="sans-serif" font-size="14" lengthAdjust="spacingAndGlyphs" textLength="20" x="844" y="97.9951">CLI</text><!--entity Admin Web Panel--><rect fill="#FEFECE" filter="url(#f1alqsaao3av70)" height="36.2969" style="stroke: #A80036; stroke-width: 1.5;" width="140" x="659" y="75"/><rect fill="#FEFECE" height="5" style="stroke: #A80036; stroke-width: 1.5;" width="10" x="654" y="80"/><rect fill="#FEFECE" height="5" style="stroke: #A80036; stroke-width: 1.5;" width="10" x="654" y="101.2969"/><text fill="#000000" font-family="sans-serif" font-size="14" lengthAdjust="spacingAndGlyphs" textLength="120" x="669" y="97.9951">Admin Web Panel</text><!--entity Data Router--><rect fill="#FEFECE" filter="url(#f1alqsaao3av70)" height="36.2969" style="stroke: #A80036; stroke-width: 1.5;" width="103" x="528.5" y="227"/><rect fill="#FEFECE" height="5" style="stroke: #A80036; stroke-width: 1.5;" width="10" x="523.5" y="232"/><rect fill="#FEFECE" height="5" style="stroke: #A80036; stroke-width: 1.5;" width="10" x="523.5" y="253.2969"/><text fill="#000000" font-family="sans-serif" font-size="14" lengthAdjust="spacingAndGlyphs" textLength="83" x="538.5" y="249.9951">Data Router</text><!--entity Schema Registry--><rect fill="#FEFECE" filter="url(#f1alqsaao3av70)" height="36.2969" style="stroke: #A80036; stroke-width: 1.5;" width="136" x="1116" y="75"/><rect fill="#FEFECE" height="5" style="stroke: #A80036; stroke-width: 1.5;" width="10" x="1111" y="80"/><rect fill="#FEFECE" height="5" style="stroke: #A80036; stroke-width: 1.5;" width="10" x="1111" y="101.2969"/><text fill="#000000" font-family="sans-serif" font-size="14" lengthAdjust="spacingAndGlyphs" textLength="116" x="1126" y="97.9951">Schema Registry</text><!--entity Leader Elector--><rect fill="#FEFECE" filter="url(#f1alqsaao3av70)" height="36.2969" style="stroke: #A80036; stroke-width: 1.5;" width="119" x="1287.5" y="75"/><rect fill="#FEFECE" height="5" style="stroke: #A80036; stroke-width: 1.5;" width="10" x="1282.5" y="80"/><rect fill="#FEFECE" height="5" style="stroke: #A80036; stroke-width: 1.5;" width="10" x="1282.5" y="101.2969"/><text fill="#000000" font-family="sans-serif" font-size="14" lengthAdjust="spacingAndGlyphs" textLength="99" x="1297.5" y="97.9951">Leader Elector</text><!--entity Edge Registry--><rect fill="#FEFECE" filter="url(#f1alqsaao3av70)" height="36.2969" style="stroke: #A80036; stroke-width: 1.5;" width="116" x="965" y="75"/><rect fill="#FEFECE" height="5" style="stroke: #A80036; stroke-width: 1.5;" width="10" x="960" y="80"/><rect fill="#FEFECE" height="5" style="stroke: #A80036; stroke-width: 1.5;" width="10" x="960" y="101.2969"/><text fill="#000000" font-family="sans-serif" font-size="14" lengthAdjust="spacingAndGlyphs" textLength="96" x="975" y="97.9951">Edge Registry</text><!--entity ANY--><ellipse cx="904" cy="491" fill="#FEFECE" filter="url(#f1alqsaao3av70)" rx="8" ry="8" style="stroke: #A80036; stroke-width: 2.0;"/><text fill="#000000" font-family="sans-serif" font-size="14" lengthAdjust="spacingAndGlyphs" textLength="389" x="709.5" y="520.9951">any number of repositories (Document/Timeseries/Blob)</text><!--entity Command Service Doc--><rect fill="#FEFECE" filter="url(#f1alqsaao3av70)" height="36.2969" style="stroke: #A80036; stroke-width: 1.5;" width="177" x="257.5" y="473"/><rect fill="#FEFECE" height="5" style="stroke: #A80036; stroke-width: 1.5;" width="10" x="252.5" y="478"/><rect fill="#FEFECE" height="5" style="stroke: #A80036; stroke-width: 1.5;" width="10" x="252.5" y="499.2969"/><text fill="#000000" font-family="sans-serif" font-size="14" lengthAdjust="spacingAndGlyphs" textLength="157" x="267.5" y="495.9951">Command Service Doc</text><!--entity DB Shrinker Storage--><rect fill="#FEFECE" filter="url(#f1alqsaao3av70)" height="36.2969" style="stroke: #A80036; stroke-width: 1.5;" width="160" x="62" y="473"/><rect fill="#FEFECE" height="5" style="stroke: #A80036; stroke-width: 1.5;" width="10" x="57" y="478"/><rect fill="#FEFECE" height="5" style="stroke: #A80036; stroke-width: 1.5;" width="10" x="57" y="499.2969"/><text fill="#000000" font-family="sans-serif" font-size="14" lengthAdjust="spacingAndGlyphs" textLength="140" x="72" y="495.9951">DB Shrinker Storage</text><!--entity Query Service Doc--><rect fill="#FEFECE" filter="url(#f1alqsaao3av70)" height="36.2969" style="stroke: #A80036; stroke-width: 1.5;" width="147" x="279.5" y="748"/><rect fill="#FEFECE" height="5" style="stroke: #A80036; stroke-width: 1.5;" width="10" x="274.5" y="753"/><rect fill="#FEFECE" height="5" style="stroke: #A80036; stroke-width: 1.5;" width="10" x="274.5" y="774.2969"/><text fill="#000000" font-family="sans-serif" font-size="14" lengthAdjust="spacingAndGlyphs" textLength="127" x="289.5" y="770.9951">Query Service Doc</text><!--entity Document Data--><rect fill="#FEFECE" filter="url(#f1alqsaao3av70)" height="36.2969" style="stroke: #A80036; stroke-width: 1.5;" width="129" x="280.5" y="633"/><rect fill="#FEFECE" height="5" style="stroke: #A80036; stroke-width: 1.5;" width="10" x="275.5" y="638"/><rect fill="#FEFECE" height="5" style="stroke: #A80036; stroke-width: 1.5;" width="10" x="275.5" y="659.2969"/><text fill="#000000" font-family="sans-serif" font-size="14" lengthAdjust="spacingAndGlyphs" textLength="109" x="290.5" y="655.9951">Document Data</text><!--entity Command Service TS--><rect fill="#FEFECE" filter="url(#f1alqsaao3av70)" height="36.2969" style="stroke: #A80036; stroke-width: 1.5;" width="167" x="496.5" y="473"/><rect fill="#FEFECE" height="5" style="stroke: #A80036; stroke-width: 1.5;" width="10" x="491.5" y="478"/><rect fill="#FEFECE" height="5" style="stroke: #A80036; stroke-width: 1.5;" width="10" x="491.5" y="499.2969"/><text fill="#000000" font-family="sans-serif" font-size="14" lengthAdjust="spacingAndGlyphs" textLength="147" x="506.5" y="495.9951">Command Service TS</text><!--entity Query Service TS--><rect fill="#FEFECE" filter="url(#f1alqsaao3av70)" height="36.2969" style="stroke: #A80036; stroke-width: 1.5;" width="137" x="511.5" y="748"/><rect fill="#FEFECE" height="5" style="stroke: #A80036; stroke-width: 1.5;" width="10" x="506.5" y="753"/><rect fill="#FEFECE" height="5" style="stroke: #A80036; stroke-width: 1.5;" width="10" x="506.5" y="774.2969"/><text fill="#000000" font-family="sans-serif" font-size="14" lengthAdjust="spacingAndGlyphs" textLength="117" x="521.5" y="770.9951">Query Service TS</text><!--entity Timeseries Data--><rect fill="#FEFECE" filter="url(#f1alqsaao3av70)" height="36.2969" style="stroke: #A80036; stroke-width: 1.5;" width="132" x="514" y="633"/><rect fill="#FEFECE" height="5" style="stroke: #A80036; stroke-width: 1.5;" width="10" x="509" y="638"/><rect fill="#FEFECE" height="5" style="stroke: #A80036; stroke-width: 1.5;" width="10" x="509" y="659.2969"/><text fill="#000000" font-family="sans-serif" font-size="14" lengthAdjust="spacingAndGlyphs" textLength="112" x="524" y="655.9951">Timeseries Data</text><!--entity Query Router--><rect fill="#FEFECE" filter="url(#f1alqsaao3av70)" height="36.2969" style="stroke: #A80036; stroke-width: 1.5;" width="112" x="524" y="970"/><rect fill="#FEFECE" height="5" style="stroke: #A80036; stroke-width: 1.5;" width="10" x="519" y="975"/><rect fill="#FEFECE" height="5" style="stroke: #A80036; stroke-width: 1.5;" width="10" x="519" y="996.2969"/><text fill="#000000" font-family="sans-serif" font-size="14" lengthAdjust="spacingAndGlyphs" textLength="92" x="534" y="992.9951">Query Router</text><!--entity User--><ellipse cx="580" cy="1097" fill="#FEFECE" filter="url(#f1alqsaao3av70)" rx="8" ry="8" style="stroke: #A80036; stroke-width: 2.0;"/><path d="M580,1105 L580,1132 M567,1113 L593,1113 M580,1132 L567,1147 M580,1132 L593,1147 " fill="none" filter="url(#f1alqsaao3av70)" style="stroke: #A80036; stroke-width: 2.0;"/><text fill="#000000" font-family="sans-serif" font-size="14" lengthAdjust="spacingAndGlyphs" textLength="32" x="564" y="1166.9951">User</text><!--entity ConfIn--><ellipse cx="484" cy="245" fill="#FEFECE" filter="url(#f1alqsaao3av70)" rx="8" ry="8" style="stroke: #A80036; stroke-width: 2.0;"/><text fill="#000000" font-family="sans-serif" font-size="14" lengthAdjust="spacingAndGlyphs" textLength="132" x="418" y="274.9951">Configuration Layer</text><!--entity ConfOut--><ellipse cx="680" cy="988" fill="#FEFECE" filter="url(#f1alqsaao3av70)" rx="8" ry="8" style="stroke: #A80036; stroke-width: 2.0;"/><text fill="#000000" font-family="sans-serif" font-size="14" lengthAdjust="spacingAndGlyphs" textLength="132" x="614" y="1017.9951">Configuration Layer</text><!--entity API--><rect fill="#FEFECE" filter="url(#f1alqsaao3av70)" height="36.2969" style="stroke: #A80036; stroke-width: 1.5;" width="41" x="708.5" y="227"/><rect fill="#FEFECE" height="5" style="stroke: #A80036; stroke-width: 1.5;" width="10" x="703.5" y="232"/><rect fill="#FEFECE" height="5" style="stroke: #A80036; stroke-width: 1.5;" width="10" x="703.5" y="253.2969"/><text fill="#000000" font-family="sans-serif" font-size="14" lengthAdjust="spacingAndGlyphs" textLength="21" x="718.5" y="249.9951">API</text><!--link Configuration Layer to API--><path d="M921.9318,105.5005 C921.6831,105.8548 921.4306,106.2146 921.1745,106.5795 C920.6623,107.3094 920.1356,108.0598 919.5968,108.8275 C918.5193,110.363 917.393,111.9678 916.2358,113.6167 C913.9215,116.9145 911.4834,120.3884 909.0638,123.8363 C899.385,137.6275 890,151 890,151 C890,151 799.52,203.26 754.22,229.43 " fill="none" id="Configuration Layer-API" style="stroke: #A80036; stroke-width: 1.0;"/><polygon fill="#A80036" points="749.72,232.03,759.5141,230.9926,754.0497,229.5293,755.513,224.065,749.72,232.03" style="stroke: #A80036; stroke-width: 1.0;"/><polygon fill="#A80036" points="921.9318,105.5005,913.4876,110.5696,919.0595,109.5932,920.0359,115.1651,921.9318,105.5005" style="stroke: #A80036; stroke-width: 1.0;"/><!--link Data Router to API--><path d="M636.94,245 C650.74,245 679.33,245 679.33,245 C679.33,245 694.61,245 708.22,245 " fill="none" id="Data Router-API" style="stroke: #A80036; stroke-width: 1.0;"/><polygon fill="#A80036" points="631.8,245,640.8,249,636.8,245,640.8,241,631.8,245" style="stroke: #A80036; stroke-width: 1.0;"/><!--link ConfIn to Data Router--><path d="M493.08,245 C502.54,245 516,245 516,245 C516,245 521.7,245 528.28,245 " fill="none" id="ConfIn-Data Router" style="stroke: #A80036; stroke-width: 1.0; stroke-dasharray: 7.0,7.0;"/><!--link Schema Registry to Leader Elector--><path d="M1252.04,93 C1263.49,93 1279.19,93 1287.31,93 " fill="none" id="Schema Registry-Leader Elector" style="stroke: #A80036; stroke-width: 1.0; stroke-dasharray: 7.0,7.0;"/><!--link Query Router to ConfOut--><path d="M636.12,988 C641.98,988 646.67,988 646.67,988 C646.67,988 661.02,988 670.89,988 " fill="none" id="Query Router-ConfOut" style="stroke: #A80036; stroke-width: 1.0; stroke-dasharray: 7.0,7.0;"/><!--link Admin Web Panel to API--><path d="M729,111.21 C729,138.45 729,191.49 729,221.64 " fill="none" id="Admin Web Panel-API" style="stroke: #A80036; stroke-width: 1.0;"/><polygon fill="#A80036" points="729,226.99,733,217.99,729,221.99,725,217.99,729,226.99" style="stroke: #A80036; stroke-width: 1.0;"/><text fill="#000000" font-family="sans-serif" font-size="13" lengthAdjust="spacingAndGlyphs" textLength="56" x="730" y="172.0669">GraphQL</text><!--link External System to Data Router--><path d="M542.82,111.21 C550.48,138.56 565.42,191.93 573.84,222.02 " fill="none" id="External System-Data Router" style="stroke: #A80036; stroke-width: 1.0;"/><polygon fill="#A80036" points="575.24,226.99,576.6823,217.2473,573.9003,222.1728,568.9748,219.3908,575.24,226.99" style="stroke: #A80036; stroke-width: 1.0;"/><text fill="#000000" font-family="sans-serif" font-size="13" lengthAdjust="spacingAndGlyphs" textLength="21" x="561" y="172.0669">MQ</text><!--link Data Router to Command Service Doc--><path d="M563.55,263.16 C521.76,306.73 411.63,421.57 366.12,469.02 " fill="none" id="Data Router-Command Service Doc" style="stroke: #A80036; stroke-width: 1.0;"/><polygon fill="#A80036" points="362.44,472.86,371.5516,469.1211,365.8961,469.2468,365.7704,463.5913,362.44,472.86" style="stroke: #A80036; stroke-width: 1.0;"/><text fill="#000000" font-family="sans-serif" font-size="13" lengthAdjust="spacingAndGlyphs" textLength="21" x="504" y="339.0669">MQ</text><!--link Data Router to Command Service TS--><path d="M580,263.16 C580,306.3 580,419.27 580,467.57 " fill="none" id="Data Router-Command Service TS" style="stroke: #A80036; stroke-width: 1.0;"/><polygon fill="#A80036" points="580,472.86,584,463.86,580,467.86,576,463.86,580,472.86" style="stroke: #A80036; stroke-width: 1.0;"/><text fill="#000000" font-family="sans-serif" font-size="13" lengthAdjust="spacingAndGlyphs" textLength="21" x="581" y="339.0669">MQ</text><!--link Data Router to ANY--><path d="M602.78,263.16 C665.84,310.65 841.29,442.77 890.82,480.08 " fill="none" id="Data Router-ANY" style="stroke: #A80036; stroke-width: 1.0;"/><polygon fill="#A80036" points="894.96,483.19,890.1796,474.5791,890.9669,480.1809,885.365,480.9681,894.96,483.19" style="stroke: #A80036; stroke-width: 1.0;"/><text fill="#000000" font-family="sans-serif" font-size="13" lengthAdjust="spacingAndGlyphs" textLength="21" x="709" y="339.0669">MQ</text><!--link Command Service Doc to Document Data--><path d="M345.89,509.21 C345.71,537.94 345.34,595.66 345.14,627.55 " fill="none" id="Command Service Doc-Document Data" style="stroke: #A80036; stroke-width: 1.0;"/><polygon fill="#A80036" points="345.11,632.81,349.1614,623.833,345.1386,627.8101,341.1615,623.7873,345.11,632.81" style="stroke: #A80036; stroke-width: 1.0;"/><text fill="#000000" font-family="sans-serif" font-size="13" lengthAdjust="spacingAndGlyphs" textLength="26" x="346" y="563.0669">SQL</text><!--link Command Service TS to Timeseries Data--><path d="M572.93,509.09 C565.85,526.2 556,550 556,550 C556,550 556,567 556,567 C556,567 566.46,603.16 573.57,627.75 " fill="none" id="Command Service TS-Timeseries Data" style="stroke: #A80036; stroke-width: 1.0;"/><polygon fill="#A80036" points="575.03,632.8,576.35,623.04,573.63,628,568.67,625.28,575.03,632.8" style="stroke: #A80036; stroke-width: 1.0;"/><text fill="#000000" font-family="sans-serif" font-size="13" lengthAdjust="spacingAndGlyphs" textLength="32" x="557" y="563.0669">REST</text><!--link DB Shrinker Storage to Document Data--><path d="M164.11,509.21 C201.79,538.53 278.26,598.06 318.65,629.49 " fill="none" id="DB Shrinker Storage-Document Data" style="stroke: #A80036; stroke-width: 1.0;"/><polygon fill="#A80036" points="322.92,632.81,318.2781,624.1236,318.9755,629.7373,313.3619,630.4348,322.92,632.81" style="stroke: #A80036; stroke-width: 1.0;"/><text fill="#000000" font-family="sans-serif" font-size="13" lengthAdjust="spacingAndGlyphs" textLength="26" x="239" y="563.0669">SQL</text><!--link Document Data to Query Service Doc--><path d="M346.59,674.4 C348.11,695.93 350.38,728.03 351.77,747.68 " fill="none" id="Document Data-Query Service Doc" style="stroke: #A80036; stroke-width: 1.0;"/><polygon fill="#A80036" points="346.22,669.16,342.8469,678.4132,346.563,674.1482,350.828,677.8644,346.22,669.16" style="stroke: #A80036; stroke-width: 1.0;"/><text fill="#000000" font-family="sans-serif" font-size="13" lengthAdjust="spacingAndGlyphs" textLength="26" x="350" y="714.0669">SQL</text><!--link Timeseries Data to Query Service TS--><path d="M569.29,673.88 C562.89,686.93 556,701 556,701 C556,701 556,718 556,718 C556,718 564.35,734.35 571.2,747.77 " fill="none" id="Timeseries Data-Query Service TS" style="stroke: #A80036; stroke-width: 1.0;"/><polygon fill="#A80036" points="571.61,669.14,564.0636,675.4686,569.4139,673.6319,571.2506,678.9823,571.61,669.14" style="stroke: #A80036; stroke-width: 1.0;"/><text fill="#000000" font-family="sans-serif" font-size="13" lengthAdjust="spacingAndGlyphs" textLength="32" x="557" y="714.0669">REST</text><!--link Query Service Doc to Query Router--><path d="M374.43,787.77 C419.03,831 521.08,929.89 562.27,969.82 " fill="none" id="Query Service Doc-Query Router" style="stroke: #A80036; stroke-width: 1.0;"/><polygon fill="#A80036" points="370.81,784.26,374.4752,793.4015,374.3952,787.7452,380.0515,787.6652,370.81,784.26" style="stroke: #A80036; stroke-width: 1.0;"/><text fill="#000000" font-family="sans-serif" font-size="13" lengthAdjust="spacingAndGlyphs" textLength="33" x="478" y="884.0669">gRPC</text><!--link Query Service TS to Query Router--><path d="M580,789.36 C580,833.37 580,930.38 580,969.82 " fill="none" id="Query Service TS-Query Router" style="stroke: #A80036; stroke-width: 1.0;"/><polygon fill="#A80036" points="580,784.26,576,793.26,580,789.26,584,793.26,580,784.26" style="stroke: #A80036; stroke-width: 1.0;"/><text fill="#000000" font-family="sans-serif" font-size="13" lengthAdjust="spacingAndGlyphs" textLength="33" x="581" y="884.0669">gRPC</text><!--link ANY to Query Router--><path d="M897.27,504.66 C877.34,542.15 820,650 820,650 C820,650 820,650 820,880.5 C820,880.5 654,927 654,927 C654,927 622.89,952.23 601.01,969.97 " fill="none" id="ANY-Query Router" style="stroke: #A80036; stroke-width: 1.0;"/><polygon fill="#A80036" points="899.72,500.05,891.9675,506.1245,897.376,504.4665,899.0339,509.8749,899.72,500.05" style="stroke: #A80036; stroke-width: 1.0;"/><text fill="#000000" font-family="sans-serif" font-size="13" lengthAdjust="spacingAndGlyphs" textLength="33" x="821" y="770.5669">gRPC</text><!--link Query Router to User--><path d="M580,1011.45 C580,1031.75 580,1062.14 580,1086.73 " fill="none" id="Query Router-User" style="stroke: #A80036; stroke-width: 1.0;"/><polygon fill="#A80036" points="580,1006.26,576,1015.26,580,1011.26,584,1015.26,580,1006.26" style="stroke: #A80036; stroke-width: 1.0;"/><text fill="#000000" font-family="sans-serif" font-size="13" lengthAdjust="spacingAndGlyphs" textLength="32" x="581" y="1051.0669">REST</text></g></svg>