<?xml version="1.0" encoding="UTF-8" standalone="no"?><svg xmlns="http://www.w3.org/2000/svg" xmlns:xlink="http://www.w3.org/1999/xlink" contentScriptType="application/ecmascript" contentStyleType="text/css" height="1399px" preserveAspectRatio="none" style="width:1605px;height:1399px;background:#FEFEFE;" version="1.1" viewBox="0 0 1605 1399" width="1605px" zoomAndPan="magnify"><defs><filter height="300%" id="fiuwmlaz26u40" width="300%" x="-1" y="-1"><feGaussianBlur result="blurOut" stdDeviation="2.0"/><feColorMatrix in="blurOut" result="blurOut2" type="matrix" values="0 0 0 0 0 0 0 0 0 0 0 0 0 0 0 0 0 0 .4 0"/><feOffset dx="4.0" dy="4.0" in="blurOut2" result="blurOut3"/><feBlend in="SourceGraphic" in2="blurOut3" mode="normal"/></filter></defs><g><path d="M623,66 C623,63 625,61 628,61 C631,61 633,63 633,66 C633,63 635,61 638,61 C641,61 643,63 643,66 C643,63 645,61 648,61 C651,61 653,63 653,66 C653,63 655,61 658,61 C661,61 663,63 663,66 C663,63 665,61 668,61 C671,61 673,63 673,66 C673,63 675,61 678,61 C681,61 683,63 683,66 C683,63 685,61 688,61 C691,61 693,63 693,66 C693,63 695,61 698,61 C701,61 703,63 703,66 C703,63 705,61 708,61 C711,61 713,63 713,66 C713,63 715,61 718,61 C721,61 723,63 723,66 C723,63 725,61 728,61 C731,61 733,63 733,66 C733,63 735,61 738,61 C741,61 743,63 743,66 C743,63 745,61 748,61 C751,61 753,63 753,66 C753,63 755,61 758,61 C761,61 763,63 763,66 C763,63 765,61 768,61 C771,61 773,63 773,66 C773,63 775,61 778,61 C781,61 783,63 783,66 C786,66 788,68 788,71 C788,74 786,76 783,76 C786,76 788,78 788,81 C788,84 786,86 783,86 C786,86 788,88 788,91 C788,94 786,96 783,96 C786,96 788,98 788,101 C788,104 786,106 783,106 C786,106 788,108 788,111 C788,114 786,116 783,116 C783,119 780,121 778,121 C775,121 773,119 773,116 C773,119 770,121 768,121 C765,121 763,119 763,116 C763,119 760,121 758,121 C755,121 753,119 753,116 C753,119 750,121 748,121 C745,121 743,119 743,116 C743,119 740,121 738,121 C735,121 733,119 733,116 C733,119 730,121 728,121 C725,121 723,119 723,116 C723,119 720,121 718,121 C715,121 713,119 713,116 C713,119 710,121 708,121 C705,121 703,119 703,116 C703,119 700,121 698,121 C695,121 693,119 693,116 C693,119 690,121 688,121 C685,121 683,119 683,116 C683,119 680,121 678,121 C675,121 673,119 673,116 C673,119 670,121 668,121 C665,121 663,119 663,116 C663,119 660,121 658,121 C655,121 653,119 653,116 C653,119 650,121 648,121 C645,121 643,119 643,116 C643,119 640,121 638,121 C635,121 633,119 633,116 C633,119 630,121 628,121 C625,121 623,119 623,116 C620,116 618,114 618,111 C618,108 620,106 623,106 C620,106 618,104 618,101 C618,98 620,96 623,96 C620,96 618,94 618,91 C618,88 620,86 623,86 C620,86 618,84 618,81 C618,78 620,76 623,76 C620,76 618,74 618,71 C618,68 620,66 623,66 " fill="#FEFEFE" filter="url(#fiuwmlaz26u40)" style="stroke: #000000; stroke-width: 1.5;"/><!--cluster Management Layer--><rect fill="#FEFEFE" filter="url(#fiuwmlaz26u40)" height="87" style="stroke: #000000; stroke-width: 1.5;" width="247" x="806" y="40"/><path d="M966,41 L966,49.2969 L956,59.2969 L806,59.2969 " fill="none" style="stroke: #000000; stroke-width: 1.5;"/><text fill="#000000" font-family="sans-serif" font-size="14" font-weight="bold" lengthAdjust="spacingAndGlyphs" textLength="150" x="809" y="53.9951">Management Layer</text><!--cluster Ingestion Layer--><rect fill="#FEFEFE" filter="url(#fiuwmlaz26u40)" height="87" style="stroke: #000000; stroke-width: 1.5;" width="138" x="647" y="192"/><path d="M779,193 L779,201.2969 L769,211.2969 L647,211.2969 " fill="none" style="stroke: #000000; stroke-width: 1.5;"/><text fill="#000000" font-family="sans-serif" font-size="14" font-weight="bold" lengthAdjust="spacingAndGlyphs" textLength="122" x="650" y="205.9951">Ingestion Layer</text><!--cluster Configuration Layer--><rect fill="#FEFEFE" filter="url(#fiuwmlaz26u40)" height="103" style="stroke: #000000; stroke-width: 1.5;" width="509" x="1085" y="32"/><path d="M1251,33 L1251,41.2969 L1241,51.2969 L1085,51.2969 " fill="none" style="stroke: #000000; stroke-width: 1.5;"/><text fill="#000000" font-family="sans-serif" font-size="14" font-weight="bold" lengthAdjust="spacingAndGlyphs" textLength="156" x="1088" y="45.9951">Configuration Layer</text><!--cluster Storage Layer--><rect fill="#FEFEFE" filter="url(#fiuwmlaz26u40)" height="434" style="stroke: #000000; stroke-width: 1.5;" width="1104" x="172" y="390"/><path d="M293,391 L293,399.2969 L283,409.2969 L172,409.2969 " fill="none" style="stroke: #000000; stroke-width: 1.5;"/><text fill="#000000" font-family="sans-serif" font-size="14" font-weight="bold" lengthAdjust="spacingAndGlyphs" textLength="111" x="175" y="403.9951">Storage Layer</text><!--cluster Repository Doc--><polygon fill="#FEFEFE" filter="url(#fiuwmlaz26u40)" points="612,443,622,433,1016,433,1016,790,1006,800,612,800,612,443" style="stroke: #000000; stroke-width: 1.5;"/><line style="stroke: #000000; stroke-width: 1.5;" x1="1006" x2="1015" y1="443" y2="434"/><line style="stroke: #000000; stroke-width: 1.5;" x1="612" x2="1006" y1="443" y2="443"/><line style="stroke: #000000; stroke-width: 1.5;" x1="1006" x2="1006" y1="443" y2="800"/><text fill="#000000" font-family="sans-serif" font-size="14" font-weight="bold" lengthAdjust="spacingAndGlyphs" textLength="120" x="750" y="458.9951">Repository Doc</text><!--cluster Postgres--><path d="M636,593 C636,583 717,583 717,583 C717,583 798,583 798,593 L798,675 C798,685 717,685 717,685 C717,685 636,685 636,675 L636,593 " fill="#FEFEFE" filter="url(#fiuwmlaz26u40)" style="stroke: #000000; stroke-width: 1.5;"/><path d="M636,593 C636,603 717,603 717,603 C717,603 798,603 798,593 " fill="none" style="stroke: #000000; stroke-width: 1.5;"/><text fill="#000000" font-family="sans-serif" font-size="14" font-weight="bold" lengthAdjust="spacingAndGlyphs" textLength="71" x="681.5" y="617.9951">Postgres</text><!--cluster Repository TS--><polygon fill="#FEFEFE" filter="url(#fiuwmlaz26u40)" points="1040,443,1050,433,1252,433,1252,790,1242,800,1040,800,1040,443" style="stroke: #000000; stroke-width: 1.5;"/><line style="stroke: #000000; stroke-width: 1.5;" x1="1242" x2="1251" y1="443" y2="434"/><line style="stroke: #000000; stroke-width: 1.5;" x1="1040" x2="1242" y1="443" y2="443"/><line style="stroke: #000000; stroke-width: 1.5;" x1="1242" x2="1242" y1="443" y2="800"/><text fill="#000000" font-family="sans-serif" font-size="14" font-weight="bold" lengthAdjust="spacingAndGlyphs" textLength="110" x="1087" y="458.9951">Repository TS</text><!--cluster Victoria Metrics--><path d="M1064,593 C1064,583 1146,583 1146,583 C1146,583 1228,583 1228,593 L1228,675 C1228,685 1146,685 1146,685 C1146,685 1064,685 1064,675 L1064,593 " fill="#FEFEFE" filter="url(#fiuwmlaz26u40)" style="stroke: #000000; stroke-width: 1.5;"/><path d="M1064,593 C1064,603 1146,603 1146,603 C1146,603 1228,603 1228,593 " fill="none" style="stroke: #000000; stroke-width: 1.5;"/><text fill="#000000" font-family="sans-serif" font-size="14" font-weight="bold" lengthAdjust="spacingAndGlyphs" textLength="123" x="1084.5" y="617.9951">Victoria Metrics</text><!--cluster Materialization Layer--><rect fill="#FEFEFE" filter="url(#fiuwmlaz26u40)" height="515" style="stroke: #000000; stroke-width: 1.5;" width="179" x="345" y="873"/><path d="M518,874 L518,882.2969 L508,892.2969 L345,892.2969 " fill="none" style="stroke: #000000; stroke-width: 1.5;"/><text fill="#000000" font-family="sans-serif" font-size="14" font-weight="bold" lengthAdjust="spacingAndGlyphs" textLength="163" x="348" y="886.9951">Materialization Layer</text><!--cluster Retrieval Layer--><rect fill="#FEFEFE" filter="url(#fiuwmlaz26u40)" height="87" style="stroke: #000000; stroke-width: 1.5;" width="144" x="610" y="991"/><path d="M738,992 L738,1000.2969 L728,1010.2969 L610,1010.2969 " fill="none" style="stroke: #000000; stroke-width: 1.5;"/><text fill="#000000" font-family="sans-serif" font-size="14" font-weight="bold" lengthAdjust="spacingAndGlyphs" textLength="118" x="613" y="1004.9951">Retrieval Layer</text><path d="M609,1134 C609,1131 611,1129 614,1129 C617,1129 619,1131 619,1134 C619,1131 621,1129 624,1129 C627,1129 629,1131 629,1134 C629,1131 631,1129 634,1129 C637,1129 639,1131 639,1134 C639,1131 641,1129 644,1129 C647,1129 649,1131 649,1134 C649,1131 651,1129 654,1129 C657,1129 659,1131 659,1134 C659,1131 661,1129 664,1129 C667,1129 669,1131 669,1134 C672,1134 674,1136 674,1139 C674,1142 672,1144 669,1144 C672,1144 674,1146 674,1149 C674,1152 672,1154 669,1154 C672,1154 674,1156 674,1159 C674,1162 672,1164 669,1164 C672,1164 674,1166 674,1169 C674,1172 672,1174 669,1174 C672,1174 674,1176 674,1179 C674,1182 672,1184 669,1184 C672,1184 674,1186 674,1189 C674,1192 672,1194 669,1194 C672,1194 674,1196 674,1199 C674,1202 672,1204 669,1204 C672,1204 674,1206 674,1209 C674,1212 672,1214 669,1214 C672,1214 674,1216 674,1219 C674,1222 672,1224 669,1224 C672,1224 674,1226 674,1229 C674,1232 672,1234 669,1234 C669,1237 666,1239 664,1239 C661,1239 659,1237 659,1234 C659,1237 656,1239 654,1239 C651,1239 649,1237 649,1234 C649,1237 646,1239 644,1239 C641,1239 639,1237 639,1234 C639,1237 636,1239 634,1239 C631,1239 629,1237 629,1234 C629,1237 626,1239 624,1239 C621,1239 619,1237 619,1234 C619,1237 616,1239 614,1239 C611,1239 609,1237 609,1234 C606,1234 604,1232 604,1229 C604,1226 606,1224 609,1224 C606,1224 604,1222 604,1219 C604,1216 606,1214 609,1214 C606,1214 604,1212 604,1209 C604,1206 606,1204 609,1204 C606,1204 604,1202 604,1199 C604,1196 606,1194 609,1194 C606,1194 604,1192 604,1189 C604,1186 606,1184 609,1184 C606,1184 604,1182 604,1179 C604,1176 606,1174 609,1174 C606,1174 604,1172 604,1169 C604,1166 606,1164 609,1164 C606,1164 604,1162 604,1159 C604,1156 606,1154 609,1154 C606,1154 604,1152 604,1149 C604,1146 606,1144 609,1144 C606,1144 604,1142 604,1139 C604,1136 606,1134 609,1134 " fill="#FEFEFE" filter="url(#fiuwmlaz26u40)" style="stroke: #000000; stroke-width: 1.5;"/><!--entity External System--><rect fill="#FEFECE" filter="url(#fiuwmlaz26u40)" height="36.2969" style="stroke: #A80036; stroke-width: 1.5;" width="130" x="636" y="75"/><rect fill="#FEFECE" height="5" style="stroke: #A80036; stroke-width: 1.5;" width="10" x="631" y="80"/><rect fill="#FEFECE" height="5" style="stroke: #A80036; stroke-width: 1.5;" width="10" x="631" y="101.2969"/><text fill="#000000" font-family="sans-serif" font-size="14" lengthAdjust="spacingAndGlyphs" textLength="110" x="646" y="97.9951">External System</text><!--entity CLI--><rect fill="#FEFECE" filter="url(#fiuwmlaz26u40)" height="36.2969" style="stroke: #A80036; stroke-width: 1.5;" width="40" x="997" y="75"/><rect fill="#FEFECE" height="5" style="stroke: #A80036; stroke-width: 1.5;" width="10" x="992" y="80"/><rect fill="#FEFECE" height="5" style="stroke: #A80036; stroke-width: 1.5;" width="10" x="992" y="101.2969"/><text fill="#000000" font-family="sans-serif" font-size="14" lengthAdjust="spacingAndGlyphs" textLength="20" x="1007" y="97.9951">CLI</text><!--entity Admin Web Panel--><rect fill="#FEFECE" filter="url(#fiuwmlaz26u40)" height="36.2969" style="stroke: #A80036; stroke-width: 1.5;" width="140" x="822" y="75"/><rect fill="#FEFECE" height="5" style="stroke: #A80036; stroke-width: 1.5;" width="10" x="817" y="80"/><rect fill="#FEFECE" height="5" style="stroke: #A80036; stroke-width: 1.5;" width="10" x="817" y="101.2969"/><text fill="#000000" font-family="sans-serif" font-size="14" lengthAdjust="spacingAndGlyphs" textLength="120" x="832" y="97.9951">Admin Web Panel</text><!--entity Data Router--><rect fill="#FEFECE" filter="url(#fiuwmlaz26u40)" height="36.2969" style="stroke: #A80036; stroke-width: 1.5;" width="103" x="664.5" y="227"/><rect fill="#FEFECE" height="5" style="stroke: #A80036; stroke-width: 1.5;" width="10" x="659.5" y="232"/><rect fill="#FEFECE" height="5" style="stroke: #A80036; stroke-width: 1.5;" width="10" x="659.5" y="253.2969"/><text fill="#000000" font-family="sans-serif" font-size="14" lengthAdjust="spacingAndGlyphs" textLength="83" x="674.5" y="249.9951">Data Router</text><!--entity Schema Registry--><rect fill="#FEFECE" filter="url(#fiuwmlaz26u40)" height="36.2969" style="stroke: #A80036; stroke-width: 1.5;" width="136" x="1279" y="75"/><rect fill="#FEFECE" height="5" style="stroke: #A80036; stroke-width: 1.5;" width="10" x="1274" y="80"/><rect fill="#FEFECE" height="5" style="stroke: #A80036; stroke-width: 1.5;" width="10" x="1274" y="101.2969"/><text fill="#000000" font-family="sans-serif" font-size="14" lengthAdjust="spacingAndGlyphs" textLength="116" x="1289" y="97.9951">Schema Registry</text><!--entity Leader Elector--><rect fill="#FEFECE" filter="url(#fiuwmlaz26u40)" height="36.2969" style="stroke: #A80036; stroke-width: 1.5;" width="119" x="1450.5" y="75"/><rect fill="#FEFECE" height="5" style="stroke: #A80036; stroke-width: 1.5;" width="10" x="1445.5" y="80"/><rect fill="#FEFECE" height="5" style="stroke: #A80036; stroke-width: 1.5;" width="10" x="1445.5" y="101.2969"/><text fill="#000000" font-family="sans-serif" font-size="14" lengthAdjust="spacingAndGlyphs" textLength="99" x="1460.5" y="97.9951">Leader Elector</text><!--entity Edge Registry--><rect fill="#FEFECE" filter="url(#fiuwmlaz26u40)" height="36.2969" style="stroke: #A80036; stroke-width: 1.5;" width="116" x="1128" y="75"/><rect fill="#FEFECE" height="5" style="stroke: #A80036; stroke-width: 1.5;" width="10" x="1123" y="80"/><rect fill="#FEFECE" height="5" style="stroke: #A80036; stroke-width: 1.5;" width="10" x="1123" y="101.2969"/><text fill="#000000" font-family="sans-serif" font-size="14" lengthAdjust="spacingAndGlyphs" textLength="96" x="1138" y="97.9951">Edge Registry</text><!--entity ANY--><ellipse cx="390" cy="491" fill="#FEFECE" filter="url(#fiuwmlaz26u40)" rx="8" ry="8" style="stroke: #A80036; stroke-width: 2.0;"/><text fill="#000000" font-family="sans-serif" font-size="14" lengthAdjust="spacingAndGlyphs" textLength="389" x="195.5" y="520.9951">any number of repositories (Document/Timeseries/Blob)</text><!--entity Command Service Doc--><rect fill="#FEFECE" filter="url(#fiuwmlaz26u40)" height="36.2969" style="stroke: #A80036; stroke-width: 1.5;" width="177" x="627.5" y="473"/><rect fill="#FEFECE" height="5" style="stroke: #A80036; stroke-width: 1.5;" width="10" x="622.5" y="478"/><rect fill="#FEFECE" height="5" style="stroke: #A80036; stroke-width: 1.5;" width="10" x="622.5" y="499.2969"/><text fill="#000000" font-family="sans-serif" font-size="14" lengthAdjust="spacingAndGlyphs" textLength="157" x="637.5" y="495.9951">Command Service Doc</text><!--entity DB Shrinker Storage--><rect fill="#FEFECE" filter="url(#fiuwmlaz26u40)" height="36.2969" style="stroke: #A80036; stroke-width: 1.5;" width="160" x="840" y="473"/><rect fill="#FEFECE" height="5" style="stroke: #A80036; stroke-width: 1.5;" width="10" x="835" y="478"/><rect fill="#FEFECE" height="5" style="stroke: #A80036; stroke-width: 1.5;" width="10" x="835" y="499.2969"/><text fill="#000000" font-family="sans-serif" font-size="14" lengthAdjust="spacingAndGlyphs" textLength="140" x="850" y="495.9951">DB Shrinker Storage</text><!--entity Query Service Doc--><rect fill="#FEFECE" filter="url(#fiuwmlaz26u40)" height="36.2969" style="stroke: #A80036; stroke-width: 1.5;" width="147" x="629.5" y="748"/><rect fill="#FEFECE" height="5" style="stroke: #A80036; stroke-width: 1.5;" width="10" x="624.5" y="753"/><rect fill="#FEFECE" height="5" style="stroke: #A80036; stroke-width: 1.5;" width="10" x="624.5" y="774.2969"/><text fill="#000000" font-family="sans-serif" font-size="14" lengthAdjust="spacingAndGlyphs" textLength="127" x="639.5" y="770.9951">Query Service Doc</text><!--entity Document Data--><rect fill="#FEFECE" filter="url(#fiuwmlaz26u40)" height="36.2969" style="stroke: #A80036; stroke-width: 1.5;" width="129" x="652.5" y="633"/><rect fill="#FEFECE" height="5" style="stroke: #A80036; stroke-width: 1.5;" width="10" x="647.5" y="638"/><rect fill="#FEFECE" height="5" style="stroke: #A80036; stroke-width: 1.5;" width="10" x="647.5" y="659.2969"/><text fill="#000000" font-family="sans-serif" font-size="14" lengthAdjust="spacingAndGlyphs" textLength="109" x="662.5" y="655.9951">Document Data</text><!--entity Command Service TS--><rect fill="#FEFECE" filter="url(#fiuwmlaz26u40)" height="36.2969" style="stroke: #A80036; stroke-width: 1.5;" width="167" x="1058.5" y="473"/><rect fill="#FEFECE" height="5" style="stroke: #A80036; stroke-width: 1.5;" width="10" x="1053.5" y="478"/><rect fill="#FEFECE" height="5" style="stroke: #A80036; stroke-width: 1.5;" width="10" x="1053.5" y="499.2969"/><text fill="#000000" font-family="sans-serif" font-size="14" lengthAdjust="spacingAndGlyphs" textLength="147" x="1068.5" y="495.9951">Command Service TS</text><!--entity Query Service TS--><rect fill="#FEFECE" filter="url(#fiuwmlaz26u40)" height="36.2969" style="stroke: #A80036; stroke-width: 1.5;" width="137" x="1056.5" y="748"/><rect fill="#FEFECE" height="5" style="stroke: #A80036; stroke-width: 1.5;" width="10" x="1051.5" y="753"/><rect fill="#FEFECE" height="5" style="stroke: #A80036; stroke-width: 1.5;" width="10" x="1051.5" y="774.2969"/><text fill="#000000" font-family="sans-serif" font-size="14" lengthAdjust="spacingAndGlyphs" textLength="117" x="1066.5" y="770.9951">Query Service TS</text><!--entity Timeseries Data--><rect fill="#FEFECE" filter="url(#fiuwmlaz26u40)" height="36.2969" style="stroke: #A80036; stroke-width: 1.5;" width="132" x="1080" y="633"/><rect fill="#FEFECE" height="5" style="stroke: #A80036; stroke-width: 1.5;" width="10" x="1075" y="638"/><rect fill="#FEFECE" height="5" style="stroke: #A80036; stroke-width: 1.5;" width="10" x="1075" y="659.2969"/><text fill="#000000" font-family="sans-serif" font-size="14" lengthAdjust="spacingAndGlyphs" textLength="112" x="1090" y="655.9951">Timeseries Data</text><!--entity Object Builder--><rect fill="#FEFECE" filter="url(#fiuwmlaz26u40)" height="36.2969" style="stroke: #A80036; stroke-width: 1.5;" width="117" x="388.5" y="908"/><rect fill="#FEFECE" height="5" style="stroke: #A80036; stroke-width: 1.5;" width="10" x="383.5" y="913"/><rect fill="#FEFECE" height="5" style="stroke: #A80036; stroke-width: 1.5;" width="10" x="383.5" y="934.2969"/><text fill="#000000" font-family="sans-serif" font-size="14" lengthAdjust="spacingAndGlyphs" textLength="97" x="398.5" y="930.9951">Object Builder</text><!--entity SRTS--><ellipse cx="447" cy="1299" fill="#FEFECE" filter="url(#fiuwmlaz26u40)" rx="8" ry="8" style="stroke: #A80036; stroke-width: 2.0;"/><path d="M447,1307 L447,1334 M434,1315 L460,1315 M447,1334 L434,1349 M447,1334 L460,1349 " fill="none" filter="url(#fiuwmlaz26u40)" style="stroke: #A80036; stroke-width: 2.0;"/><text fill="#000000" font-family="sans-serif" font-size="14" lengthAdjust="spacingAndGlyphs" textLength="37" x="428.5" y="1368.9951">SRTS</text><!--entity Query Router--><rect fill="#FEFECE" filter="url(#fiuwmlaz26u40)" height="36.2969" style="stroke: #A80036; stroke-width: 1.5;" width="112" x="626" y="1026"/><rect fill="#FEFECE" height="5" style="stroke: #A80036; stroke-width: 1.5;" width="10" x="621" y="1031"/><rect fill="#FEFECE" height="5" style="stroke: #A80036; stroke-width: 1.5;" width="10" x="621" y="1052.2969"/><text fill="#000000" font-family="sans-serif" font-size="14" lengthAdjust="spacingAndGlyphs" textLength="92" x="636" y="1048.9951">Query Router</text><!--entity User--><ellipse cx="638" cy="1153" fill="#FEFECE" filter="url(#fiuwmlaz26u40)" rx="8" ry="8" style="stroke: #A80036; stroke-width: 2.0;"/><path d="M638,1161 L638,1188 M625,1169 L651,1169 M638,1188 L625,1203 M638,1188 L651,1203 " fill="none" filter="url(#fiuwmlaz26u40)" style="stroke: #A80036; stroke-width: 2.0;"/><text fill="#000000" font-family="sans-serif" font-size="14" lengthAdjust="spacingAndGlyphs" textLength="32" x="622" y="1222.9951">User</text><!--entity ConfIn--><ellipse cx="812" cy="245" fill="#FEFECE" filter="url(#fiuwmlaz26u40)" rx="8" ry="8" style="stroke: #A80036; stroke-width: 2.0;"/><text fill="#000000" font-family="sans-serif" font-size="14" lengthAdjust="spacingAndGlyphs" textLength="132" x="746" y="274.9951">Configuration Layer</text><!--entity ConfOut--><ellipse cx="782" cy="1044" fill="#FEFECE" filter="url(#fiuwmlaz26u40)" rx="8" ry="8" style="stroke: #A80036; stroke-width: 2.0;"/><text fill="#000000" font-family="sans-serif" font-size="14" lengthAdjust="spacingAndGlyphs" textLength="132" x="716" y="1073.9951">Configuration Layer</text><!--entity API--><rect fill="#FEFECE" filter="url(#fiuwmlaz26u40)" height="36.2969" style="stroke: #A80036; stroke-width: 1.5;" width="41" x="871.5" y="227"/><rect fill="#FEFECE" height="5" style="stroke: #A80036; stroke-width: 1.5;" width="10" x="866.5" y="232"/><rect fill="#FEFECE" height="5" style="stroke: #A80036; stroke-width: 1.5;" width="10" x="866.5" y="253.2969"/><text fill="#000000" font-family="sans-serif" font-size="14" lengthAdjust="spacingAndGlyphs" textLength="21" x="881.5" y="249.9951">API</text><!--entity Query Service Blob--><rect fill="#FEFECE" filter="url(#fiuwmlaz26u40)" height="36.2969" style="stroke: #A80036; stroke-width: 1.5;" width="150" x="6" y="748"/><rect fill="#FEFECE" height="5" style="stroke: #A80036; stroke-width: 1.5;" width="10" x="1" y="753"/><rect fill="#FEFECE" height="5" style="stroke: #A80036; stroke-width: 1.5;" width="10" x="1" y="774.2969"/><text fill="#000000" font-family="sans-serif" font-size="14" lengthAdjust="spacingAndGlyphs" textLength="130" x="16" y="770.9951">Query Service Blob</text><!--link Configuration Layer to API--><path d="M1084.9318,105.5005 C1084.6831,105.8548 1084.4306,106.2146 1084.1745,106.5795 C1083.6623,107.3094 1083.1356,108.0598 1082.5968,108.8275 C1081.5193,110.363 1080.393,111.9678 1079.2358,113.6167 C1076.9215,116.9145 1074.4834,120.3884 1072.0638,123.8363 C1062.385,137.6275 1053,151 1053,151 C1053,151 962.52,203.26 917.22,229.43 " fill="none" id="Configuration Layer-API" style="stroke: #A80036; stroke-width: 1.0;"/><polygon fill="#A80036" points="912.72,232.03,922.5141,230.9926,917.0497,229.5293,918.513,224.065,912.72,232.03" style="stroke: #A80036; stroke-width: 1.0;"/><polygon fill="#A80036" points="1084.9318,105.5005,1076.4876,110.5696,1082.0595,109.5932,1083.0359,115.1651,1084.9318,105.5005" style="stroke: #A80036; stroke-width: 1.0;"/><!--link Data Router to API--><path d="M740.79,223.05 C766.66,200.13 803.5,167.5 803.5,167.5 C803.5,167.5 821.5,167.5 821.5,167.5 C821.5,167.5 839,184 839,184 C839,184 860.49,208.73 876.1,226.7 " fill="none" id="Data Router-API" style="stroke: #A80036; stroke-width: 1.0;"/><polygon fill="#A80036" points="736.74,226.63,746.1298,223.6582,740.4833,223.3153,740.8262,217.6688,736.74,226.63" style="stroke: #A80036; stroke-width: 1.0;"/><!--link ConfIn to Data Router--><path d="M802.92,245 C793.46,245 780,245 780,245 C780,245 774.3,245 767.72,245 " fill="none" id="ConfIn-Data Router" style="stroke: #A80036; stroke-width: 1.0; stroke-dasharray: 7.0,7.0;"/><!--link Schema Registry to Leader Elector--><path d="M1415.04,93 C1426.49,93 1442.19,93 1450.31,93 " fill="none" id="Schema Registry-Leader Elector" style="stroke: #A80036; stroke-width: 1.0; stroke-dasharray: 7.0,7.0;"/><!--link Object Builder to SRTS--><path d="M447,944.04 C447,1003.44 447,1202.47 447,1288.89 " fill="none" id="Object Builder-SRTS" style="stroke: #A80036; stroke-width: 1.0; stroke-dasharray: 7.0,7.0;"/><!--link Query Router to ConfOut--><path d="M738.12,1044 C743.98,1044 748.67,1044 748.67,1044 C748.67,1044 763.02,1044 772.89,1044 " fill="none" id="Query Router-ConfOut" style="stroke: #A80036; stroke-width: 1.0; stroke-dasharray: 7.0,7.0;"/><!--link Admin Web Panel to API--><path d="M892,111.21 C892,138.45 892,191.49 892,221.64 " fill="none" id="Admin Web Panel-API" style="stroke: #A80036; stroke-width: 1.0;"/><polygon fill="#A80036" points="892,226.99,896,217.99,892,221.99,888,217.99,892,226.99" style="stroke: #A80036; stroke-width: 1.0;"/><text fill="#000000" font-family="sans-serif" font-size="13" lengthAdjust="spacingAndGlyphs" textLength="56" x="893" y="172.0669">GraphQL</text><!--link External System to Data Router--><path d="M702.72,111.21 C705.46,138.56 710.79,191.93 713.8,222.02 " fill="none" id="External System-Data Router" style="stroke: #A80036; stroke-width: 1.0;"/><polygon fill="#A80036" points="714.3,226.99,717.3793,217.6349,713.7997,222.0151,709.4194,218.4355,714.3,226.99" style="stroke: #A80036; stroke-width: 1.0;"/><text fill="#000000" font-family="sans-serif" font-size="13" lengthAdjust="spacingAndGlyphs" textLength="21" x="709" y="172.0669">MQ</text><!--link Data Router to Command Service Doc--><path d="M716,263.16 C716,306.3 716,419.27 716,467.57 " fill="none" id="Data Router-Command Service Doc" style="stroke: #A80036; stroke-width: 1.0;"/><polygon fill="#A80036" points="716,472.86,720,463.86,716,467.86,712,463.86,716,472.86" style="stroke: #A80036; stroke-width: 1.0;"/><text fill="#000000" font-family="sans-serif" font-size="13" lengthAdjust="spacingAndGlyphs" textLength="21" x="717" y="339.0669">MQ</text><!--link Data Router to Command Service TS--><path d="M745.28,263.15 C764.46,274.39 786,287 786,287 C786,287 1016,382 1016,382 C1016,382 1081.64,438.26 1118.16,469.57 " fill="none" id="Data Router-Command Service TS" style="stroke: #A80036; stroke-width: 1.0;"/><polygon fill="#A80036" points="1122.03,472.89,1117.7999,463.9959,1118.2337,469.636,1112.5935,470.0699,1122.03,472.89" style="stroke: #A80036; stroke-width: 1.0;"/><text fill="#000000" font-family="sans-serif" font-size="13" lengthAdjust="spacingAndGlyphs" textLength="21" x="921" y="339.0669">MQ</text><!--link Data Router to ANY--><path d="M693.08,263.16 C629.63,310.65 453.1,442.77 403.26,480.08 " fill="none" id="Data Router-ANY" style="stroke: #A80036; stroke-width: 1.0;"/><polygon fill="#A80036" points="399.1,483.19,408.7037,481.0064,403.1051,480.1968,403.9147,474.5982,399.1,483.19" style="stroke: #A80036; stroke-width: 1.0;"/><text fill="#000000" font-family="sans-serif" font-size="13" lengthAdjust="spacingAndGlyphs" textLength="21" x="610" y="339.0669">MQ</text><!--link Command Service Doc to Document Data--><path d="M716.11,509.21 C716.29,537.94 716.66,595.66 716.86,627.55 " fill="none" id="Command Service Doc-Document Data" style="stroke: #A80036; stroke-width: 1.0;"/><polygon fill="#A80036" points="716.89,632.81,720.8385,623.7873,716.8614,627.8101,712.8386,623.833,716.89,632.81" style="stroke: #A80036; stroke-width: 1.0;"/><text fill="#000000" font-family="sans-serif" font-size="13" lengthAdjust="spacingAndGlyphs" textLength="26" x="717" y="563.0669">SQL</text><!--link Command Service TS to Timeseries Data--><path d="M1142.44,509.21 C1143.16,537.94 1144.62,595.66 1145.43,627.55 " fill="none" id="Command Service TS-Timeseries Data" style="stroke: #A80036; stroke-width: 1.0;"/><polygon fill="#A80036" points="1145.56,632.81,1149.3273,623.7102,1145.4315,627.8117,1141.33,623.9158,1145.56,632.81" style="stroke: #A80036; stroke-width: 1.0;"/><text fill="#000000" font-family="sans-serif" font-size="13" lengthAdjust="spacingAndGlyphs" textLength="32" x="1144" y="563.0669">REST</text><!--link DB Shrinker Storage to Document Data--><path d="M897.89,509.21 C860.21,538.53 783.74,598.06 743.35,629.49 " fill="none" id="DB Shrinker Storage-Document Data" style="stroke: #A80036; stroke-width: 1.0;"/><polygon fill="#A80036" points="739.08,632.81,748.6381,630.4348,743.0245,629.7373,743.7219,624.1236,739.08,632.81" style="stroke: #A80036; stroke-width: 1.0;"/><text fill="#000000" font-family="sans-serif" font-size="13" lengthAdjust="spacingAndGlyphs" textLength="26" x="843" y="563.0669">SQL</text><!--link Document Data to Query Service Doc--><path d="M714.23,674.4 C711.56,695.93 707.58,728.03 705.15,747.68 " fill="none" id="Document Data-Query Service Doc" style="stroke: #A80036; stroke-width: 1.0;"/><polygon fill="#A80036" points="714.87,669.16,709.7965,677.6015,714.2568,674.1223,717.7361,678.5826,714.87,669.16" style="stroke: #A80036; stroke-width: 1.0;"/><text fill="#000000" font-family="sans-serif" font-size="13" lengthAdjust="spacingAndGlyphs" textLength="26" x="711" y="714.0669">SQL</text><!--link Timeseries Data to Query Service TS--><path d="M1141.89,674.12 C1137.89,695.66 1131.89,727.94 1128.22,747.68 " fill="none" id="Timeseries Data-Query Service TS" style="stroke: #A80036; stroke-width: 1.0;"/><polygon fill="#A80036" points="1142.81,669.16,1137.2313,677.2765,1141.8955,674.0757,1145.0963,678.7398,1142.81,669.16" style="stroke: #A80036; stroke-width: 1.0;"/><text fill="#000000" font-family="sans-serif" font-size="13" lengthAdjust="spacingAndGlyphs" textLength="32" x="1137" y="714.0669">REST</text><!--link Query Service Doc to Query Router--><path d="M701.29,789.5 C697.2,843.18 686.96,977.83 683.31,1025.74 " fill="none" id="Query Service Doc-Query Router" style="stroke: #A80036; stroke-width: 1.0;"/><polygon fill="#A80036" points="701.69,784.27,697.0324,792.948,701.3185,789.2562,705.0103,793.5423,701.69,784.27" style="stroke: #A80036; stroke-width: 1.0;"/><text fill="#000000" font-family="sans-serif" font-size="13" lengthAdjust="spacingAndGlyphs" textLength="33" x="696" y="930.5669">gRPC</text><!--link Query Service TS to Query Router--><path d="M1091.72,786.84 C1059.67,805.96 1016,832 1016,832 C1016,832 756,983 756,983 C756,983 724.89,1008.23 703.01,1025.97 " fill="none" id="Query Service TS-Query Router" style="stroke: #A80036; stroke-width: 1.0;"/><polygon fill="#A80036" points="1096.36,784.08,1086.5817,785.2565,1092.0662,786.6419,1090.6808,792.1265,1096.36,784.08" style="stroke: #A80036; stroke-width: 1.0;"/><text fill="#000000" font-family="sans-serif" font-size="13" lengthAdjust="spacingAndGlyphs" textLength="33" x="957" y="930.5669">gRPC</text><!--link ANY to Query Router--><path d="M402.58,503.76 C441.75,540.38 559,650 559,650 C559,650 559,650 559,927 C559,927 629.64,993.62 663.85,1025.88 " fill="none" id="ANY-Query Router" style="stroke: #A80036; stroke-width: 1.0;"/><polygon fill="#A80036" points="398.61,500.05,402.459,509.1156,402.2648,503.4621,407.9183,503.2679,398.61,500.05" style="stroke: #A80036; stroke-width: 1.0;"/><text fill="#000000" font-family="sans-serif" font-size="13" lengthAdjust="spacingAndGlyphs" textLength="33" x="560" y="770.5669">gRPC</text><!--link Query Service Doc to Object Builder--><path d="M678.93,787.32 C656.34,806.39 626,832 626,832 C626,832 553,840 553,840 C553,840 499.42,882.96 468.45,907.8 " fill="none" id="Query Service Doc-Object Builder" style="stroke: #A80036; stroke-width: 1.0;"/><polygon fill="#A80036" points="682.77,784.08,673.3162,786.8415,678.9536,787.3104,678.4848,792.9477,682.77,784.08" style="stroke: #A80036; stroke-width: 1.0;"/><text fill="#000000" font-family="sans-serif" font-size="13" lengthAdjust="spacingAndGlyphs" textLength="33" x="554" y="853.0669">gRPC</text><!--link Query Service TS to Object Builder--><path d="M1091.72,786.84 C1059.67,805.96 1016,832 1016,832 C1016,832 902,840 902,840 C902,840 653,865 653,865 C653,865 566.38,890.23 505.48,907.97 " fill="none" id="Query Service TS-Object Builder" style="stroke: #A80036; stroke-width: 1.0;"/><polygon fill="#A80036" points="1096.36,784.08,1086.5817,785.2565,1092.0662,786.6419,1090.6808,792.1265,1096.36,784.08" style="stroke: #A80036; stroke-width: 1.0;"/><text fill="#000000" font-family="sans-serif" font-size="13" lengthAdjust="spacingAndGlyphs" textLength="33" x="903" y="853.0669">gRPC</text><!--link Query Service Blob to Object Builder--><path d="M109.11,787.08 C135.84,806.17 172,832 172,832 C172,832 317.17,881.09 396.56,907.94 " fill="none" id="Query Service Blob-Object Builder" style="stroke: #A80036; stroke-width: 1.0;"/><polygon fill="#A80036" points="104.91,784.08,109.9002,792.571,108.9758,786.9902,114.5566,786.0658,104.91,784.08" style="stroke: #A80036; stroke-width: 1.0;"/><text fill="#000000" font-family="sans-serif" font-size="13" lengthAdjust="spacingAndGlyphs" textLength="33" x="247" y="853.0669">gRPC</text><!--link ANY to Object Builder--><path d="M391.77,505.42 C400.09,568.66 435.4,836.87 444.73,907.76 " fill="none" id="ANY-Object Builder" style="stroke: #A80036; stroke-width: 1.0;"/><polygon fill="#A80036" points="391.09,500.26,388.3074,509.7076,391.7471,505.2166,396.238,508.6563,391.09,500.26" style="stroke: #A80036; stroke-width: 1.0;"/><text fill="#000000" font-family="sans-serif" font-size="13" lengthAdjust="spacingAndGlyphs" textLength="33" x="420" y="714.0669">gRPC</text><!--link Query Router to User--><path d="M674.95,1067.19 C668.5,1087.49 658.8,1118.03 650.95,1142.73 " fill="none" id="Query Router-User" style="stroke: #A80036; stroke-width: 1.0;"/><polygon fill="#A80036" points="676.52,1062.26,669.9849,1069.6284,675.0075,1067.0258,677.6101,1072.0483,676.52,1062.26" style="stroke: #A80036; stroke-width: 1.0;"/><text fill="#000000" font-family="sans-serif" font-size="13" lengthAdjust="spacingAndGlyphs" textLength="32" x="666" y="1107.0669">REST</text><!--link Object Builder to User--><path d="M462.94,948.4 C498.82,996.6 585.66,1113.21 621.8,1161.74 " fill="none" id="Object Builder-User" style="stroke: #A80036; stroke-width: 1.0;"/><polygon fill="#A80036" points="459.83,944.23,461.9916,953.8387,462.814,948.242,468.4107,949.0643,459.83,944.23" style="stroke: #A80036; stroke-width: 1.0;"/><text fill="#000000" font-family="sans-serif" font-size="13" lengthAdjust="spacingAndGlyphs" textLength="33" x="566" y="1048.5669">gRPC</text></g></svg>