<?xml version="1.0" encoding="UTF-8" standalone="no"?><svg xmlns="http://www.w3.org/2000/svg" xmlns:xlink="http://www.w3.org/1999/xlink" contentScriptType="application/ecmascript" contentStyleType="text/css" height="1565px" preserveAspectRatio="none" style="width:2247px;height:1565px;background:#FEFEFE;" version="1.1" viewBox="0 0 2247 1565" width="2247px" zoomAndPan="magnify"><defs><filter height="300%" id="f9at0ldhnnijl" width="300%" x="-1" y="-1"><feGaussianBlur result="blurOut" stdDeviation="2.0"/><feColorMatrix in="blurOut" result="blurOut2" type="matrix" values="0 0 0 0 0 0 0 0 0 0 0 0 0 0 0 0 0 0 .4 0"/><feOffset dx="4.0" dy="4.0" in="blurOut2" result="blurOut3"/><feBlend in="SourceGraphic" in2="blurOut3" mode="normal"/></filter></defs><g><path d="M1536,31 C1536,28 1538,26 1541,26 C1544,26 1546,28 1546,31 C1546,28 1548,26 1551,26 C1554,26 1556,28 1556,31 C1556,28 1558,26 1561,26 C1564,26 1566,28 1566,31 C1566,28 1568,26 1571,26 C1574,26 1576,28 1576,31 C1576,28 1578,26 1581,26 C1584,26 1586,28 1586,31 C1586,28 1588,26 1591,26 C1594,26 1596,28 1596,31 C1596,28 1598,26 1601,26 C1604,26 1606,28 1606,31 C1606,28 1608,26 1611,26 C1614,26 1616,28 1616,31 C1616,28 1618,26 1621,26 C1624,26 1626,28 1626,31 C1626,28 1628,26 1631,26 C1634,26 1636,28 1636,31 C1636,28 1638,26 1641,26 C1644,26 1646,28 1646,31 C1646,28 1648,26 1651,26 C1654,26 1656,28 1656,31 C1656,28 1658,26 1661,26 C1664,26 1666,28 1666,31 C1666,28 1668,26 1671,26 C1674,26 1676,28 1676,31 C1676,28 1678,26 1681,26 C1684,26 1686,28 1686,31 C1686,28 1688,26 1691,26 C1694,26 1696,28 1696,31 C1699,31 1701,33 1701,36 C1701,39 1699,41 1696,41 C1699,41 1701,43 1701,46 C1701,49 1699,51 1696,51 C1699,51 1701,53 1701,56 C1701,59 1699,61 1696,61 C1699,61 1701,63 1701,66 C1701,69 1699,71 1696,71 C1699,71 1701,73 1701,76 C1701,79 1699,81 1696,81 C1696,84 1693,86 1691,86 C1688,86 1686,84 1686,81 C1686,84 1683,86 1681,86 C1678,86 1676,84 1676,81 C1676,84 1673,86 1671,86 C1668,86 1666,84 1666,81 C1666,84 1663,86 1661,86 C1658,86 1656,84 1656,81 C1656,84 1653,86 1651,86 C1648,86 1646,84 1646,81 C1646,84 1643,86 1641,86 C1638,86 1636,84 1636,81 C1636,84 1633,86 1631,86 C1628,86 1626,84 1626,81 C1626,84 1623,86 1621,86 C1618,86 1616,84 1616,81 C1616,84 1613,86 1611,86 C1608,86 1606,84 1606,81 C1606,84 1603,86 1601,86 C1598,86 1596,84 1596,81 C1596,84 1593,86 1591,86 C1588,86 1586,84 1586,81 C1586,84 1583,86 1581,86 C1578,86 1576,84 1576,81 C1576,84 1573,86 1571,86 C1568,86 1566,84 1566,81 C1566,84 1563,86 1561,86 C1558,86 1556,84 1556,81 C1556,84 1553,86 1551,86 C1548,86 1546,84 1546,81 C1546,84 1543,86 1541,86 C1538,86 1536,84 1536,81 C1533,81 1531,79 1531,76 C1531,73 1533,71 1536,71 C1533,71 1531,69 1531,66 C1531,63 1533,61 1536,61 C1533,61 1531,59 1531,56 C1531,53 1533,51 1536,51 C1533,51 1531,49 1531,46 C1531,43 1533,41 1536,41 C1533,41 1531,39 1531,36 C1531,33 1533,31 1536,31 " fill="#FEFEFE" filter="url(#f9at0ldhnnijl)" style="stroke: #000000; stroke-width: 1.5;"/><!--cluster Management Layer--><rect fill="#FEFEFE" filter="url(#f9at0ldhnnijl)" height="87" style="stroke: #000000; stroke-width: 1.5;" width="247" x="316" y="1305"/><path d="M476,1306 L476,1314.2969 L466,1324.2969 L316,1324.2969 " fill="none" style="stroke: #000000; stroke-width: 1.5;"/><text fill="#000000" font-family="sans-serif" font-size="14" font-weight="bold" lengthAdjust="spacingAndGlyphs" textLength="150" x="319" y="1318.9951">Management Layer</text><!--cluster Ingestion Layer--><rect fill="#FEFEFE" filter="url(#f9at0ldhnnijl)" height="87" style="stroke: #000000; stroke-width: 1.5;" width="138" x="1544" y="157"/><path d="M1676,158 L1676,166.2969 L1666,176.2969 L1544,176.2969 " fill="none" style="stroke: #000000; stroke-width: 1.5;"/><text fill="#000000" font-family="sans-serif" font-size="14" font-weight="bold" lengthAdjust="spacingAndGlyphs" textLength="122" x="1547" y="170.9951">Ingestion Layer</text><!--cluster Configuration Layer--><rect fill="#FEFEFE" filter="url(#f9at0ldhnnijl)" height="103" style="stroke: #000000; stroke-width: 1.5;" width="509" x="1714" y="149"/><path d="M1880,150 L1880,158.2969 L1870,168.2969 L1714,168.2969 " fill="none" style="stroke: #000000; stroke-width: 1.5;"/><text fill="#000000" font-family="sans-serif" font-size="14" font-weight="bold" lengthAdjust="spacingAndGlyphs" textLength="156" x="1717" y="162.9951">Configuration Layer</text><!--cluster Storage Layer--><rect fill="#FEFEFE" filter="url(#f9at0ldhnnijl)" height="503" style="stroke: #000000; stroke-width: 1.5;" width="1104" x="1070" y="371"/><path d="M1191,372 L1191,380.2969 L1181,390.2969 L1070,390.2969 " fill="none" style="stroke: #000000; stroke-width: 1.5;"/><text fill="#000000" font-family="sans-serif" font-size="14" font-weight="bold" lengthAdjust="spacingAndGlyphs" textLength="111" x="1073" y="384.9951">Storage Layer</text><!--cluster Repository Doc--><polygon fill="#FEFEFE" filter="url(#f9at0ldhnnijl)" points="1510,424,1520,414,1914,414,1914,840,1904,850,1510,850,1510,424" style="stroke: #000000; stroke-width: 1.5;"/><line style="stroke: #000000; stroke-width: 1.5;" x1="1904" x2="1913" y1="424" y2="415"/><line style="stroke: #000000; stroke-width: 1.5;" x1="1510" x2="1904" y1="424" y2="424"/><line style="stroke: #000000; stroke-width: 1.5;" x1="1904" x2="1904" y1="424" y2="850"/><text fill="#000000" font-family="sans-serif" font-size="14" font-weight="bold" lengthAdjust="spacingAndGlyphs" textLength="120" x="1648" y="439.9951">Repository Doc</text><!--cluster Postgres--><path d="M1534,574 C1534,564 1615,564 1615,564 C1615,564 1696,564 1696,574 L1696,656 C1696,666 1615,666 1615,666 C1615,666 1534,666 1534,656 L1534,574 " fill="#FEFEFE" filter="url(#f9at0ldhnnijl)" style="stroke: #000000; stroke-width: 1.5;"/><path d="M1534,574 C1534,584 1615,584 1615,584 C1615,584 1696,584 1696,574 " fill="none" style="stroke: #000000; stroke-width: 1.5;"/><text fill="#000000" font-family="sans-serif" font-size="14" font-weight="bold" lengthAdjust="spacingAndGlyphs" textLength="71" x="1579.5" y="598.9951">Postgres</text><!--cluster Repository TS--><polygon fill="#FEFEFE" filter="url(#f9at0ldhnnijl)" points="1938,424,1948,414,2150,414,2150,840,2140,850,1938,850,1938,424" style="stroke: #000000; stroke-width: 1.5;"/><line style="stroke: #000000; stroke-width: 1.5;" x1="2140" x2="2149" y1="424" y2="415"/><line style="stroke: #000000; stroke-width: 1.5;" x1="1938" x2="2140" y1="424" y2="424"/><line style="stroke: #000000; stroke-width: 1.5;" x1="2140" x2="2140" y1="424" y2="850"/><text fill="#000000" font-family="sans-serif" font-size="14" font-weight="bold" lengthAdjust="spacingAndGlyphs" textLength="110" x="1985" y="439.9951">Repository TS</text><!--cluster Victoria Metrics--><path d="M1962,574 C1962,564 2044,564 2044,564 C2044,564 2126,564 2126,574 L2126,656 C2126,666 2044,666 2044,666 C2044,666 1962,666 1962,656 L1962,574 " fill="#FEFEFE" filter="url(#f9at0ldhnnijl)" style="stroke: #000000; stroke-width: 1.5;"/><path d="M1962,574 C1962,584 2044,584 2044,584 C2044,584 2126,584 2126,574 " fill="none" style="stroke: #000000; stroke-width: 1.5;"/><text fill="#000000" font-family="sans-serif" font-size="14" font-weight="bold" lengthAdjust="spacingAndGlyphs" textLength="123" x="1982.5" y="598.9951">Victoria Metrics</text><!--cluster Materialization Layer--><rect fill="#FEFEFE" filter="url(#f9at0ldhnnijl)" height="677" style="stroke: #000000; stroke-width: 1.5;" width="459" x="587" y="715"/><path d="M760,716 L760,724.2969 L750,734.2969 L587,734.2969 " fill="none" style="stroke: #000000; stroke-width: 1.5;"/><text fill="#000000" font-family="sans-serif" font-size="14" font-weight="bold" lengthAdjust="spacingAndGlyphs" textLength="163" x="590" y="728.9951">Materialization Layer</text><!--cluster Postgres Repository--><polygon fill="#FEFEFE" filter="url(#f9at0ldhnnijl)" points="611,768,621,758,848,758,848,1039,838,1049,611,1049,611,768" style="stroke: #000000; stroke-width: 1.5;"/><line style="stroke: #000000; stroke-width: 1.5;" x1="838" x2="847" y1="768" y2="759"/><line style="stroke: #000000; stroke-width: 1.5;" x1="611" x2="838" y1="768" y2="768"/><line style="stroke: #000000; stroke-width: 1.5;" x1="838" x2="838" y1="768" y2="1049"/><text fill="#000000" font-family="sans-serif" font-size="14" font-weight="bold" lengthAdjust="spacingAndGlyphs" textLength="161" x="645" y="783.9951">Postgres Repository</text><!--cluster Postgres2--><path d="M646,933 C646,923 735,923 735,923 C735,923 824,923 824,933 L824,1015 C824,1025 735,1025 735,1025 C735,1025 646,1025 646,1015 L646,933 " fill="#FEFEFE" filter="url(#f9at0ldhnnijl)" style="stroke: #000000; stroke-width: 1.5;"/><path d="M646,933 C646,943 735,943 735,943 C735,943 824,943 824,933 " fill="none" style="stroke: #000000; stroke-width: 1.5;"/><text fill="#000000" font-family="sans-serif" font-size="14" font-weight="bold" lengthAdjust="spacingAndGlyphs" textLength="71" x="699.5" y="957.9951">Postgres</text><!--cluster Retrieval Layer--><rect fill="#FEFEFE" filter="url(#f9at0ldhnnijl)" height="87" style="stroke: #000000; stroke-width: 1.5;" width="144" x="1535" y="1082"/><path d="M1663,1083 L1663,1091.2969 L1653,1101.2969 L1535,1101.2969 " fill="none" style="stroke: #000000; stroke-width: 1.5;"/><text fill="#000000" font-family="sans-serif" font-size="14" font-weight="bold" lengthAdjust="spacingAndGlyphs" textLength="118" x="1538" y="1095.9951">Retrieval Layer</text><path d="M777,1448 C777,1445 779,1443 782,1443 C785,1443 787,1445 787,1448 C787,1445 789,1443 792,1443 C795,1443 797,1445 797,1448 C797,1445 799,1443 802,1443 C805,1443 807,1445 807,1448 C807,1445 809,1443 812,1443 C815,1443 817,1445 817,1448 C817,1445 819,1443 822,1443 C825,1443 827,1445 827,1448 C827,1445 829,1443 832,1443 C835,1443 837,1445 837,1448 C840,1448 842,1450 842,1453 C842,1456 840,1458 837,1458 C840,1458 842,1460 842,1463 C842,1466 840,1468 837,1468 C840,1468 842,1470 842,1473 C842,1476 840,1478 837,1478 C840,1478 842,1480 842,1483 C842,1486 840,1488 837,1488 C840,1488 842,1490 842,1493 C842,1496 840,1498 837,1498 C840,1498 842,1500 842,1503 C842,1506 840,1508 837,1508 C840,1508 842,1510 842,1513 C842,1516 840,1518 837,1518 C840,1518 842,1520 842,1523 C842,1526 840,1528 837,1528 C840,1528 842,1530 842,1533 C842,1536 840,1538 837,1538 C840,1538 842,1540 842,1543 C842,1546 840,1548 837,1548 C837,1551 834,1553 832,1553 C829,1553 827,1551 827,1548 C827,1551 824,1553 822,1553 C819,1553 817,1551 817,1548 C817,1551 814,1553 812,1553 C809,1553 807,1551 807,1548 C807,1551 804,1553 802,1553 C799,1553 797,1551 797,1548 C797,1551 794,1553 792,1553 C789,1553 787,1551 787,1548 C787,1551 784,1553 782,1553 C779,1553 777,1551 777,1548 C774,1548 772,1546 772,1543 C772,1540 774,1538 777,1538 C774,1538 772,1536 772,1533 C772,1530 774,1528 777,1528 C774,1528 772,1526 772,1523 C772,1520 774,1518 777,1518 C774,1518 772,1516 772,1513 C772,1510 774,1508 777,1508 C774,1508 772,1506 772,1503 C772,1500 774,1498 777,1498 C774,1498 772,1496 772,1493 C772,1490 774,1488 777,1488 C774,1488 772,1486 772,1483 C772,1480 774,1478 777,1478 C774,1478 772,1476 772,1473 C772,1470 774,1468 777,1468 C774,1468 772,1466 772,1463 C772,1460 774,1458 777,1458 C774,1458 772,1456 772,1453 C772,1450 774,1448 777,1448 " fill="#FEFEFE" filter="url(#f9at0ldhnnijl)" style="stroke: #000000; stroke-width: 1.5;"/><!--entity External System--><rect fill="#FEFECE" filter="url(#f9at0ldhnnijl)" height="36.2969" style="stroke: #A80036; stroke-width: 1.5;" width="130" x="1549" y="40"/><rect fill="#FEFECE" height="5" style="stroke: #A80036; stroke-width: 1.5;" width="10" x="1544" y="45"/><rect fill="#FEFECE" height="5" style="stroke: #A80036; stroke-width: 1.5;" width="10" x="1544" y="66.2969"/><text fill="#000000" font-family="sans-serif" font-size="14" lengthAdjust="spacingAndGlyphs" textLength="110" x="1559" y="62.9951">External System</text><!--entity CLI--><rect fill="#FEFECE" filter="url(#f9at0ldhnnijl)" height="36.2969" style="stroke: #A80036; stroke-width: 1.5;" width="40" x="332" y="1340"/><rect fill="#FEFECE" height="5" style="stroke: #A80036; stroke-width: 1.5;" width="10" x="327" y="1345"/><rect fill="#FEFECE" height="5" style="stroke: #A80036; stroke-width: 1.5;" width="10" x="327" y="1366.2969"/><text fill="#000000" font-family="sans-serif" font-size="14" lengthAdjust="spacingAndGlyphs" textLength="20" x="342" y="1362.9951">CLI</text><!--entity Admin Web Panel--><rect fill="#FEFECE" filter="url(#f9at0ldhnnijl)" height="36.2969" style="stroke: #A80036; stroke-width: 1.5;" width="140" x="407" y="1340"/><rect fill="#FEFECE" height="5" style="stroke: #A80036; stroke-width: 1.5;" width="10" x="402" y="1345"/><rect fill="#FEFECE" height="5" style="stroke: #A80036; stroke-width: 1.5;" width="10" x="402" y="1366.2969"/><text fill="#000000" font-family="sans-serif" font-size="14" lengthAdjust="spacingAndGlyphs" textLength="120" x="417" y="1362.9951">Admin Web Panel</text><!--entity Data Router--><rect fill="#FEFECE" filter="url(#f9at0ldhnnijl)" height="36.2969" style="stroke: #A80036; stroke-width: 1.5;" width="103" x="1562.5" y="192"/><rect fill="#FEFECE" height="5" style="stroke: #A80036; stroke-width: 1.5;" width="10" x="1557.5" y="197"/><rect fill="#FEFECE" height="5" style="stroke: #A80036; stroke-width: 1.5;" width="10" x="1557.5" y="218.2969"/><text fill="#000000" font-family="sans-serif" font-size="14" lengthAdjust="spacingAndGlyphs" textLength="83" x="1572.5" y="214.9951">Data Router</text><!--entity Schema Registry--><rect fill="#FEFECE" filter="url(#f9at0ldhnnijl)" height="36.2969" style="stroke: #A80036; stroke-width: 1.5;" width="136" x="1908" y="192"/><rect fill="#FEFECE" height="5" style="stroke: #A80036; stroke-width: 1.5;" width="10" x="1903" y="197"/><rect fill="#FEFECE" height="5" style="stroke: #A80036; stroke-width: 1.5;" width="10" x="1903" y="218.2969"/><text fill="#000000" font-family="sans-serif" font-size="14" lengthAdjust="spacingAndGlyphs" textLength="116" x="1918" y="214.9951">Schema Registry</text><!--entity Leader Elector--><rect fill="#FEFECE" filter="url(#f9at0ldhnnijl)" height="36.2969" style="stroke: #A80036; stroke-width: 1.5;" width="119" x="2079.5" y="192"/><rect fill="#FEFECE" height="5" style="stroke: #A80036; stroke-width: 1.5;" width="10" x="2074.5" y="197"/><rect fill="#FEFECE" height="5" style="stroke: #A80036; stroke-width: 1.5;" width="10" x="2074.5" y="218.2969"/><text fill="#000000" font-family="sans-serif" font-size="14" lengthAdjust="spacingAndGlyphs" textLength="99" x="2089.5" y="214.9951">Leader Elector</text><!--entity Edge Registry--><rect fill="#FEFECE" filter="url(#f9at0ldhnnijl)" height="36.2969" style="stroke: #A80036; stroke-width: 1.5;" width="116" x="1757" y="192"/><rect fill="#FEFECE" height="5" style="stroke: #A80036; stroke-width: 1.5;" width="10" x="1752" y="197"/><rect fill="#FEFECE" height="5" style="stroke: #A80036; stroke-width: 1.5;" width="10" x="1752" y="218.2969"/><text fill="#000000" font-family="sans-serif" font-size="14" lengthAdjust="spacingAndGlyphs" textLength="96" x="1767" y="214.9951">Edge Registry</text><!--entity ANY--><ellipse cx="1288" cy="472" fill="#FEFECE" filter="url(#f9at0ldhnnijl)" rx="8" ry="8" style="stroke: #A80036; stroke-width: 2.0;"/><text fill="#000000" font-family="sans-serif" font-size="14" lengthAdjust="spacingAndGlyphs" textLength="389" x="1093.5" y="501.9951">any number of repositories (Document/Timeseries/Blob)</text><!--entity Command Service Doc--><rect fill="#FEFECE" filter="url(#f9at0ldhnnijl)" height="36.2969" style="stroke: #A80036; stroke-width: 1.5;" width="177" x="1525.5" y="454"/><rect fill="#FEFECE" height="5" style="stroke: #A80036; stroke-width: 1.5;" width="10" x="1520.5" y="459"/><rect fill="#FEFECE" height="5" style="stroke: #A80036; stroke-width: 1.5;" width="10" x="1520.5" y="480.2969"/><text fill="#000000" font-family="sans-serif" font-size="14" lengthAdjust="spacingAndGlyphs" textLength="157" x="1535.5" y="476.9951">Command Service Doc</text><!--entity DB Shrinker Storage--><rect fill="#FEFECE" filter="url(#f9at0ldhnnijl)" height="36.2969" style="stroke: #A80036; stroke-width: 1.5;" width="160" x="1738" y="454"/><rect fill="#FEFECE" height="5" style="stroke: #A80036; stroke-width: 1.5;" width="10" x="1733" y="459"/><rect fill="#FEFECE" height="5" style="stroke: #A80036; stroke-width: 1.5;" width="10" x="1733" y="480.2969"/><text fill="#000000" font-family="sans-serif" font-size="14" lengthAdjust="spacingAndGlyphs" textLength="140" x="1748" y="476.9951">DB Shrinker Storage</text><!--entity Query Service Doc--><rect fill="#FEFECE" filter="url(#f9at0ldhnnijl)" height="36.2969" style="stroke: #A80036; stroke-width: 1.5;" width="147" x="1533.5" y="798"/><rect fill="#FEFECE" height="5" style="stroke: #A80036; stroke-width: 1.5;" width="10" x="1528.5" y="803"/><rect fill="#FEFECE" height="5" style="stroke: #A80036; stroke-width: 1.5;" width="10" x="1528.5" y="824.2969"/><text fill="#000000" font-family="sans-serif" font-size="14" lengthAdjust="spacingAndGlyphs" textLength="127" x="1543.5" y="820.9951">Query Service Doc</text><!--entity Document Data--><rect fill="#FEFECE" filter="url(#f9at0ldhnnijl)" height="36.2969" style="stroke: #A80036; stroke-width: 1.5;" width="129" x="1550.5" y="614"/><rect fill="#FEFECE" height="5" style="stroke: #A80036; stroke-width: 1.5;" width="10" x="1545.5" y="619"/><rect fill="#FEFECE" height="5" style="stroke: #A80036; stroke-width: 1.5;" width="10" x="1545.5" y="640.2969"/><text fill="#000000" font-family="sans-serif" font-size="14" lengthAdjust="spacingAndGlyphs" textLength="109" x="1560.5" y="636.9951">Document Data</text><!--entity Command Service TS--><rect fill="#FEFECE" filter="url(#f9at0ldhnnijl)" height="36.2969" style="stroke: #A80036; stroke-width: 1.5;" width="167" x="1953.5" y="454"/><rect fill="#FEFECE" height="5" style="stroke: #A80036; stroke-width: 1.5;" width="10" x="1948.5" y="459"/><rect fill="#FEFECE" height="5" style="stroke: #A80036; stroke-width: 1.5;" width="10" x="1948.5" y="480.2969"/><text fill="#000000" font-family="sans-serif" font-size="14" lengthAdjust="spacingAndGlyphs" textLength="147" x="1963.5" y="476.9951">Command Service TS</text><!--entity Query Service TS--><rect fill="#FEFECE" filter="url(#f9at0ldhnnijl)" height="36.2969" style="stroke: #A80036; stroke-width: 1.5;" width="137" x="1954.5" y="798"/><rect fill="#FEFECE" height="5" style="stroke: #A80036; stroke-width: 1.5;" width="10" x="1949.5" y="803"/><rect fill="#FEFECE" height="5" style="stroke: #A80036; stroke-width: 1.5;" width="10" x="1949.5" y="824.2969"/><text fill="#000000" font-family="sans-serif" font-size="14" lengthAdjust="spacingAndGlyphs" textLength="117" x="1964.5" y="820.9951">Query Service TS</text><!--entity Timeseries Data--><rect fill="#FEFECE" filter="url(#f9at0ldhnnijl)" height="36.2969" style="stroke: #A80036; stroke-width: 1.5;" width="132" x="1978" y="614"/><rect fill="#FEFECE" height="5" style="stroke: #A80036; stroke-width: 1.5;" width="10" x="1973" y="619"/><rect fill="#FEFECE" height="5" style="stroke: #A80036; stroke-width: 1.5;" width="10" x="1973" y="640.2969"/><text fill="#000000" font-family="sans-serif" font-size="14" lengthAdjust="spacingAndGlyphs" textLength="112" x="1988" y="636.9951">Timeseries Data</text><!--entity Partial Update Engine--><rect fill="#FEFECE" filter="url(#f9at0ldhnnijl)" height="36.2969" style="stroke: #A80036; stroke-width: 1.5;" width="167" x="863.5" y="798"/><rect fill="#FEFECE" height="5" style="stroke: #A80036; stroke-width: 1.5;" width="10" x="858.5" y="803"/><rect fill="#FEFECE" height="5" style="stroke: #A80036; stroke-width: 1.5;" width="10" x="858.5" y="824.2969"/><text fill="#000000" font-family="sans-serif" font-size="14" lengthAdjust="spacingAndGlyphs" textLength="147" x="873.5" y="820.9951">Partial Update Engine</text><!--entity Object Builder--><rect fill="#FEFECE" filter="url(#f9at0ldhnnijl)" height="36.2969" style="stroke: #A80036; stroke-width: 1.5;" width="117" x="912.5" y="973"/><rect fill="#FEFECE" height="5" style="stroke: #A80036; stroke-width: 1.5;" width="10" x="907.5" y="978"/><rect fill="#FEFECE" height="5" style="stroke: #A80036; stroke-width: 1.5;" width="10" x="907.5" y="999.2969"/><text fill="#000000" font-family="sans-serif" font-size="14" lengthAdjust="spacingAndGlyphs" textLength="97" x="922.5" y="995.9951">Object Builder</text><!--entity On Demand Materializer--><rect fill="#FEFECE" filter="url(#f9at0ldhnnijl)" height="36.2969" style="stroke: #A80036; stroke-width: 1.5;" width="185" x="828.5" y="1340"/><rect fill="#FEFECE" height="5" style="stroke: #A80036; stroke-width: 1.5;" width="10" x="823.5" y="1345"/><rect fill="#FEFECE" height="5" style="stroke: #A80036; stroke-width: 1.5;" width="10" x="823.5" y="1366.2969"/><text fill="#000000" font-family="sans-serif" font-size="14" lengthAdjust="spacingAndGlyphs" textLength="165" x="838.5" y="1362.9951">On Demand Materializer</text><!--entity Materializer Postgres--><rect fill="#FEFECE" filter="url(#f9at0ldhnnijl)" height="36.2969" style="stroke: #A80036; stroke-width: 1.5;" width="164" x="661" y="798"/><rect fill="#FEFECE" height="5" style="stroke: #A80036; stroke-width: 1.5;" width="10" x="656" y="803"/><rect fill="#FEFECE" height="5" style="stroke: #A80036; stroke-width: 1.5;" width="10" x="656" y="824.2969"/><text fill="#000000" font-family="sans-serif" font-size="14" lengthAdjust="spacingAndGlyphs" textLength="144" x="671" y="820.9951">Materializer Postgres</text><!--entity Materialized Views--><rect fill="#FEFECE" filter="url(#f9at0ldhnnijl)" height="36.2969" style="stroke: #A80036; stroke-width: 1.5;" width="146" x="662" y="973"/><rect fill="#FEFECE" height="5" style="stroke: #A80036; stroke-width: 1.5;" width="10" x="657" y="978"/><rect fill="#FEFECE" height="5" style="stroke: #A80036; stroke-width: 1.5;" width="10" x="657" y="999.2969"/><text fill="#000000" font-family="sans-serif" font-size="14" lengthAdjust="spacingAndGlyphs" textLength="126" x="672" y="995.9951">Materialized Views</text><!--entity Query Router--><rect fill="#FEFECE" filter="url(#f9at0ldhnnijl)" height="36.2969" style="stroke: #A80036; stroke-width: 1.5;" width="112" x="1551" y="1117"/><rect fill="#FEFECE" height="5" style="stroke: #A80036; stroke-width: 1.5;" width="10" x="1546" y="1122"/><rect fill="#FEFECE" height="5" style="stroke: #A80036; stroke-width: 1.5;" width="10" x="1546" y="1143.2969"/><text fill="#000000" font-family="sans-serif" font-size="14" lengthAdjust="spacingAndGlyphs" textLength="92" x="1561" y="1139.9951">Query Router</text><!--entity User--><ellipse cx="806" cy="1467" fill="#FEFECE" filter="url(#f9at0ldhnnijl)" rx="8" ry="8" style="stroke: #A80036; stroke-width: 2.0;"/><path d="M806,1475 L806,1502 M793,1483 L819,1483 M806,1502 L793,1517 M806,1502 L819,1517 " fill="none" filter="url(#f9at0ldhnnijl)" style="stroke: #A80036; stroke-width: 2.0;"/><text fill="#000000" font-family="sans-serif" font-size="14" lengthAdjust="spacingAndGlyphs" textLength="32" x="790" y="1536.9951">User</text><!--entity ConfOut--><ellipse cx="1132" cy="1358" fill="#FEFECE" filter="url(#f9at0ldhnnijl)" rx="8" ry="8" style="stroke: #A80036; stroke-width: 2.0;"/><text fill="#000000" font-family="sans-serif" font-size="14" lengthAdjust="spacingAndGlyphs" textLength="132" x="1066" y="1387.9951">Configuration Layer</text><!--entity ConfAPI--><ellipse cx="179" cy="991" fill="#FEFECE" filter="url(#f9at0ldhnnijl)" rx="8" ry="8" style="stroke: #A80036; stroke-width: 2.0;"/><text fill="#000000" font-family="sans-serif" font-size="14" lengthAdjust="spacingAndGlyphs" textLength="132" x="113" y="1020.9951">Configuration Layer</text><!--entity DRAPI--><ellipse cx="66" cy="1135" fill="#FEFECE" filter="url(#f9at0ldhnnijl)" rx="8" ry="8" style="stroke: #A80036; stroke-width: 2.0;"/><text fill="#000000" font-family="sans-serif" font-size="14" lengthAdjust="spacingAndGlyphs" textLength="104" x="14" y="1164.9951">Ingestion Layer</text><!--entity MatAPI--><ellipse cx="309" cy="1135" fill="#FEFECE" filter="url(#f9at0ldhnnijl)" rx="8" ry="8" style="stroke: #A80036; stroke-width: 2.0;"/><text fill="#000000" font-family="sans-serif" font-size="14" lengthAdjust="spacingAndGlyphs" textLength="138" x="240" y="1164.9951">Materialization Layer</text><!--entity API--><rect fill="#FEFECE" filter="url(#f9at0ldhnnijl)" height="36.2969" style="stroke: #A80036; stroke-width: 1.5;" width="41" x="208.5" y="1480.5"/><rect fill="#FEFECE" height="5" style="stroke: #A80036; stroke-width: 1.5;" width="10" x="203.5" y="1485.5"/><rect fill="#FEFECE" height="5" style="stroke: #A80036; stroke-width: 1.5;" width="10" x="203.5" y="1506.7969"/><text fill="#000000" font-family="sans-serif" font-size="14" lengthAdjust="spacingAndGlyphs" textLength="21" x="218.5" y="1503.4951">API</text><!--link Configuration Layer to Data Router--><path d="M1713.8662,210 C1713.81,210 1713.7537,210 1713.6971,210 C1713.4709,210 1713.2417,210 1713.0099,210 C1712.5462,210 1712.0718,210 1711.5884,210 C1710.6217,210 1709.6193,210 1708.5957,210 C1706.5484,210 1704.4163,210 1702.315,210 C1693.91,210 1686,210 1686,210 C1686,210 1675.54,210 1665.89,210 " fill="none" id="Configuration Layer-Data Router" style="stroke: #A80036; stroke-width: 1.0; stroke-dasharray: 7.0,7.0;"/><!--link Schema Registry to Leader Elector--><path d="M2044.04,210 C2055.49,210 2071.19,210 2079.31,210 " fill="none" id="Schema Registry-Leader Elector" style="stroke: #A80036; stroke-width: 1.0; stroke-dasharray: 7.0,7.0;"/><!--link Partial Update Engine to Object Builder--><path d="M949.39,834.22 C953.76,865.7 963.02,932.5 967.88,967.51 " fill="none" id="Partial Update Engine-Object Builder" style="stroke: #A80036; stroke-width: 1.0;"/><polygon fill="#A80036" points="968.62,972.85,971.3491,963.3868,967.9349,967.8972,963.4245,964.483,968.62,972.85" style="stroke: #A80036; stroke-width: 1.0;"/><text fill="#000000" font-family="sans-serif" font-size="13" lengthAdjust="spacingAndGlyphs" textLength="21" x="960" y="903.0669">MQ</text><!--link Object Builder to ConfOut--><path d="M978.55,1009.12 C1007.15,1073.95 1108.22,1303.09 1128.46,1348.97 " fill="none" id="Object Builder-ConfOut" style="stroke: #A80036; stroke-width: 1.0; stroke-dasharray: 7.0,7.0;"/><!--link Object Builder to On Demand Materializer--><path d="M968.66,1009.12 C960.26,1070.42 931.73,1278.67 923.34,1339.92 " fill="none" id="Object Builder-On Demand Materializer" style="stroke: #A80036; stroke-width: 1.0; stroke-dasharray: 7.0,7.0;"/><!--link Query Router to ConfOut--><path d="M1563.98,1153.09 C1520.92,1170.2 1461,1194 1461,1194 C1461,1194 1194.28,1326.14 1141.14,1352.47 " fill="none" id="Query Router-ConfOut" style="stroke: #A80036; stroke-width: 1.0; stroke-dasharray: 7.0,7.0;"/><!--link Admin Web Panel to API--><path d="M446.34,1376.12 C396.73,1403.83 299.79,1457.97 254.04,1483.52 " fill="none" id="Admin Web Panel-API" style="stroke: #A80036; stroke-width: 1.0;"/><polygon fill="#A80036" points="249.51,1486.05,259.3178,1485.1514,253.8747,1483.6109,255.4152,1478.1678,249.51,1486.05" style="stroke: #A80036; stroke-width: 1.0;"/><text fill="#000000" font-family="sans-serif" font-size="13" lengthAdjust="spacingAndGlyphs" textLength="56" x="383" y="1421.0669">GraphQL</text><!--link External System to Data Router--><path d="M1614,76.21 C1614,103.45 1614,156.49 1614,186.64 " fill="none" id="External System-Data Router" style="stroke: #A80036; stroke-width: 1.0;"/><polygon fill="#A80036" points="1614,191.99,1618,182.99,1614,186.99,1610,182.99,1614,191.99" style="stroke: #A80036; stroke-width: 1.0;"/><text fill="#000000" font-family="sans-serif" font-size="13" lengthAdjust="spacingAndGlyphs" textLength="21" x="1615" y="121.0669">MQ</text><!--link Data Router to Command Service Doc--><path d="M1614,228.06 C1614,273.51 1614,397.55 1614,448.6 " fill="none" id="Data Router-Command Service Doc" style="stroke: #A80036; stroke-width: 1.0;"/><polygon fill="#A80036" points="1614,453.88,1618,444.88,1614,448.88,1610,444.88,1614,453.88" style="stroke: #A80036; stroke-width: 1.0;"/><text fill="#000000" font-family="sans-serif" font-size="13" lengthAdjust="spacingAndGlyphs" textLength="21" x="1615" y="320.0669">MQ</text><!--link Data Router to Command Service TS--><path d="M1641.6,228.1 C1668.7,244.89 1706,268 1706,268 C1706,268 1914,363 1914,363 C1914,363 1978.07,419.26 2013.73,450.57 " fill="none" id="Data Router-Command Service TS" style="stroke: #A80036; stroke-width: 1.0;"/><polygon fill="#A80036" points="2017.51,453.89,2013.3876,444.9454,2013.7533,450.5904,2008.1083,450.9561,2017.51,453.89" style="stroke: #A80036; stroke-width: 1.0;"/><text fill="#000000" font-family="sans-serif" font-size="13" lengthAdjust="spacingAndGlyphs" textLength="21" x="1828" y="320.0669">MQ</text><!--link Data Router to ANY--><path d="M1592.61,228.06 C1530.47,277.62 1351.21,420.59 1301.13,460.53 " fill="none" id="Data Router-ANY" style="stroke: #A80036; stroke-width: 1.0;"/><polygon fill="#A80036" points="1297.22,463.65,1306.7533,461.1767,1301.1327,460.537,1301.7724,454.9164,1297.22,463.65" style="stroke: #A80036; stroke-width: 1.0;"/><text fill="#000000" font-family="sans-serif" font-size="13" lengthAdjust="spacingAndGlyphs" textLength="21" x="1494" y="320.0669">MQ</text><!--link Command Service Doc to Document Data--><path d="M1614.11,490.21 C1614.29,518.94 1614.66,576.66 1614.86,608.55 " fill="none" id="Command Service Doc-Document Data" style="stroke: #A80036; stroke-width: 1.0;"/><polygon fill="#A80036" points="1614.89,613.81,1618.8385,604.7873,1614.8614,608.8101,1610.8386,604.833,1614.89,613.81" style="stroke: #A80036; stroke-width: 1.0;"/><text fill="#000000" font-family="sans-serif" font-size="13" lengthAdjust="spacingAndGlyphs" textLength="26" x="1615" y="544.0669">SQL</text><!--link Command Service TS to Timeseries Data--><path d="M2037.76,490.21 C2039.04,518.94 2041.59,576.66 2043.01,608.55 " fill="none" id="Command Service TS-Timeseries Data" style="stroke: #A80036; stroke-width: 1.0;"/><polygon fill="#A80036" points="2043.24,613.81,2046.851,604.647,2043.0259,608.8146,2038.8583,604.9895,2043.24,613.81" style="stroke: #A80036; stroke-width: 1.0;"/><text fill="#000000" font-family="sans-serif" font-size="13" lengthAdjust="spacingAndGlyphs" textLength="32" x="2041" y="544.0669">REST</text><!--link Command Service Doc to Partial Update Engine--><path d="M1558.1,490.01 C1538.83,495.88 1522,501 1522,501 C1522,501 1386,531 1386,531 C1386,531 1130,674 1130,674 C1130,674 1070,707 1070,707 C1070,707 1005.93,763.26 970.27,794.57 " fill="none" id="Command Service Doc-Partial Update Engine" style="stroke: #A80036; stroke-width: 1.0;"/><polygon fill="#A80036" points="966.49,797.89,975.8917,794.9561,970.2467,794.5904,970.6124,788.9454,966.49,797.89" style="stroke: #A80036; stroke-width: 1.0;"/><text fill="#000000" font-family="sans-serif" font-size="13" lengthAdjust="spacingAndGlyphs" textLength="21" x="1342" y="636.5669">MQ</text><!--link Command Service TS to Partial Update Engine--><path d="M1962.26,490.01 C1936.5,495.88 1914,501 1914,501 C1914,501 1510,531 1510,531 C1510,531 1390,699 1390,699 C1390,699 1142.5,763.81 1017.49,796.54 " fill="none" id="Command Service TS-Partial Update Engine" style="stroke: #A80036; stroke-width: 1.0;"/><polygon fill="#A80036" points="1012.37,797.88,1022.0907,799.4635,1017.2061,796.6103,1020.0593,791.7257,1012.37,797.88" style="stroke: #A80036; stroke-width: 1.0;"/><text fill="#000000" font-family="sans-serif" font-size="13" lengthAdjust="spacingAndGlyphs" textLength="21" x="1492" y="636.5669">MQ</text><!--link Materializer Postgres to Materialized Views--><path d="M737.55,834.3 C730.75,855.89 720,890 720,890 C720,890 720,907 720,907 C720,907 726.54,943.16 730.98,967.75 " fill="none" id="Materializer Postgres-Materialized Views" style="stroke: #A80036; stroke-width: 1.0;"/><polygon fill="#A80036" points="731.89,972.8,734.2302,963.2332,731.0031,967.8793,726.3571,964.6522,731.89,972.8" style="stroke: #A80036; stroke-width: 1.0;"/><text fill="#000000" font-family="sans-serif" font-size="13" lengthAdjust="spacingAndGlyphs" textLength="26" x="721" y="903.0669">SQL</text><!--link ANY to Partial Update Engine--><path d="M1278.93,476.63 C1247.19,489.33 1143,531 1143,531 C1143,531 1103,556 1103,556 C1103,556 997.58,731.03 960.06,793.32 " fill="none" id="ANY-Partial Update Engine" style="stroke: #A80036; stroke-width: 1.0;"/><polygon fill="#A80036" points="957.48,797.6,965.5404,791.9405,960.0525,793.3125,958.6805,787.8246,957.48,797.6" style="stroke: #A80036; stroke-width: 1.0;"/><text fill="#000000" font-family="sans-serif" font-size="13" lengthAdjust="spacingAndGlyphs" textLength="21" x="1104" y="636.5669">MQ</text><!--link DB Shrinker Storage to Document Data--><path d="M1795.89,490.21 C1758.21,519.53 1681.74,579.06 1641.35,610.49 " fill="none" id="DB Shrinker Storage-Document Data" style="stroke: #A80036; stroke-width: 1.0;"/><polygon fill="#A80036" points="1637.08,613.81,1646.6381,611.4348,1641.0245,610.7373,1641.7219,605.1236,1637.08,613.81" style="stroke: #A80036; stroke-width: 1.0;"/><text fill="#000000" font-family="sans-serif" font-size="13" lengthAdjust="spacingAndGlyphs" textLength="26" x="1741" y="544.0669">SQL</text><!--link Document Data to Query Service Doc--><path d="M1614.02,655.28 C1612.4,692.05 1609.21,764.66 1607.76,797.79 " fill="none" id="Document Data-Query Service Doc" style="stroke: #A80036; stroke-width: 1.0;"/><polygon fill="#A80036" points="1614.25,650.12,1609.8683,658.9405,1614.0359,655.1154,1617.861,659.283,1614.25,650.12" style="stroke: #A80036; stroke-width: 1.0;"/><text fill="#000000" font-family="sans-serif" font-size="13" lengthAdjust="spacingAndGlyphs" textLength="26" x="1613" y="695.0669">SQL</text><!--link Timeseries Data to Query Service TS--><path d="M2041.43,655.28 C2037.19,692.05 2028.81,764.66 2024.99,797.79 " fill="none" id="Timeseries Data-Query Service TS" style="stroke: #A80036; stroke-width: 1.0;"/><polygon fill="#A80036" points="2042.02,650.12,2037.0184,658.6044,2041.449,655.0873,2044.9661,659.5179,2042.02,650.12" style="stroke: #A80036; stroke-width: 1.0;"/><text fill="#000000" font-family="sans-serif" font-size="13" lengthAdjust="spacingAndGlyphs" textLength="32" x="2038" y="695.0669">REST</text><!--link Query Service Doc to Query Router--><path d="M1607,839.18 C1607,899.1 1607,1063.33 1607,1116.87 " fill="none" id="Query Service Doc-Query Router" style="stroke: #A80036; stroke-width: 1.0;"/><polygon fill="#A80036" points="1607,834.04,1603,843.04,1607,839.04,1611,843.04,1607,834.04" style="stroke: #A80036; stroke-width: 1.0;"/><text fill="#000000" font-family="sans-serif" font-size="13" lengthAdjust="spacingAndGlyphs" textLength="33" x="1608" y="995.5669">gRPC</text><!--link Query Service TS to Query Router--><path d="M1996.23,837.4 C1919.61,895.78 1700.45,1062.79 1629.48,1116.87 " fill="none" id="Query Service TS-Query Router" style="stroke: #A80036; stroke-width: 1.0;"/><polygon fill="#A80036" points="2000.63,834.04,1991.044,836.3002,1996.6489,837.0651,1995.8841,842.67,2000.63,834.04" style="stroke: #A80036; stroke-width: 1.0;"/><text fill="#000000" font-family="sans-serif" font-size="13" lengthAdjust="spacingAndGlyphs" textLength="33" x="1890" y="995.5669">gRPC</text><!--link ANY to Query Router--><path d="M1302.45,474.82 C1351.71,481.04 1510,501 1510,501 C1510,501 2150,531 2150,531 C2150,531 2201,631 2201,631 C2201,631 2201,631 2201,992 C2201,992 1932,1057 1932,1057 C1932,1057 1756.26,1098.64 1663.24,1120.68 " fill="none" id="ANY-Query Router" style="stroke: #A80036; stroke-width: 1.0;"/><polygon fill="#A80036" points="1297.26,474.17,1305.6853,479.2704,1302.2203,474.799,1306.6917,471.3339,1297.26,474.17" style="stroke: #A80036; stroke-width: 1.0;"/><text fill="#000000" font-family="sans-serif" font-size="13" lengthAdjust="spacingAndGlyphs" textLength="33" x="2202" y="820.5669">gRPC</text><!--link Query Service Doc to Object Builder--><path d="M1582.93,837.32 C1560.34,856.39 1530,882 1530,882 C1530,882 1172.85,951 1029.5,978.7 " fill="none" id="Query Service Doc-Object Builder" style="stroke: #A80036; stroke-width: 1.0;"/><polygon fill="#A80036" points="1586.77,834.08,1577.3162,836.8415,1582.9536,837.3104,1582.4848,842.9477,1586.77,834.08" style="stroke: #A80036; stroke-width: 1.0;"/><text fill="#000000" font-family="sans-serif" font-size="13" lengthAdjust="spacingAndGlyphs" textLength="33" x="1483" y="903.0669">gRPC</text><!--link Query Service TS to Object Builder--><path d="M1989.72,836.84 C1957.67,855.96 1914,882 1914,882 C1914,882 1809,890 1809,890 C1809,890 1564,915 1564,915 C1564,915 1179.55,963.62 1029.75,982.57 " fill="none" id="Query Service TS-Object Builder" style="stroke: #A80036; stroke-width: 1.0;"/><polygon fill="#A80036" points="1994.36,834.08,1984.5817,835.2565,1990.0662,836.6419,1988.6808,842.1265,1994.36,834.08" style="stroke: #A80036; stroke-width: 1.0;"/><text fill="#000000" font-family="sans-serif" font-size="13" lengthAdjust="spacingAndGlyphs" textLength="33" x="1810" y="903.0669">gRPC</text><!--link ANY to Object Builder--><path d="M1285.14,486.06 C1275.39,530.63 1244,674 1244,674 C1244,674 1043.3,906.31 986.07,972.56 " fill="none" id="ANY-Object Builder" style="stroke: #A80036; stroke-width: 1.0;"/><polygon fill="#A80036" points="1286.22,481.13,1280.385,489.0643,1285.149,486.0139,1288.1993,490.7779,1286.22,481.13" style="stroke: #A80036; stroke-width: 1.0;"/><text fill="#000000" font-family="sans-serif" font-size="13" lengthAdjust="spacingAndGlyphs" textLength="33" x="1237" y="695.0669">gRPC</text><!--link Materializer Postgres to Object Builder--><path d="M769.94,837.44 C815.31,871.87 906.13,940.78 948.4,972.85 " fill="none" id="Materializer Postgres-Object Builder" style="stroke: #A80036; stroke-width: 1.0;"/><polygon fill="#A80036" points="765.7,834.22,770.4459,842.85,769.6811,837.2451,775.286,836.4802,765.7,834.22" style="stroke: #A80036; stroke-width: 1.0;"/><text fill="#000000" font-family="sans-serif" font-size="13" lengthAdjust="spacingAndGlyphs" textLength="33" x="858" y="903.0669">gRPC</text><!--link MatAPI to API--><path d="M307.18,1144.23 C296.99,1190.26 247.02,1416.07 232.79,1480.38 " fill="none" id="MatAPI-API" style="stroke: #A80036; stroke-width: 1.0; stroke-dasharray: 7.0,7.0;"/><!--link ConfAPI to API--><path d="M179,1000.04 C179,1030.08 179,1134 179,1134 C179,1134 179,1134 179,1359 C179,1359 209.37,1443.11 222.77,1480.24 " fill="none" id="ConfAPI-API" style="stroke: #A80036; stroke-width: 1.0; stroke-dasharray: 7.0,7.0;"/><!--link DRAPI to API--><path d="M68.42,1144.03 C82.47,1190.71 153,1425 153,1425 C153,1425 188.51,1458.88 210.99,1480.32 " fill="none" id="DRAPI-API" style="stroke: #A80036; stroke-width: 1.0; stroke-dasharray: 7.0,7.0;"/><!--link Query Router to User--><path d="M1573.45,1155.77 C1469.38,1217.1 1159,1400 1159,1400 C1159,1400 891.14,1473.98 822.08,1493.06 " fill="none" id="Query Router-User" style="stroke: #A80036; stroke-width: 1.0;"/><polygon fill="#A80036" points="1577.95,1153.12,1568.1671,1154.2581,1573.6462,1155.6651,1572.2393,1161.1442,1577.95,1153.12" style="stroke: #A80036; stroke-width: 1.0;"/><text fill="#000000" font-family="sans-serif" font-size="13" lengthAdjust="spacingAndGlyphs" textLength="32" x="1376" y="1285.0669">REST</text><!--link On Demand Materializer to User--><path d="M903.26,1380.36 C881.19,1406.95 843.79,1451.99 822.37,1477.78 " fill="none" id="On Demand Materializer-User" style="stroke: #A80036; stroke-width: 1.0;"/><polygon fill="#A80036" points="906.67,1376.26,897.837,1380.6165,903.4705,1380.1023,903.9847,1385.7357,906.67,1376.26" style="stroke: #A80036; stroke-width: 1.0;"/><text fill="#000000" font-family="sans-serif" font-size="13" lengthAdjust="spacingAndGlyphs" textLength="33" x="878" y="1421.0669">gRPC</text><!--link Admin Web Panel to User--><path d="M522.48,1378.14 C596.96,1409.5 741.52,1470.36 789.84,1490.7 " fill="none" id="Admin Web Panel-User" style="stroke: #A80036; stroke-width: 1.0;"/><polygon fill="#A80036" points="517.67,1376.12,524.4045,1383.3065,522.276,1378.0654,527.5172,1375.9369,517.67,1376.12" style="stroke: #A80036; stroke-width: 1.0;"/><text fill="#000000" font-family="sans-serif" font-size="13" lengthAdjust="spacingAndGlyphs" textLength="32" x="632" y="1421.0669">HTTP</text><!--link Materialized Views to User--><path d="M737.82,1014.26 C742.89,1054.22 753,1134 753,1134 C753,1134 753,1134 753,1359 C753,1359 774.75,1415.84 790.38,1456.69 " fill="none" id="Materialized Views-User" style="stroke: #A80036; stroke-width: 1.0;"/><polygon fill="#A80036" points="737.17,1009.13,734.3305,1018.5607,737.7972,1014.0905,742.2673,1017.5572,737.17,1009.13" style="stroke: #A80036; stroke-width: 1.0;"/><text fill="#000000" font-family="sans-serif" font-size="13" lengthAdjust="spacingAndGlyphs" textLength="26" x="754" y="1238.0669">SQL</text></g></svg>