<?xml version="1.0" encoding="UTF-8" standalone="no"?><svg xmlns="http://www.w3.org/2000/svg" xmlns:xlink="http://www.w3.org/1999/xlink" contentScriptType="application/ecmascript" contentStyleType="text/css" height="1605px" preserveAspectRatio="none" style="width:1278px;height:1605px;background:#FEFEFE;" version="1.1" viewBox="0 0 1278 1605" width="1278px" zoomAndPan="magnify"><defs><filter height="300%" id="fqjcc5dqovgzw" width="300%" x="-1" y="-1"><feGaussianBlur result="blurOut" stdDeviation="2.0"/><feColorMatrix in="blurOut" result="blurOut2" type="matrix" values="0 0 0 0 0 0 0 0 0 0 0 0 0 0 0 0 0 0 .4 0"/><feOffset dx="4.0" dy="4.0" in="blurOut2" result="blurOut3"/><feBlend in="SourceGraphic" in2="blurOut3" mode="normal"/></filter></defs><g><!--cluster ##6--><path d="M548,206 C548,203 550,201 553,201 C556,201 558,203 558,206 C558,203 560,201 563,201 C566,201 568,203 568,206 C568,203 570,201 573,201 C576,201 578,203 578,206 C578,203 580,201 583,201 C586,201 588,203 588,206 C588,203 590,201 593,201 C596,201 598,203 598,206 C598,203 600,201 603,201 C606,201 608,203 608,206 C608,203 610,201 613,201 C616,201 618,203 618,206 C618,203 620,201 623,201 C626,201 628,203 628,206 C628,203 630,201 633,201 C636,201 638,203 638,206 C638,203 640,201 643,201 C646,201 648,203 648,206 C648,203 650,201 653,201 C656,201 658,203 658,206 C658,203 660,201 663,201 C666,201 668,203 668,206 C668,203 670,201 673,201 C676,201 678,203 678,206 C678,203 680,201 683,201 C686,201 688,203 688,206 C691,206 693,208 693,211 C693,214 691,216 688,216 C691,216 693,218 693,221 C693,224 691,226 688,226 C691,226 693,228 693,231 C693,234 691,236 688,236 C691,236 693,238 693,241 C693,244 691,246 688,246 C688,249 685,251 683,251 C680,251 678,249 678,246 C678,249 675,251 673,251 C670,251 668,249 668,246 C668,249 665,251 663,251 C660,251 658,249 658,246 C658,249 655,251 653,251 C650,251 648,249 648,246 C648,249 645,251 643,251 C640,251 638,249 638,246 C638,249 635,251 633,251 C630,251 628,249 628,246 C628,249 625,251 623,251 C620,251 618,249 618,246 C618,249 615,251 613,251 C610,251 608,249 608,246 C608,249 605,251 603,251 C600,251 598,249 598,246 C598,249 595,251 593,251 C590,251 588,249 588,246 C588,249 585,251 583,251 C580,251 578,249 578,246 C578,249 575,251 573,251 C570,251 568,249 568,246 C568,249 565,251 563,251 C560,251 558,249 558,246 C558,249 555,251 553,251 C550,251 548,249 548,246 C545,246 543,244 543,241 C543,238 545,236 548,236 C545,236 543,234 543,231 C543,228 545,226 548,226 C545,226 543,224 543,221 C543,218 545,216 548,216 C545,216 543,214 543,211 C543,208 545,206 548,206 " fill="#FEFEFE" filter="url(#fqjcc5dqovgzw)" style="stroke: #000000; stroke-width: 2.0;"/><!--cluster Management Layer--><rect fill="#FEFEFE" filter="url(#fqjcc5dqovgzw)" height="71" style="stroke: #000000; stroke-width: 2.0;" width="231" x="781" y="180"/><path d="M941,181 L941,189.2969 L931,199.2969 L781,199.2969 " fill="none" style="stroke: #000000; stroke-width: 2.0;"/><text fill="#000000" font-family="sans-serif" font-size="14" font-weight="bold" lengthAdjust="spacingAndGlyphs" textLength="150" x="784" y="193.9951">Management Layer</text><!--cluster Ingestion Layer--><rect fill="#FEFEFE" filter="url(#fqjcc5dqovgzw)" height="71" style="stroke: #000000; stroke-width: 2.0;" width="138" x="557" y="304"/><path d="M689,305 L689,313.2969 L679,323.2969 L557,323.2969 " fill="none" style="stroke: #000000; stroke-width: 2.0;"/><text fill="#000000" font-family="sans-serif" font-size="14" font-weight="bold" lengthAdjust="spacingAndGlyphs" textLength="122" x="560" y="317.9951">Ingestion Layer</text><!--cluster Configuration Layer--><rect fill="#FEFEFE" filter="url(#fqjcc5dqovgzw)" height="71" style="stroke: #000000; stroke-width: 2.0;" width="307" x="660" y="16"/><path d="M826,17 L826,25.2969 L816,35.2969 L660,35.2969 " fill="none" style="stroke: #000000; stroke-width: 2.0;"/><text fill="#000000" font-family="sans-serif" font-size="14" font-weight="bold" lengthAdjust="spacingAndGlyphs" textLength="156" x="663" y="29.9951">Configuration Layer</text><!--cluster Storage Layer--><rect fill="#FEFEFE" filter="url(#fqjcc5dqovgzw)" height="756" style="stroke: #000000; stroke-width: 2.0;" width="1253" x="14" y="495"/><path d="M135,496 L135,504.2969 L125,514.2969 L14,514.2969 " fill="none" style="stroke: #000000; stroke-width: 2.0;"/><text fill="#000000" font-family="sans-serif" font-size="14" font-weight="bold" lengthAdjust="spacingAndGlyphs" textLength="111" x="17" y="508.9951">Storage Layer</text><!--cluster Repository Doc--><polygon fill="#FEFEFE" filter="url(#fqjcc5dqovgzw)" points="22,532,32,522,410,522,410,1233,400,1243,22,1243,22,532" style="stroke: #000000; stroke-width: 2.0;"/><line style="stroke: #000000; stroke-width: 2.0;" x1="400" x2="409" y1="532" y2="523"/><line style="stroke: #000000; stroke-width: 2.0;" x1="22" x2="400" y1="532" y2="532"/><line style="stroke: #000000; stroke-width: 2.0;" x1="400" x2="400" y1="532" y2="1243"/><text fill="#000000" font-family="sans-serif" font-size="14" font-weight="bold" lengthAdjust="spacingAndGlyphs" textLength="120" x="152" y="547.9951">Repository Doc</text><!--cluster Postgres--><path d="M249,852 C249,842 322,842 322,842 C322,842 395,842 395,852 L395,918 C395,928 322,928 322,928 C322,928 249,928 249,918 L249,852 " fill="#FEFEFE" filter="url(#fqjcc5dqovgzw)" style="stroke: #000000; stroke-width: 2.0;"/><path d="M249,852 C249,862 322,862 322,862 C322,862 395,862 395,852 " fill="none" style="stroke: #000000; stroke-width: 2.0;"/><text fill="#000000" font-family="sans-serif" font-size="14" font-weight="bold" lengthAdjust="spacingAndGlyphs" textLength="71" x="286.5" y="875.9951">Postgres</text><!--cluster Repository TS--><polygon fill="#FEFEFE" filter="url(#fqjcc5dqovgzw)" points="428,532,438,522,614,522,614,1233,604,1243,428,1243,428,532" style="stroke: #000000; stroke-width: 2.0;"/><line style="stroke: #000000; stroke-width: 2.0;" x1="604" x2="613" y1="532" y2="523"/><line style="stroke: #000000; stroke-width: 2.0;" x1="428" x2="604" y1="532" y2="532"/><line style="stroke: #000000; stroke-width: 2.0;" x1="604" x2="604" y1="532" y2="1243"/><text fill="#000000" font-family="sans-serif" font-size="14" font-weight="bold" lengthAdjust="spacingAndGlyphs" textLength="110" x="462" y="547.9951">Repository TS</text><!--cluster Victoria Metrics--><path d="M454,852 C454,842 528,842 528,842 C528,842 602,842 602,852 L602,918 C602,928 528,928 528,928 C528,928 454,928 454,918 L454,852 " fill="#FEFEFE" filter="url(#fqjcc5dqovgzw)" style="stroke: #000000; stroke-width: 2.0;"/><path d="M454,852 C454,862 528,862 528,862 C528,862 602,862 602,852 " fill="none" style="stroke: #000000; stroke-width: 2.0;"/><text fill="#000000" font-family="sans-serif" font-size="14" font-weight="bold" lengthAdjust="spacingAndGlyphs" textLength="123" x="466.5" y="875.9951">Victoria Metrics</text><!--cluster Repository Blob--><polygon fill="#FEFEFE" filter="url(#fqjcc5dqovgzw)" points="630,532,640,522,830,522,830,1233,820,1243,630,1243,630,532" style="stroke: #000000; stroke-width: 2.0;"/><line style="stroke: #000000; stroke-width: 2.0;" x1="820" x2="829" y1="532" y2="523"/><line style="stroke: #000000; stroke-width: 2.0;" x1="630" x2="820" y1="532" y2="532"/><line style="stroke: #000000; stroke-width: 2.0;" x1="820" x2="820" y1="532" y2="1243"/><text fill="#000000" font-family="sans-serif" font-size="14" font-weight="bold" lengthAdjust="spacingAndGlyphs" textLength="124" x="664" y="547.9951">Repository Blob</text><!--cluster Sled DB--><path d="M676,852 C676,842 728,842 728,842 C728,842 780,842 780,852 L780,918 C780,928 728,928 728,928 C728,928 676,928 676,918 L676,852 " fill="#FEFEFE" filter="url(#fqjcc5dqovgzw)" style="stroke: #000000; stroke-width: 2.0;"/><path d="M676,852 C676,862 728,862 728,862 C728,862 780,862 780,852 " fill="none" style="stroke: #000000; stroke-width: 2.0;"/><text fill="#000000" font-family="sans-serif" font-size="14" font-weight="bold" lengthAdjust="spacingAndGlyphs" textLength="60" x="698" y="875.9951">Sled DB</text><!--cluster Retrieval Layer--><rect fill="#FEFEFE" filter="url(#fqjcc5dqovgzw)" height="71" style="stroke: #000000; stroke-width: 2.0;" width="134" x="548" y="1358"/><path d="M676,1359 L676,1367.2969 L666,1377.2969 L548,1377.2969 " fill="none" style="stroke: #000000; stroke-width: 2.0;"/><text fill="#000000" font-family="sans-serif" font-size="14" font-weight="bold" lengthAdjust="spacingAndGlyphs" textLength="118" x="551" y="1371.9951">Retrieval Layer</text><!--cluster ##46--><path d="M594,1508 C594,1505 596,1503 599,1503 C602,1503 604,1505 604,1508 C604,1505 606,1503 609,1503 C612,1503 614,1505 614,1508 C614,1505 616,1503 619,1503 C622,1503 624,1505 624,1508 C624,1505 626,1503 629,1503 C632,1503 634,1505 634,1508 C637,1508 639,1510 639,1513 C639,1516 637,1518 634,1518 C637,1518 639,1520 639,1523 C639,1526 637,1528 634,1528 C637,1528 639,1530 639,1533 C639,1536 637,1538 634,1538 C637,1538 639,1540 639,1543 C639,1546 637,1548 634,1548 C637,1548 639,1550 639,1553 C639,1556 637,1558 634,1558 C637,1558 639,1560 639,1563 C639,1566 637,1568 634,1568 C637,1568 639,1570 639,1573 C639,1576 637,1578 634,1578 C637,1578 639,1580 639,1583 C639,1586 637,1588 634,1588 C634,1591 631,1593 629,1593 C626,1593 624,1591 624,1588 C624,1591 621,1593 619,1593 C616,1593 614,1591 614,1588 C614,1591 611,1593 609,1593 C606,1593 604,1591 604,1588 C604,1591 601,1593 599,1593 C596,1593 594,1591 594,1588 C591,1588 589,1586 589,1583 C589,1580 591,1578 594,1578 C591,1578 589,1576 589,1573 C589,1570 591,1568 594,1568 C591,1568 589,1566 589,1563 C589,1560 591,1558 594,1558 C591,1558 589,1556 589,1553 C589,1550 591,1548 594,1548 C591,1548 589,1546 589,1543 C589,1540 591,1538 594,1538 C591,1538 589,1536 589,1533 C589,1530 591,1528 594,1528 C591,1528 589,1526 589,1523 C589,1520 591,1518 594,1518 C591,1518 589,1516 589,1513 C589,1510 591,1508 594,1508 " fill="#FEFEFE" filter="url(#fqjcc5dqovgzw)" style="stroke: #000000; stroke-width: 2.0;"/><!--entity External System--><rect fill="#FEFECE" filter="url(#fqjcc5dqovgzw)" height="36.2969" style="stroke: #A80036; stroke-width: 1.5;" width="130" x="553" y="207"/><rect fill="#FEFECE" height="5" style="stroke: #A80036; stroke-width: 1.5;" width="10" x="548" y="212"/><rect fill="#FEFECE" height="5" style="stroke: #A80036; stroke-width: 1.5;" width="10" x="548" y="233.2969"/><text fill="#000000" font-family="sans-serif" font-size="14" lengthAdjust="spacingAndGlyphs" textLength="110" x="563" y="229.9951">External System</text><!--entity CLI--><rect fill="#FEFECE" filter="url(#fqjcc5dqovgzw)" height="36.2969" style="stroke: #A80036; stroke-width: 1.5;" width="40" x="964" y="207"/><rect fill="#FEFECE" height="5" style="stroke: #A80036; stroke-width: 1.5;" width="10" x="959" y="212"/><rect fill="#FEFECE" height="5" style="stroke: #A80036; stroke-width: 1.5;" width="10" x="959" y="233.2969"/><text fill="#000000" font-family="sans-serif" font-size="14" lengthAdjust="spacingAndGlyphs" textLength="20" x="974" y="229.9951">CLI</text><!--entity Admin Web Panel--><rect fill="#FEFECE" filter="url(#fqjcc5dqovgzw)" height="36.2969" style="stroke: #A80036; stroke-width: 1.5;" width="140" x="789" y="207"/><rect fill="#FEFECE" height="5" style="stroke: #A80036; stroke-width: 1.5;" width="10" x="784" y="212"/><rect fill="#FEFECE" height="5" style="stroke: #A80036; stroke-width: 1.5;" width="10" x="784" y="233.2969"/><text fill="#000000" font-family="sans-serif" font-size="14" lengthAdjust="spacingAndGlyphs" textLength="120" x="799" y="229.9951">Admin Web Panel</text><!--entity Data Router--><rect fill="#FEFECE" filter="url(#fqjcc5dqovgzw)" height="36.2969" style="stroke: #A80036; stroke-width: 1.5;" width="103" x="574.5" y="331"/><rect fill="#FEFECE" height="5" style="stroke: #A80036; stroke-width: 1.5;" width="10" x="569.5" y="336"/><rect fill="#FEFECE" height="5" style="stroke: #A80036; stroke-width: 1.5;" width="10" x="569.5" y="357.2969"/><text fill="#000000" font-family="sans-serif" font-size="14" lengthAdjust="spacingAndGlyphs" textLength="83" x="584.5" y="353.9951">Data Router</text><!--entity Schema Registry--><rect fill="#FEFECE" filter="url(#fqjcc5dqovgzw)" height="36.2969" style="stroke: #A80036; stroke-width: 1.5;" width="136" x="668" y="43"/><rect fill="#FEFECE" height="5" style="stroke: #A80036; stroke-width: 1.5;" width="10" x="663" y="48"/><rect fill="#FEFECE" height="5" style="stroke: #A80036; stroke-width: 1.5;" width="10" x="663" y="69.2969"/><text fill="#000000" font-family="sans-serif" font-size="14" lengthAdjust="spacingAndGlyphs" textLength="116" x="678" y="65.9951">Schema Registry</text><!--entity Leader Elector--><rect fill="#FEFECE" filter="url(#fqjcc5dqovgzw)" height="36.2969" style="stroke: #A80036; stroke-width: 1.5;" width="119" x="839.5" y="43"/><rect fill="#FEFECE" height="5" style="stroke: #A80036; stroke-width: 1.5;" width="10" x="834.5" y="48"/><rect fill="#FEFECE" height="5" style="stroke: #A80036; stroke-width: 1.5;" width="10" x="834.5" y="69.2969"/><text fill="#000000" font-family="sans-serif" font-size="14" lengthAdjust="spacingAndGlyphs" textLength="99" x="849.5" y="65.9951">Leader Elector</text><!--entity ANY--><ellipse cx="1057" cy="572" fill="#FEFECE" filter="url(#fqjcc5dqovgzw)" rx="8" ry="8" style="stroke: #A80036; stroke-width: 2.0;"/><text fill="#000000" font-family="sans-serif" font-size="14" lengthAdjust="spacingAndGlyphs" textLength="389" x="862.5" y="601.9951">any number of repositories (Document/Timeseries/Blob)</text><!--entity Command Service Doc--><rect fill="#FEFECE" filter="url(#fqjcc5dqovgzw)" height="36.2969" style="stroke: #A80036; stroke-width: 1.5;" width="177" x="29.5" y="554"/><rect fill="#FEFECE" height="5" style="stroke: #A80036; stroke-width: 1.5;" width="10" x="24.5" y="559"/><rect fill="#FEFECE" height="5" style="stroke: #A80036; stroke-width: 1.5;" width="10" x="24.5" y="580.2969"/><text fill="#000000" font-family="sans-serif" font-size="14" lengthAdjust="spacingAndGlyphs" textLength="157" x="39.5" y="576.9951">Command Service Doc</text><!--entity DB Shrinker Storage--><rect fill="#FEFECE" filter="url(#fqjcc5dqovgzw)" height="36.2969" style="stroke: #A80036; stroke-width: 1.5;" width="160" x="242" y="554"/><rect fill="#FEFECE" height="5" style="stroke: #A80036; stroke-width: 1.5;" width="10" x="237" y="559"/><rect fill="#FEFECE" height="5" style="stroke: #A80036; stroke-width: 1.5;" width="10" x="237" y="580.2969"/><text fill="#000000" font-family="sans-serif" font-size="14" lengthAdjust="spacingAndGlyphs" textLength="140" x="252" y="576.9951">DB Shrinker Storage</text><!--entity Query Service Doc--><rect fill="#FEFECE" filter="url(#fqjcc5dqovgzw)" height="36.2969" style="stroke: #A80036; stroke-width: 1.5;" width="147" x="251.5" y="1199"/><rect fill="#FEFECE" height="5" style="stroke: #A80036; stroke-width: 1.5;" width="10" x="246.5" y="1204"/><rect fill="#FEFECE" height="5" style="stroke: #A80036; stroke-width: 1.5;" width="10" x="246.5" y="1225.2969"/><text fill="#000000" font-family="sans-serif" font-size="14" lengthAdjust="spacingAndGlyphs" textLength="127" x="261.5" y="1221.9951">Query Service Doc</text><!--entity Document Data--><rect fill="#FEFECE" filter="url(#fqjcc5dqovgzw)" height="36.2969" style="stroke: #A80036; stroke-width: 1.5;" width="129" x="257.5" y="884"/><rect fill="#FEFECE" height="5" style="stroke: #A80036; stroke-width: 1.5;" width="10" x="252.5" y="889"/><rect fill="#FEFECE" height="5" style="stroke: #A80036; stroke-width: 1.5;" width="10" x="252.5" y="910.2969"/><text fill="#000000" font-family="sans-serif" font-size="14" lengthAdjust="spacingAndGlyphs" textLength="109" x="267.5" y="906.9951">Document Data</text><!--entity Command Service TS--><rect fill="#FEFECE" filter="url(#fqjcc5dqovgzw)" height="36.2969" style="stroke: #A80036; stroke-width: 1.5;" width="167" x="437.5" y="554"/><rect fill="#FEFECE" height="5" style="stroke: #A80036; stroke-width: 1.5;" width="10" x="432.5" y="559"/><rect fill="#FEFECE" height="5" style="stroke: #A80036; stroke-width: 1.5;" width="10" x="432.5" y="580.2969"/><text fill="#000000" font-family="sans-serif" font-size="14" lengthAdjust="spacingAndGlyphs" textLength="147" x="447.5" y="576.9951">Command Service TS</text><!--entity Query Service TS--><rect fill="#FEFECE" filter="url(#fqjcc5dqovgzw)" height="36.2969" style="stroke: #A80036; stroke-width: 1.5;" width="137" x="466.5" y="1199"/><rect fill="#FEFECE" height="5" style="stroke: #A80036; stroke-width: 1.5;" width="10" x="461.5" y="1204"/><rect fill="#FEFECE" height="5" style="stroke: #A80036; stroke-width: 1.5;" width="10" x="461.5" y="1225.2969"/><text fill="#000000" font-family="sans-serif" font-size="14" lengthAdjust="spacingAndGlyphs" textLength="117" x="476.5" y="1221.9951">Query Service TS</text><!--entity Timeseries Data--><rect fill="#FEFECE" filter="url(#fqjcc5dqovgzw)" height="36.2969" style="stroke: #A80036; stroke-width: 1.5;" width="132" x="462" y="884"/><rect fill="#FEFECE" height="5" style="stroke: #A80036; stroke-width: 1.5;" width="10" x="457" y="889"/><rect fill="#FEFECE" height="5" style="stroke: #A80036; stroke-width: 1.5;" width="10" x="457" y="910.2969"/><text fill="#000000" font-family="sans-serif" font-size="14" lengthAdjust="spacingAndGlyphs" textLength="112" x="472" y="906.9951">Timeseries Data</text><!--entity Command Service Blob--><rect fill="#FEFECE" filter="url(#fqjcc5dqovgzw)" height="36.2969" style="stroke: #A80036; stroke-width: 1.5;" width="180" x="640" y="554"/><rect fill="#FEFECE" height="5" style="stroke: #A80036; stroke-width: 1.5;" width="10" x="635" y="559"/><rect fill="#FEFECE" height="5" style="stroke: #A80036; stroke-width: 1.5;" width="10" x="635" y="580.2969"/><text fill="#000000" font-family="sans-serif" font-size="14" lengthAdjust="spacingAndGlyphs" textLength="160" x="650" y="576.9951">Command Service Blob</text><!--entity Query Service Blob--><rect fill="#FEFECE" filter="url(#fqjcc5dqovgzw)" height="36.2969" style="stroke: #A80036; stroke-width: 1.5;" width="150" x="643" y="1199"/><rect fill="#FEFECE" height="5" style="stroke: #A80036; stroke-width: 1.5;" width="10" x="638" y="1204"/><rect fill="#FEFECE" height="5" style="stroke: #A80036; stroke-width: 1.5;" width="10" x="638" y="1225.2969"/><text fill="#000000" font-family="sans-serif" font-size="14" lengthAdjust="spacingAndGlyphs" textLength="130" x="653" y="1221.9951">Query Service Blob</text><!--entity Blob Data--><rect fill="#FEFECE" filter="url(#fqjcc5dqovgzw)" height="36.2969" style="stroke: #A80036; stroke-width: 1.5;" width="87" x="684.5" y="884"/><rect fill="#FEFECE" height="5" style="stroke: #A80036; stroke-width: 1.5;" width="10" x="679.5" y="889"/><rect fill="#FEFECE" height="5" style="stroke: #A80036; stroke-width: 1.5;" width="10" x="679.5" y="910.2969"/><text fill="#000000" font-family="sans-serif" font-size="14" lengthAdjust="spacingAndGlyphs" textLength="67" x="694.5" y="906.9951">Blob Data</text><!--entity Query Router--><rect fill="#FEFECE" filter="url(#fqjcc5dqovgzw)" height="36.2969" style="stroke: #A80036; stroke-width: 1.5;" width="112" x="559" y="1385"/><rect fill="#FEFECE" height="5" style="stroke: #A80036; stroke-width: 1.5;" width="10" x="554" y="1390"/><rect fill="#FEFECE" height="5" style="stroke: #A80036; stroke-width: 1.5;" width="10" x="554" y="1411.2969"/><text fill="#000000" font-family="sans-serif" font-size="14" lengthAdjust="spacingAndGlyphs" textLength="92" x="569" y="1407.9951">Query Router</text><!--entity User--><ellipse cx="615" cy="1519" fill="#FEFECE" filter="url(#fqjcc5dqovgzw)" rx="8" ry="8" style="stroke: #A80036; stroke-width: 2.0;"/><path d="M615,1527 L615,1554 M602,1535 L628,1535 M615,1554 L602,1569 M615,1554 L628,1569 " fill="#FEFECE" filter="url(#fqjcc5dqovgzw)" style="stroke: #A80036; stroke-width: 2.0;"/><text fill="#000000" font-family="sans-serif" font-size="14" lengthAdjust="spacingAndGlyphs" textLength="32" x="599" y="1588.9951">User</text><!--entity SRDoc--><ellipse cx="473" cy="349" fill="#FEFECE" filter="url(#fqjcc5dqovgzw)" rx="8" ry="8" style="stroke: #A80036; stroke-width: 2.0;"/><text fill="#000000" font-family="sans-serif" font-size="14" lengthAdjust="spacingAndGlyphs" textLength="116" x="415" y="378.9951">Schema Registry</text><!--entity SRTS--><ellipse cx="772" cy="1403" fill="#FEFECE" filter="url(#fqjcc5dqovgzw)" rx="8" ry="8" style="stroke: #A80036; stroke-width: 2.0;"/><text fill="#000000" font-family="sans-serif" font-size="14" lengthAdjust="spacingAndGlyphs" textLength="116" x="714" y="1432.9951">Schema Registry</text><!--entity API--><rect fill="#FEFECE" filter="url(#fqjcc5dqovgzw)" height="36.2969" style="stroke: #A80036; stroke-width: 1.5;" width="41" x="715.5" y="331"/><rect fill="#FEFECE" height="5" style="stroke: #A80036; stroke-width: 1.5;" width="10" x="710.5" y="336"/><rect fill="#FEFECE" height="5" style="stroke: #A80036; stroke-width: 1.5;" width="10" x="710.5" y="357.2969"/><text fill="#000000" font-family="sans-serif" font-size="14" lengthAdjust="spacingAndGlyphs" textLength="21" x="725.5" y="353.9951">API</text><!--link Data Router to API--><path d="M677.5804,349 C687.7318,349 699.3333,349 699.3333,349 C699.3333,349 706.8618,349 715.0961,349 " fill="none" id="Data Router-API" style="stroke: #A80036; stroke-width: 1.0; stroke-dasharray: 7.0,7.0;"/><!--link SRDoc to Data Router--><path d="M482.1127,355.4466 C498.1924,360.4157 532.864,362.4469 564.1428,361.5401 " fill="none" id="SRDoc-Data Router" style="stroke: #A80036; stroke-width: 1.0; stroke-dasharray: 7.0,7.0;"/><line style="stroke: #A80036; stroke-width: 1.0;" x1="564.1428" x2="574.1512" y1="361.5401" y2="361.1424"/><!--link Schema Registry to API--><path d="M736,79.0157 C736,130.7366 736,279.2787 736,330.9911 " fill="none" id="Schema Registry-API" style="stroke: #A80036; stroke-width: 1.0; stroke-dasharray: 7.0,7.0;"/><!--link Schema Registry to Leader Elector--><path d="M804.0439,61 C815.487,61 831.1915,61 839.3145,61 " fill="none" id="Schema Registry-Leader Elector" style="stroke: #A80036; stroke-width: 1.0; stroke-dasharray: 7.0,7.0;"/><!--link Query Router to SRTS--><path d="M666.8428,1403 C696.2339,1403 731.2823,1403 752.5757,1403 " fill="none" id="Query Router-SRTS" style="stroke: #A80036; stroke-width: 1.0; stroke-dasharray: 7.0,7.0;"/><line style="stroke: #A80036; stroke-width: 1.0;" x1="752.5757" x2="762.8669" y1="1403" y2="1403"/><!--link Admin Web Panel to API--><path d="M841.1147,243.0307 C818.979,265.3464 781.3121,303.3195 757.5899,327.2346 " fill="none" id="Admin Web Panel-API" style="stroke: #A80036; stroke-width: 1.0;"/><polygon fill="#A80036" points="753.9068,330.9476,763.0848,327.375,757.428,327.3978,757.4052,321.741,753.9068,330.9476" style="stroke: #A80036; stroke-width: 1.0;"/><text fill="#000000" font-family="sans-serif" font-size="13" lengthAdjust="spacingAndGlyphs" textLength="56" x="809" y="286.0669">GraphQL</text><!--link External System to Data Router--><path d="M619.1633,243.0307 C620.5734,264.8872 622.9525,301.7635 624.4994,325.7408 " fill="none" id="External System-Data Router" style="stroke: #A80036; stroke-width: 1.0;"/><polygon fill="#A80036" points="624.8353,330.9476,628.2474,321.7087,624.5133,325.958,620.264,322.2239,624.8353,330.9476" style="stroke: #A80036; stroke-width: 1.0;"/><text fill="#000000" font-family="sans-serif" font-size="13" lengthAdjust="spacingAndGlyphs" textLength="21" x="623" y="286.0669">MQ</text><!--link Data Router to Command Service Doc--><path d="M583.0859,367.0363 C569.0542,372.9338 557,378 557,378 C557,378 225,495 225,495 C225,495 178.9414,528.1449 147.2614,550.9427 " fill="none" id="Data Router-Command Service Doc" style="stroke: #A80036; stroke-width: 1.0;"/><polygon fill="#A80036" points="143.0867,553.9469,152.7282,551.9366,147.1451,551.0264,148.0554,545.4432,143.0867,553.9469" style="stroke: #A80036; stroke-width: 1.0;"/><text fill="#000000" font-family="sans-serif" font-size="13" lengthAdjust="spacingAndGlyphs" textLength="21" x="380" y="452.0669">MQ</text><!--link Data Router to Command Service TS--><path d="M617.4074,367.249 C598.3629,407.6959 552.6421,504.7982 531.7468,549.1759 " fill="none" id="Data Router-Command Service TS" style="stroke: #A80036; stroke-width: 1.0;"/><polygon fill="#A80036" points="529.5641,553.8116,537.0169,547.373,531.6941,549.288,529.7791,543.9651,529.5641,553.8116" style="stroke: #A80036; stroke-width: 1.0;"/><text fill="#000000" font-family="sans-serif" font-size="13" lengthAdjust="spacingAndGlyphs" textLength="21" x="584" y="452.0669">MQ</text><!--link Data Router to Command Service Blob--><path d="M634.5108,367.249 C653.3739,407.6959 698.6592,504.7982 719.3556,549.1759 " fill="none" id="Data Router-Command Service Blob" style="stroke: #A80036; stroke-width: 1.0;"/><polygon fill="#A80036" points="721.5175,553.8116,721.3385,543.9644,719.4041,549.2802,714.0882,547.3458,721.5175,553.8116" style="stroke: #A80036; stroke-width: 1.0;"/><text fill="#000000" font-family="sans-serif" font-size="13" lengthAdjust="spacingAndGlyphs" textLength="21" x="676" y="452.0669">MQ</text><!--link Data Router to ANY--><path d="M660.9055,367.0601 C750.1802,413.251 983.9573,534.2076 1043.1989,564.8593 " fill="none" id="Data Router-ANY" style="stroke: #A80036; stroke-width: 1.0;"/><polygon fill="#A80036" points="1047.7743,567.2266,1041.619,559.5381,1043.3335,564.9289,1037.9427,566.6434,1047.7743,567.2266" style="stroke: #A80036; stroke-width: 1.0;"/><text fill="#000000" font-family="sans-serif" font-size="13" lengthAdjust="spacingAndGlyphs" textLength="21" x="831" y="452.0669">MQ</text><!--link Command Service Doc to Document Data--><path d="M128.7253,590.314 C144.2121,616.7584 171,662.5 171,662.5 C171,662.5 171,662.5 171,802.5 C171,802.5 246.2104,852.0592 290.4719,881.2248 " fill="none" id="Command Service Doc-Document Data" style="stroke: #A80036; stroke-width: 1.0;"/><polygon fill="#A80036" points="294.655,883.9813,289.3409,875.6891,290.48,881.2301,284.939,882.3691,294.655,883.9813" style="stroke: #A80036; stroke-width: 1.0;"/><text fill="#000000" font-family="sans-serif" font-size="13" lengthAdjust="spacingAndGlyphs" textLength="26" x="172" y="737.0669">SQL</text><!--link Command Service TS to Timeseries Data--><path d="M521.4047,590.314 C521.9891,616.7584 523,662.5 523,662.5 C523,662.5 523,662.5 523,802.5 C523,802.5 525.3392,849.0504 526.8176,878.4711 " fill="none" id="Command Service TS-Timeseries Data" style="stroke: #A80036; stroke-width: 1.0;"/><polygon fill="#A80036" points="527.0829,883.7502,530.6261,874.5607,526.8319,878.7565,522.6361,874.9623,527.0829,883.7502" style="stroke: #A80036; stroke-width: 1.0;"/><text fill="#000000" font-family="sans-serif" font-size="13" lengthAdjust="spacingAndGlyphs" textLength="32" x="524" y="737.0669">REST</text><!--link Command Service Blob to Blob Data--><path d="M729.7976,590.314 C729.5054,616.7584 729,662.5 729,662.5 C729,662.5 729,662.5 729,802.5 C729,802.5 728.5322,849.0504 728.2365,878.4711 " fill="none" id="Command Service Blob-Blob Data" style="stroke: #A80036; stroke-width: 1.0;"/><polygon fill="#A80036" points="728.1834,883.7502,732.2737,874.7909,728.2337,878.7505,724.2741,874.7104,728.1834,883.7502" style="stroke: #A80036; stroke-width: 1.0;"/><text fill="#000000" font-family="sans-serif" font-size="13" lengthAdjust="spacingAndGlyphs" textLength="32" x="730" y="737.0669">REST</text><!--link DB Shrinker Storage to Document Data--><path d="M322,590.314 C322,616.7584 322,662.5 322,662.5 C322,662.5 322,662.5 322,802.5 C322,802.5 322,849.0504 322,878.4711 " fill="none" id="DB Shrinker Storage-Document Data" style="stroke: #A80036; stroke-width: 1.0;"/><polygon fill="#A80036" points="322,883.7502,326,874.7502,322,878.7502,318,874.7502,322,883.7502" style="stroke: #A80036; stroke-width: 1.0;"/><text fill="#000000" font-family="sans-serif" font-size="13" lengthAdjust="spacingAndGlyphs" textLength="26" x="323" y="737.0669">SQL</text><!--link Document Data to Query Service Doc--><path d="M322.2644,925.1327 C322.5606,951.0561 323,989.5 323,989.5 C323,989.5 323,989.5 323,1137.5 C323,1137.5 323.9561,1175.5044 324.5462,1198.9602 " fill="none" id="Document Data-Query Service Doc" style="stroke: #A80036; stroke-width: 1.0;"/><polygon fill="#A80036" points="322.2072,920.1301,318.3106,929.1753,322.2645,925.1298,326.3101,929.0837,322.2072,920.1301" style="stroke: #A80036; stroke-width: 1.0;"/><text fill="#000000" font-family="sans-serif" font-size="13" lengthAdjust="spacingAndGlyphs" textLength="26" x="324" y="1072.0669">SQL</text><!--link Timeseries Data to Query Service TS--><path d="M529.0575,925.1327 C530.2426,951.0561 532,989.5 532,989.5 C532,989.5 532,989.5 532,1137.5 C532,1137.5 533.4341,1175.5044 534.3193,1198.9602 " fill="none" id="Timeseries Data-Query Service TS" style="stroke: #A80036; stroke-width: 1.0;"/><polygon fill="#A80036" points="528.8288,920.1301,525.2442,929.3034,529.0572,925.1249,533.2358,928.938,528.8288,920.1301" style="stroke: #A80036; stroke-width: 1.0;"/><text fill="#000000" font-family="sans-serif" font-size="13" lengthAdjust="spacingAndGlyphs" textLength="32" x="533" y="1072.0669">REST</text><!--link Blob Data to Query Service Blob--><path d="M725.6206,925.1327 C722.9542,951.0561 719,989.5 719,989.5 C719,989.5 719,989.5 719,1137.5 C719,1137.5 718.522,1175.5044 718.2269,1198.9602 " fill="none" id="Blob Data-Query Service Blob" style="stroke: #A80036; stroke-width: 1.0;"/><polygon fill="#A80036" points="726.1352,920.1301,721.2351,928.6735,725.6235,925.1038,729.1931,929.4922,726.1352,920.1301" style="stroke: #A80036; stroke-width: 1.0;"/><text fill="#000000" font-family="sans-serif" font-size="13" lengthAdjust="spacingAndGlyphs" textLength="32" x="720" y="1072.0669">REST</text><!--link Query Service Doc to Query Router--><path d="M357.421,1237.7942 C414.7074,1274.5365 532.8729,1350.3254 586.9146,1384.9866 " fill="none" id="Query Service Doc-Query Router" style="stroke: #A80036; stroke-width: 1.0;"/><polygon fill="#A80036" points="353.0699,1235.0035,358.4861,1243.2293,357.2786,1237.7029,362.8051,1236.4953,353.0699,1235.0035" style="stroke: #A80036; stroke-width: 1.0;"/><text fill="#000000" font-family="sans-serif" font-size="13" lengthAdjust="spacingAndGlyphs" textLength="33" x="471" y="1309.0669">gRPC</text><!--link Query Service TS to Query Router--><path d="M544.8871,1239.9874 C560.9745,1277.3908 592.4906,1350.6655 607.1519,1384.7531 " fill="none" id="Query Service TS-Query Router" style="stroke: #A80036; stroke-width: 1.0;"/><polygon fill="#A80036" points="542.8164,1235.1731,542.6982,1245.0212,544.7921,1239.7662,550.0471,1241.8601,542.8164,1235.1731" style="stroke: #A80036; stroke-width: 1.0;"/><text fill="#000000" font-family="sans-serif" font-size="13" lengthAdjust="spacingAndGlyphs" textLength="33" x="576" y="1309.0669">gRPC</text><!--link Query Service Blob to Query Router--><path d="M705.2704,1239.9874 C684.5578,1277.3908 643.9809,1350.6655 625.1045,1384.7531 " fill="none" id="Query Service Blob-Query Router" style="stroke: #A80036; stroke-width: 1.0;"/><polygon fill="#A80036" points="707.9364,1235.1731,700.0772,1241.1089,705.5143,1239.5473,707.0759,1244.9843,707.9364,1235.1731" style="stroke: #A80036; stroke-width: 1.0;"/><text fill="#000000" font-family="sans-serif" font-size="13" lengthAdjust="spacingAndGlyphs" textLength="33" x="674" y="1309.0669">gRPC</text><!--link ANY to Query Router--><path d="M1044.029,584.7595 C1018.6754,609.6998 965,662.5 965,662.5 C965,662.5 965,662.5 965,1304.5 C965,1304.5 689,1358 689,1358 C689,1358 665.2596,1372.4367 644.6722,1384.9561 " fill="none" id="ANY-Query Router" style="stroke: #A80036; stroke-width: 1.0;"/><polygon fill="#A80036" points="1047.8423,581.0083,1038.6212,584.4683,1044.2779,584.5147,1044.2315,590.1714,1047.8423,581.0083" style="stroke: #A80036; stroke-width: 1.0;"/><text fill="#000000" font-family="sans-serif" font-size="13" lengthAdjust="spacingAndGlyphs" textLength="33" x="966" y="994.0669">gRPC</text><!--link Query Router to User--><path d="M615,1426.1608 C615,1448.2355 615,1481.9815 615,1508.7501 " fill="none" id="Query Router-User" style="stroke: #A80036; stroke-width: 1.0;"/><polygon fill="#A80036" points="615,1421.0864,611,1430.0864,615,1426.0864,619,1430.0864,615,1421.0864" style="stroke: #A80036; stroke-width: 1.0;"/><text fill="#000000" font-family="sans-serif" font-size="13" lengthAdjust="spacingAndGlyphs" textLength="32" x="616" y="1475.0669">REST</text></g></svg>