<?xml version="1.0" encoding="UTF-8" standalone="no"?><svg xmlns="http://www.w3.org/2000/svg" xmlns:xlink="http://www.w3.org/1999/xlink" contentScriptType="application/ecmascript" contentStyleType="text/css" height="1345px" preserveAspectRatio="none" style="width:1372px;height:1345px;background:#FEFEFE;" version="1.1" viewBox="0 0 1372 1345" width="1372px" zoomAndPan="magnify"><defs><filter height="300%" id="fqjcc5dqovgzw" width="300%" x="-1" y="-1"><feGaussianBlur result="blurOut" stdDeviation="2.0"/><feColorMatrix in="blurOut" result="blurOut2" type="matrix" values="0 0 0 0 0 0 0 0 0 0 0 0 0 0 0 0 0 0 .4 0"/><feOffset dx="4.0" dy="4.0" in="blurOut2" result="blurOut3"/><feBlend in="SourceGraphic" in2="blurOut3" mode="normal"/></filter></defs><g><path d="M617,232 C617,229 619,227 622,227 C625,227 627,229 627,232 C627,229 629,227 632,227 C635,227 637,229 637,232 C637,229 639,227 642,227 C645,227 647,229 647,232 C647,229 649,227 652,227 C655,227 657,229 657,232 C657,229 659,227 662,227 C665,227 667,229 667,232 C667,229 669,227 672,227 C675,227 677,229 677,232 C677,229 679,227 682,227 C685,227 687,229 687,232 C687,229 689,227 692,227 C695,227 697,229 697,232 C697,229 699,227 702,227 C705,227 707,229 707,232 C707,229 709,227 712,227 C715,227 717,229 717,232 C717,229 719,227 722,227 C725,227 727,229 727,232 C727,229 729,227 732,227 C735,227 737,229 737,232 C737,229 739,227 742,227 C745,227 747,229 747,232 C747,229 749,227 752,227 C755,227 757,229 757,232 C757,229 759,227 762,227 C765,227 767,229 767,232 C767,229 769,227 772,227 C775,227 777,229 777,232 C780,232 782,234 782,237 C782,240 780,242 777,242 C780,242 782,244 782,247 C782,250 780,252 777,252 C780,252 782,254 782,257 C782,260 780,262 777,262 C780,262 782,264 782,267 C782,270 780,272 777,272 C780,272 782,274 782,277 C782,280 780,282 777,282 C777,285 774,287 772,287 C769,287 767,285 767,282 C767,285 764,287 762,287 C759,287 757,285 757,282 C757,285 754,287 752,287 C749,287 747,285 747,282 C747,285 744,287 742,287 C739,287 737,285 737,282 C737,285 734,287 732,287 C729,287 727,285 727,282 C727,285 724,287 722,287 C719,287 717,285 717,282 C717,285 714,287 712,287 C709,287 707,285 707,282 C707,285 704,287 702,287 C699,287 697,285 697,282 C697,285 694,287 692,287 C689,287 687,285 687,282 C687,285 684,287 682,287 C679,287 677,285 677,282 C677,285 674,287 672,287 C669,287 667,285 667,282 C667,285 664,287 662,287 C659,287 657,285 657,282 C657,285 654,287 652,287 C649,287 647,285 647,282 C647,285 644,287 642,287 C639,287 637,285 637,282 C637,285 634,287 632,287 C629,287 627,285 627,282 C627,285 624,287 622,287 C619,287 617,285 617,282 C614,282 612,280 612,277 C612,274 614,272 617,272 C614,272 612,270 612,267 C612,264 614,262 617,262 C614,262 612,260 612,257 C612,254 614,252 617,252 C614,252 612,250 612,247 C612,244 614,242 617,242 C614,242 612,240 612,237 C612,234 614,232 617,232 " fill="#FEFEFE" filter="url(#fqjcc5dqovgzw)" style="stroke: #000000; stroke-width: 1.5;"/><!--cluster Management Layer--><rect fill="#FEFEFE" filter="url(#fqjcc5dqovgzw)" height="87" style="stroke: #000000; stroke-width: 1.5;" width="247" x="850" y="206"/><path d="M1010,207 L1010,215.2969 L1000,225.2969 L850,225.2969 " fill="none" style="stroke: #000000; stroke-width: 1.5;"/><text fill="#000000" font-family="sans-serif" font-size="14" font-weight="bold" lengthAdjust="spacingAndGlyphs" textLength="150" x="853" y="219.9951">Management Layer</text><!--cluster Ingestion Layer--><rect fill="#FEFEFE" filter="url(#fqjcc5dqovgzw)" height="87" style="stroke: #000000; stroke-width: 1.5;" width="138" x="632" y="342"/><path d="M764,343 L764,351.2969 L754,361.2969 L632,361.2969 " fill="none" style="stroke: #000000; stroke-width: 1.5;"/><text fill="#000000" font-family="sans-serif" font-size="14" font-weight="bold" lengthAdjust="spacingAndGlyphs" textLength="122" x="635" y="355.9951">Ingestion Layer</text><!--cluster Configuration Layer--><rect fill="#FEFEFE" filter="url(#fqjcc5dqovgzw)" height="87" style="stroke: #000000; stroke-width: 1.5;" width="323" x="729" y="24"/><path d="M895,25 L895,33.2969 L885,43.2969 L729,43.2969 " fill="none" style="stroke: #000000; stroke-width: 1.5;"/><text fill="#000000" font-family="sans-serif" font-size="14" font-weight="bold" lengthAdjust="spacingAndGlyphs" textLength="156" x="732" y="37.9951">Configuration Layer</text><!--cluster Storage Layer--><rect fill="#FEFEFE" filter="url(#fqjcc5dqovgzw)" height="434" style="stroke: #000000; stroke-width: 1.5;" width="1339" x="22" y="540"/><path d="M143,541 L143,549.2969 L133,559.2969 L22,559.2969 " fill="none" style="stroke: #000000; stroke-width: 1.5;"/><text fill="#000000" font-family="sans-serif" font-size="14" font-weight="bold" lengthAdjust="spacingAndGlyphs" textLength="111" x="25" y="553.9951">Storage Layer</text><!--cluster Repository Doc--><polygon fill="#FEFEFE" filter="url(#fqjcc5dqovgzw)" points="46,593,56,583,450,583,450,940,440,950,46,950,46,593" style="stroke: #000000; stroke-width: 1.5;"/><line style="stroke: #000000; stroke-width: 1.5;" x1="440" x2="449" y1="593" y2="584"/><line style="stroke: #000000; stroke-width: 1.5;" x1="46" x2="440" y1="593" y2="593"/><line style="stroke: #000000; stroke-width: 1.5;" x1="440" x2="440" y1="593" y2="950"/><text fill="#000000" font-family="sans-serif" font-size="14" font-weight="bold" lengthAdjust="spacingAndGlyphs" textLength="120" x="184" y="608.9951">Repository Doc</text><!--cluster Postgres--><path d="M264,743 C264,733 345,733 345,733 C345,733 426,733 426,743 L426,825 C426,835 345,835 345,835 C345,835 264,835 264,825 L264,743 " fill="#FEFEFE" filter="url(#fqjcc5dqovgzw)" style="stroke: #000000; stroke-width: 1.5;"/><path d="M264,743 C264,753 345,753 345,753 C345,753 426,753 426,743 " fill="none" style="stroke: #000000; stroke-width: 1.5;"/><text fill="#000000" font-family="sans-serif" font-size="14" font-weight="bold" lengthAdjust="spacingAndGlyphs" textLength="71" x="309.5" y="767.9951">Postgres</text><!--cluster Repository TS--><polygon fill="#FEFEFE" filter="url(#fqjcc5dqovgzw)" points="474,593,484,583,686,583,686,940,676,950,474,950,474,593" style="stroke: #000000; stroke-width: 1.5;"/><line style="stroke: #000000; stroke-width: 1.5;" x1="676" x2="685" y1="593" y2="584"/><line style="stroke: #000000; stroke-width: 1.5;" x1="474" x2="676" y1="593" y2="593"/><line style="stroke: #000000; stroke-width: 1.5;" x1="676" x2="676" y1="593" y2="950"/><text fill="#000000" font-family="sans-serif" font-size="14" font-weight="bold" lengthAdjust="spacingAndGlyphs" textLength="110" x="521" y="608.9951">Repository TS</text><!--cluster Victoria Metrics--><path d="M498,743 C498,733 580,733 580,733 C580,733 662,733 662,743 L662,825 C662,835 580,835 580,835 C580,835 498,835 498,825 L498,743 " fill="#FEFEFE" filter="url(#fqjcc5dqovgzw)" style="stroke: #000000; stroke-width: 1.5;"/><path d="M498,743 C498,753 580,753 580,753 C580,753 662,753 662,743 " fill="none" style="stroke: #000000; stroke-width: 1.5;"/><text fill="#000000" font-family="sans-serif" font-size="14" font-weight="bold" lengthAdjust="spacingAndGlyphs" textLength="123" x="518.5" y="767.9951">Victoria Metrics</text><!--cluster Repository Blob--><polygon fill="#FEFEFE" filter="url(#fqjcc5dqovgzw)" points="710,593,720,583,922,583,922,940,912,950,710,950,710,593" style="stroke: #000000; stroke-width: 1.5;"/><line style="stroke: #000000; stroke-width: 1.5;" x1="912" x2="921" y1="593" y2="584"/><line style="stroke: #000000; stroke-width: 1.5;" x1="710" x2="912" y1="593" y2="593"/><line style="stroke: #000000; stroke-width: 1.5;" x1="912" x2="912" y1="593" y2="950"/><text fill="#000000" font-family="sans-serif" font-size="14" font-weight="bold" lengthAdjust="spacingAndGlyphs" textLength="124" x="750" y="608.9951">Repository Blob</text><!--cluster Sled DB--><path d="M754,743 C754,733 814,733 814,733 C814,733 874,733 874,743 L874,825 C874,835 814,835 814,835 C814,835 754,835 754,825 L754,743 " fill="#FEFEFE" filter="url(#fqjcc5dqovgzw)" style="stroke: #000000; stroke-width: 1.5;"/><path d="M754,743 C754,753 814,753 814,753 C814,753 874,753 874,743 " fill="none" style="stroke: #000000; stroke-width: 1.5;"/><text fill="#000000" font-family="sans-serif" font-size="14" font-weight="bold" lengthAdjust="spacingAndGlyphs" textLength="60" x="784" y="767.9951">Sled DB</text><!--cluster Retrieval Layer--><rect fill="#FEFEFE" filter="url(#fqjcc5dqovgzw)" height="87" style="stroke: #000000; stroke-width: 1.5;" width="144" x="613" y="1085"/><path d="M741,1086 L741,1094.2969 L731,1104.2969 L613,1104.2969 " fill="none" style="stroke: #000000; stroke-width: 1.5;"/><text fill="#000000" font-family="sans-serif" font-size="14" font-weight="bold" lengthAdjust="spacingAndGlyphs" textLength="118" x="616" y="1098.9951">Retrieval Layer</text><path d="M656,1228 C656,1225 658,1223 661,1223 C664,1223 666,1225 666,1228 C666,1225 668,1223 671,1223 C674,1223 676,1225 676,1228 C676,1225 678,1223 681,1223 C684,1223 686,1225 686,1228 C686,1225 688,1223 691,1223 C694,1223 696,1225 696,1228 C696,1225 698,1223 701,1223 C704,1223 706,1225 706,1228 C706,1225 708,1223 711,1223 C714,1223 716,1225 716,1228 C719,1228 721,1230 721,1233 C721,1236 719,1238 716,1238 C719,1238 721,1240 721,1243 C721,1246 719,1248 716,1248 C719,1248 721,1250 721,1253 C721,1256 719,1258 716,1258 C719,1258 721,1260 721,1263 C721,1266 719,1268 716,1268 C719,1268 721,1270 721,1273 C721,1276 719,1278 716,1278 C719,1278 721,1280 721,1283 C721,1286 719,1288 716,1288 C719,1288 721,1290 721,1293 C721,1296 719,1298 716,1298 C719,1298 721,1300 721,1303 C721,1306 719,1308 716,1308 C719,1308 721,1310 721,1313 C721,1316 719,1318 716,1318 C719,1318 721,1320 721,1323 C721,1326 719,1328 716,1328 C716,1331 713,1333 711,1333 C708,1333 706,1331 706,1328 C706,1331 703,1333 701,1333 C698,1333 696,1331 696,1328 C696,1331 693,1333 691,1333 C688,1333 686,1331 686,1328 C686,1331 683,1333 681,1333 C678,1333 676,1331 676,1328 C676,1331 673,1333 671,1333 C668,1333 666,1331 666,1328 C666,1331 663,1333 661,1333 C658,1333 656,1331 656,1328 C653,1328 651,1326 651,1323 C651,1320 653,1318 656,1318 C653,1318 651,1316 651,1313 C651,1310 653,1308 656,1308 C653,1308 651,1306 651,1303 C651,1300 653,1298 656,1298 C653,1298 651,1296 651,1293 C651,1290 653,1288 656,1288 C653,1288 651,1286 651,1283 C651,1280 653,1278 656,1278 C653,1278 651,1276 651,1273 C651,1270 653,1268 656,1268 C653,1268 651,1266 651,1263 C651,1260 653,1258 656,1258 C653,1258 651,1256 651,1253 C651,1250 653,1248 656,1248 C653,1248 651,1246 651,1243 C651,1240 653,1238 656,1238 C653,1238 651,1236 651,1233 C651,1230 653,1228 656,1228 " fill="#FEFEFE" filter="url(#fqjcc5dqovgzw)" style="stroke: #000000; stroke-width: 1.5;"/><!--entity External System--><rect fill="#FEFECE" filter="url(#fqjcc5dqovgzw)" height="36.2969" style="stroke: #A80036; stroke-width: 1.5;" width="130" x="630" y="241"/><rect fill="#FEFECE" height="5" style="stroke: #A80036; stroke-width: 1.5;" width="10" x="625" y="246"/><rect fill="#FEFECE" height="5" style="stroke: #A80036; stroke-width: 1.5;" width="10" x="625" y="267.2969"/><text fill="#000000" font-family="sans-serif" font-size="14" lengthAdjust="spacingAndGlyphs" textLength="110" x="640" y="263.9951">External System</text><!--entity CLI--><rect fill="#FEFECE" filter="url(#fqjcc5dqovgzw)" height="36.2969" style="stroke: #A80036; stroke-width: 1.5;" width="40" x="1041" y="241"/><rect fill="#FEFECE" height="5" style="stroke: #A80036; stroke-width: 1.5;" width="10" x="1036" y="246"/><rect fill="#FEFECE" height="5" style="stroke: #A80036; stroke-width: 1.5;" width="10" x="1036" y="267.2969"/><text fill="#000000" font-family="sans-serif" font-size="14" lengthAdjust="spacingAndGlyphs" textLength="20" x="1051" y="263.9951">CLI</text><!--entity Admin Web Panel--><rect fill="#FEFECE" filter="url(#fqjcc5dqovgzw)" height="36.2969" style="stroke: #A80036; stroke-width: 1.5;" width="140" x="866" y="241"/><rect fill="#FEFECE" height="5" style="stroke: #A80036; stroke-width: 1.5;" width="10" x="861" y="246"/><rect fill="#FEFECE" height="5" style="stroke: #A80036; stroke-width: 1.5;" width="10" x="861" y="267.2969"/><text fill="#000000" font-family="sans-serif" font-size="14" lengthAdjust="spacingAndGlyphs" textLength="120" x="876" y="263.9951">Admin Web Panel</text><!--entity Data Router--><rect fill="#FEFECE" filter="url(#fqjcc5dqovgzw)" height="36.2969" style="stroke: #A80036; stroke-width: 1.5;" width="103" x="649.5" y="377"/><rect fill="#FEFECE" height="5" style="stroke: #A80036; stroke-width: 1.5;" width="10" x="644.5" y="382"/><rect fill="#FEFECE" height="5" style="stroke: #A80036; stroke-width: 1.5;" width="10" x="644.5" y="403.2969"/><text fill="#000000" font-family="sans-serif" font-size="14" lengthAdjust="spacingAndGlyphs" textLength="83" x="659.5" y="399.9951">Data Router</text><!--entity Schema Registry--><rect fill="#FEFECE" filter="url(#fqjcc5dqovgzw)" height="36.2969" style="stroke: #A80036; stroke-width: 1.5;" width="136" x="745" y="59"/><rect fill="#FEFECE" height="5" style="stroke: #A80036; stroke-width: 1.5;" width="10" x="740" y="64"/><rect fill="#FEFECE" height="5" style="stroke: #A80036; stroke-width: 1.5;" width="10" x="740" y="85.2969"/><text fill="#000000" font-family="sans-serif" font-size="14" lengthAdjust="spacingAndGlyphs" textLength="116" x="755" y="81.9951">Schema Registry</text><!--entity Leader Elector--><rect fill="#FEFECE" filter="url(#fqjcc5dqovgzw)" height="36.2969" style="stroke: #A80036; stroke-width: 1.5;" width="119" x="916.5" y="59"/><rect fill="#FEFECE" height="5" style="stroke: #A80036; stroke-width: 1.5;" width="10" x="911.5" y="64"/><rect fill="#FEFECE" height="5" style="stroke: #A80036; stroke-width: 1.5;" width="10" x="911.5" y="85.2969"/><text fill="#000000" font-family="sans-serif" font-size="14" lengthAdjust="spacingAndGlyphs" textLength="99" x="926.5" y="81.9951">Leader Elector</text><!--entity ANY--><ellipse cx="1143" cy="641" fill="#FEFECE" filter="url(#fqjcc5dqovgzw)" rx="8" ry="8" style="stroke: #A80036; stroke-width: 2.0;"/><text fill="#000000" font-family="sans-serif" font-size="14" lengthAdjust="spacingAndGlyphs" textLength="389" x="948.5" y="670.9951">any number of repositories (Document/Timeseries/Blob)</text><!--entity Command Service Doc--><rect fill="#FEFECE" filter="url(#fqjcc5dqovgzw)" height="36.2969" style="stroke: #A80036; stroke-width: 1.5;" width="177" x="61.5" y="623"/><rect fill="#FEFECE" height="5" style="stroke: #A80036; stroke-width: 1.5;" width="10" x="56.5" y="628"/><rect fill="#FEFECE" height="5" style="stroke: #A80036; stroke-width: 1.5;" width="10" x="56.5" y="649.2969"/><text fill="#000000" font-family="sans-serif" font-size="14" lengthAdjust="spacingAndGlyphs" textLength="157" x="71.5" y="645.9951">Command Service Doc</text><!--entity DB Shrinker Storage--><rect fill="#FEFECE" filter="url(#fqjcc5dqovgzw)" height="36.2969" style="stroke: #A80036; stroke-width: 1.5;" width="160" x="274" y="623"/><rect fill="#FEFECE" height="5" style="stroke: #A80036; stroke-width: 1.5;" width="10" x="269" y="628"/><rect fill="#FEFECE" height="5" style="stroke: #A80036; stroke-width: 1.5;" width="10" x="269" y="649.2969"/><text fill="#000000" font-family="sans-serif" font-size="14" lengthAdjust="spacingAndGlyphs" textLength="140" x="284" y="645.9951">DB Shrinker Storage</text><!--entity Query Service Doc--><rect fill="#FEFECE" filter="url(#fqjcc5dqovgzw)" height="36.2969" style="stroke: #A80036; stroke-width: 1.5;" width="147" x="279.5" y="898"/><rect fill="#FEFECE" height="5" style="stroke: #A80036; stroke-width: 1.5;" width="10" x="274.5" y="903"/><rect fill="#FEFECE" height="5" style="stroke: #A80036; stroke-width: 1.5;" width="10" x="274.5" y="924.2969"/><text fill="#000000" font-family="sans-serif" font-size="14" lengthAdjust="spacingAndGlyphs" textLength="127" x="289.5" y="920.9951">Query Service Doc</text><!--entity Document Data--><rect fill="#FEFECE" filter="url(#fqjcc5dqovgzw)" height="36.2969" style="stroke: #A80036; stroke-width: 1.5;" width="129" x="280.5" y="783"/><rect fill="#FEFECE" height="5" style="stroke: #A80036; stroke-width: 1.5;" width="10" x="275.5" y="788"/><rect fill="#FEFECE" height="5" style="stroke: #A80036; stroke-width: 1.5;" width="10" x="275.5" y="809.2969"/><text fill="#000000" font-family="sans-serif" font-size="14" lengthAdjust="spacingAndGlyphs" textLength="109" x="290.5" y="805.9951">Document Data</text><!--entity Command Service TS--><rect fill="#FEFECE" filter="url(#fqjcc5dqovgzw)" height="36.2969" style="stroke: #A80036; stroke-width: 1.5;" width="167" x="501.5" y="623"/><rect fill="#FEFECE" height="5" style="stroke: #A80036; stroke-width: 1.5;" width="10" x="496.5" y="628"/><rect fill="#FEFECE" height="5" style="stroke: #A80036; stroke-width: 1.5;" width="10" x="496.5" y="649.2969"/><text fill="#000000" font-family="sans-serif" font-size="14" lengthAdjust="spacingAndGlyphs" textLength="147" x="511.5" y="645.9951">Command Service TS</text><!--entity Query Service TS--><rect fill="#FEFECE" filter="url(#fqjcc5dqovgzw)" height="36.2969" style="stroke: #A80036; stroke-width: 1.5;" width="137" x="526.5" y="898"/><rect fill="#FEFECE" height="5" style="stroke: #A80036; stroke-width: 1.5;" width="10" x="521.5" y="903"/><rect fill="#FEFECE" height="5" style="stroke: #A80036; stroke-width: 1.5;" width="10" x="521.5" y="924.2969"/><text fill="#000000" font-family="sans-serif" font-size="14" lengthAdjust="spacingAndGlyphs" textLength="117" x="536.5" y="920.9951">Query Service TS</text><!--entity Timeseries Data--><rect fill="#FEFECE" filter="url(#fqjcc5dqovgzw)" height="36.2969" style="stroke: #A80036; stroke-width: 1.5;" width="132" x="514" y="783"/><rect fill="#FEFECE" height="5" style="stroke: #A80036; stroke-width: 1.5;" width="10" x="509" y="788"/><rect fill="#FEFECE" height="5" style="stroke: #A80036; stroke-width: 1.5;" width="10" x="509" y="809.2969"/><text fill="#000000" font-family="sans-serif" font-size="14" lengthAdjust="spacingAndGlyphs" textLength="112" x="524" y="805.9951">Timeseries Data</text><!--entity Command Service Blob--><rect fill="#FEFECE" filter="url(#fqjcc5dqovgzw)" height="36.2969" style="stroke: #A80036; stroke-width: 1.5;" width="180" x="726" y="623"/><rect fill="#FEFECE" height="5" style="stroke: #A80036; stroke-width: 1.5;" width="10" x="721" y="628"/><rect fill="#FEFECE" height="5" style="stroke: #A80036; stroke-width: 1.5;" width="10" x="721" y="649.2969"/><text fill="#000000" font-family="sans-serif" font-size="14" lengthAdjust="spacingAndGlyphs" textLength="160" x="736" y="645.9951">Command Service Blob</text><!--entity Query Service Blob--><rect fill="#FEFECE" filter="url(#fqjcc5dqovgzw)" height="36.2969" style="stroke: #A80036; stroke-width: 1.5;" width="150" x="730" y="898"/><rect fill="#FEFECE" height="5" style="stroke: #A80036; stroke-width: 1.5;" width="10" x="725" y="903"/><rect fill="#FEFECE" height="5" style="stroke: #A80036; stroke-width: 1.5;" width="10" x="725" y="924.2969"/><text fill="#000000" font-family="sans-serif" font-size="14" lengthAdjust="spacingAndGlyphs" textLength="130" x="740" y="920.9951">Query Service Blob</text><!--entity Blob Data--><rect fill="#FEFECE" filter="url(#fqjcc5dqovgzw)" height="36.2969" style="stroke: #A80036; stroke-width: 1.5;" width="87" x="770.5" y="783"/><rect fill="#FEFECE" height="5" style="stroke: #A80036; stroke-width: 1.5;" width="10" x="765.5" y="788"/><rect fill="#FEFECE" height="5" style="stroke: #A80036; stroke-width: 1.5;" width="10" x="765.5" y="809.2969"/><text fill="#000000" font-family="sans-serif" font-size="14" lengthAdjust="spacingAndGlyphs" textLength="67" x="780.5" y="805.9951">Blob Data</text><!--entity Query Router--><rect fill="#FEFECE" filter="url(#fqjcc5dqovgzw)" height="36.2969" style="stroke: #A80036; stroke-width: 1.5;" width="112" x="629" y="1120"/><rect fill="#FEFECE" height="5" style="stroke: #A80036; stroke-width: 1.5;" width="10" x="624" y="1125"/><rect fill="#FEFECE" height="5" style="stroke: #A80036; stroke-width: 1.5;" width="10" x="624" y="1146.2969"/><text fill="#000000" font-family="sans-serif" font-size="14" lengthAdjust="spacingAndGlyphs" textLength="92" x="639" y="1142.9951">Query Router</text><!--entity User--><ellipse cx="685" cy="1247" fill="#FEFECE" filter="url(#fqjcc5dqovgzw)" rx="8" ry="8" style="stroke: #A80036; stroke-width: 2.0;"/><path d="M685,1255 L685,1282 M672,1263 L698,1263 M685,1282 L672,1297 M685,1282 L698,1297 " fill="none" filter="url(#fqjcc5dqovgzw)" style="stroke: #A80036; stroke-width: 2.0;"/><text fill="#000000" font-family="sans-serif" font-size="14" lengthAdjust="spacingAndGlyphs" textLength="32" x="669" y="1316.9951">User</text><!--entity SRDoc--><ellipse cx="605" cy="395" fill="#FEFECE" filter="url(#fqjcc5dqovgzw)" rx="8" ry="8" style="stroke: #A80036; stroke-width: 2.0;"/><text fill="#000000" font-family="sans-serif" font-size="14" lengthAdjust="spacingAndGlyphs" textLength="116" x="547" y="424.9951">Schema Registry</text><!--entity SRTS--><ellipse cx="785" cy="1138" fill="#FEFECE" filter="url(#fqjcc5dqovgzw)" rx="8" ry="8" style="stroke: #A80036; stroke-width: 2.0;"/><text fill="#000000" font-family="sans-serif" font-size="14" lengthAdjust="spacingAndGlyphs" textLength="116" x="727" y="1167.9951">Schema Registry</text><!--entity API--><rect fill="#FEFECE" filter="url(#fqjcc5dqovgzw)" height="36.2969" style="stroke: #A80036; stroke-width: 1.5;" width="41" x="792.5" y="377"/><rect fill="#FEFECE" height="5" style="stroke: #A80036; stroke-width: 1.5;" width="10" x="787.5" y="382"/><rect fill="#FEFECE" height="5" style="stroke: #A80036; stroke-width: 1.5;" width="10" x="787.5" y="403.2969"/><text fill="#000000" font-family="sans-serif" font-size="14" lengthAdjust="spacingAndGlyphs" textLength="21" x="802.5" y="399.9951">API</text><!--link Data Router to API--><path d="M752.66,395 C763.19,395 775.67,395 775.67,395 C775.67,395 783.6,395 792.15,395 " fill="none" id="Data Router-API" style="stroke: #A80036; stroke-width: 1.0; stroke-dasharray: 7.0,7.0;"/><!--link SRDoc to Data Router--><path d="M614.08,395 C623.54,395 637,395 637,395 C637,395 642.7,395 649.28,395 " fill="none" id="SRDoc-Data Router" style="stroke: #A80036; stroke-width: 1.0; stroke-dasharray: 7.0,7.0;"/><!--link Schema Registry to API--><path d="M813,95.44 C813,150.82 813,322.24 813,377 " fill="none" id="Schema Registry-API" style="stroke: #A80036; stroke-width: 1.0; stroke-dasharray: 7.0,7.0;"/><!--link Schema Registry to Leader Elector--><path d="M881.04,77 C892.49,77 908.19,77 916.31,77 " fill="none" id="Schema Registry-Leader Elector" style="stroke: #A80036; stroke-width: 1.0; stroke-dasharray: 7.0,7.0;"/><!--link Query Router to SRTS--><path d="M741.12,1138 C746.98,1138 751.67,1138 751.67,1138 C751.67,1138 766.02,1138 775.89,1138 " fill="none" id="Query Router-SRTS" style="stroke: #A80036; stroke-width: 1.0; stroke-dasharray: 7.0,7.0;"/><!--link Admin Web Panel to API--><path d="M920.17,277.24 C897.66,301.77 856.45,346.67 832.22,373.07 " fill="none" id="Admin Web Panel-API" style="stroke: #A80036; stroke-width: 1.0;"/><polygon fill="#A80036" points="828.77,376.82,837.796,372.879,832.1447,373.1307,831.8931,367.4794,828.77,376.82" style="stroke: #A80036; stroke-width: 1.0;"/><text fill="#000000" font-family="sans-serif" font-size="13" lengthAdjust="spacingAndGlyphs" textLength="56" x="890" y="322.0669">GraphQL</text><!--link External System to Data Router--><path d="M695.77,277.24 C696.85,301.37 698.81,345.2 700,371.75 " fill="none" id="External System-Data Router" style="stroke: #A80036; stroke-width: 1.0;"/><polygon fill="#A80036" points="700.23,376.82,703.8148,367.6467,700.0017,371.8252,695.8232,368.0121,700.23,376.82" style="stroke: #A80036; stroke-width: 1.0;"/><text fill="#000000" font-family="sans-serif" font-size="13" lengthAdjust="spacingAndGlyphs" textLength="21" x="698" y="322.0669">MQ</text><!--link Data Router to Command Service Doc--><path d="M672.14,413.15 C653.23,424.39 632,437 632,437 C632,437 257,532 257,532 C257,532 202,587.51 170.86,618.94 " fill="none" id="Data Router-Command Service Doc" style="stroke: #A80036; stroke-width: 1.0;"/><polygon fill="#A80036" points="167.19,622.65,176.3752,619.0959,170.7184,619.1073,170.707,613.4505,167.19,622.65" style="stroke: #A80036; stroke-width: 1.0;"/><text fill="#000000" font-family="sans-serif" font-size="13" lengthAdjust="spacingAndGlyphs" textLength="21" x="476" y="489.0669">MQ</text><!--link Data Router to Command Service TS--><path d="M692.84,413.16 C672.25,456.47 618.19,570.19 595.38,618.16 " fill="none" id="Data Router-Command Service TS" style="stroke: #A80036; stroke-width: 1.0;"/><polygon fill="#A80036" points="593.15,622.86,600.6316,616.4549,595.3002,618.346,593.4092,613.0146,593.15,622.86" style="stroke: #A80036; stroke-width: 1.0;"/><text fill="#000000" font-family="sans-serif" font-size="13" lengthAdjust="spacingAndGlyphs" textLength="21" x="663" y="489.0669">MQ</text><!--link Data Router to Command Service Blob--><path d="M709.09,413.16 C729.5,456.47 783.1,570.19 805.71,618.16 " fill="none" id="Data Router-Command Service Blob" style="stroke: #A80036; stroke-width: 1.0;"/><polygon fill="#A80036" points="807.92,622.86,807.6996,613.0136,805.7876,618.3375,800.4636,616.4255,807.92,622.86" style="stroke: #A80036; stroke-width: 1.0;"/><text fill="#000000" font-family="sans-serif" font-size="13" lengthAdjust="spacingAndGlyphs" textLength="21" x="747" y="489.0669">MQ</text><!--link Data Router to ANY--><path d="M731.95,413.15 C752.23,424.39 775,437 775,437 C775,437 1063.23,596 1129.52,632.56 " fill="none" id="Data Router-ANY" style="stroke: #A80036; stroke-width: 1.0;"/><polygon fill="#A80036" points="1133.9,634.98,1127.9447,627.1356,1129.5198,632.5688,1124.0867,634.1439,1133.9,634.98" style="stroke: #A80036; stroke-width: 1.0;"/><text fill="#000000" font-family="sans-serif" font-size="13" lengthAdjust="spacingAndGlyphs" textLength="21" x="876" y="489.0669">MQ</text><!--link Command Service Doc to Document Data--><path d="M171.24,659.21 C207.43,688.53 280.89,748.06 319.69,779.49 " fill="none" id="Command Service Doc-Document Data" style="stroke: #A80036; stroke-width: 1.0;"/><polygon fill="#A80036" points="323.79,782.81,319.3079,774.0401,319.9024,779.6657,314.2769,780.2602,323.79,782.81" style="stroke: #A80036; stroke-width: 1.0;"/><text fill="#000000" font-family="sans-serif" font-size="13" lengthAdjust="spacingAndGlyphs" textLength="26" x="242" y="713.0669">SQL</text><!--link Command Service TS to Timeseries Data--><path d="M584.46,659.21 C583.55,687.94 581.72,745.66 580.71,777.55 " fill="none" id="Command Service TS-Timeseries Data" style="stroke: #A80036; stroke-width: 1.0;"/><polygon fill="#A80036" points="580.54,782.81,584.8207,773.9401,580.6971,777.8125,576.8247,773.6888,580.54,782.81" style="stroke: #A80036; stroke-width: 1.0;"/><text fill="#000000" font-family="sans-serif" font-size="13" lengthAdjust="spacingAndGlyphs" textLength="32" x="584" y="713.0669">REST</text><!--link Command Service Blob to Blob Data--><path d="M808.63,659.09 C801.26,676.2 791,700 791,700 C791,700 791,717 791,717 C791,717 801.02,753.16 807.83,777.75 " fill="none" id="Command Service Blob-Blob Data" style="stroke: #A80036; stroke-width: 1.0;"/><polygon fill="#A80036" points="809.23,782.8,810.6991,773.0613,807.9036,777.9792,802.9857,775.1836,809.23,782.8" style="stroke: #A80036; stroke-width: 1.0;"/><text fill="#000000" font-family="sans-serif" font-size="13" lengthAdjust="spacingAndGlyphs" textLength="32" x="792" y="713.0669">REST</text><!--link DB Shrinker Storage to Document Data--><path d="M353.02,659.21 C351.38,687.94 348.1,745.66 346.28,777.55 " fill="none" id="DB Shrinker Storage-Document Data" style="stroke: #A80036; stroke-width: 1.0;"/><polygon fill="#A80036" points="345.98,782.81,350.4884,774.0536,346.2661,777.8182,342.5015,773.5959,345.98,782.81" style="stroke: #A80036; stroke-width: 1.0;"/><text fill="#000000" font-family="sans-serif" font-size="13" lengthAdjust="spacingAndGlyphs" textLength="26" x="351" y="713.0669">SQL</text><!--link Document Data to Query Service Doc--><path d="M346.59,824.4 C348.11,845.93 350.38,878.03 351.77,897.68 " fill="none" id="Document Data-Query Service Doc" style="stroke: #A80036; stroke-width: 1.0;"/><polygon fill="#A80036" points="346.22,819.16,342.8469,828.4132,346.563,824.1482,350.828,827.8644,346.22,819.16" style="stroke: #A80036; stroke-width: 1.0;"/><text fill="#000000" font-family="sans-serif" font-size="13" lengthAdjust="spacingAndGlyphs" textLength="26" x="350" y="864.0669">SQL</text><!--link Timeseries Data to Query Service TS--><path d="M582.94,824.12 C585.8,845.66 590.08,877.94 592.7,897.68 " fill="none" id="Timeseries Data-Query Service TS" style="stroke: #A80036; stroke-width: 1.0;"/><polygon fill="#A80036" points="582.28,819.16,579.4974,828.6076,582.9371,824.1166,587.428,827.5563,582.28,819.16" style="stroke: #A80036; stroke-width: 1.0;"/><text fill="#000000" font-family="sans-serif" font-size="13" lengthAdjust="spacingAndGlyphs" textLength="32" x="589" y="864.0669">REST</text><!--link Blob Data to Query Service Blob--><path d="M800.38,823.53 C792.06,836.69 783,851 783,851 C783,851 783,868 783,868 C783,868 790.65,884.35 796.93,897.77 " fill="none" id="Blob Data-Query Service Blob" style="stroke: #A80036; stroke-width: 1.0;"/><polygon fill="#A80036" points="803.16,819.14,794.9631,824.5999,800.483,823.363,801.7199,828.883,803.16,819.14" style="stroke: #A80036; stroke-width: 1.0;"/><text fill="#000000" font-family="sans-serif" font-size="13" lengthAdjust="spacingAndGlyphs" textLength="32" x="784" y="864.0669">REST</text><!--link Query Service Doc to Query Router--><path d="M383.28,937.06 C447.91,979.89 598.4,1079.61 659.01,1119.78 " fill="none" id="Query Service Doc-Query Router" style="stroke: #A80036; stroke-width: 1.0;"/><polygon fill="#A80036" points="378.78,934.08,384.0826,942.3796,382.9512,936.837,388.4938,935.7056,378.78,934.08" style="stroke: #A80036; stroke-width: 1.0;"/><text fill="#000000" font-family="sans-serif" font-size="13" lengthAdjust="spacingAndGlyphs" textLength="33" x="536" y="1034.0669">gRPC</text><!--link Query Service TS to Query Router--><path d="M604.04,939.09 C621.99,982.98 661.8,1080.3 677.97,1119.82 " fill="none" id="Query Service TS-Query Router" style="stroke: #A80036; stroke-width: 1.0;"/><polygon fill="#A80036" points="602.06,934.26,601.7513,944.104,603.9465,938.8905,609.16,941.0856,602.06,934.26" style="stroke: #A80036; stroke-width: 1.0;"/><text fill="#000000" font-family="sans-serif" font-size="13" lengthAdjust="spacingAndGlyphs" textLength="33" x="645" y="1034.0669">gRPC</text><!--link Query Service Blob to Query Router--><path d="M793.09,938.83 C769.23,982.58 715.97,1080.22 694.37,1119.82 " fill="none" id="Query Service Blob-Query Router" style="stroke: #A80036; stroke-width: 1.0;"/><polygon fill="#A80036" points="795.58,934.26,787.7587,940.2457,793.1857,938.6495,794.7819,944.0765,795.58,934.26" style="stroke: #A80036; stroke-width: 1.0;"/><text fill="#000000" font-family="sans-serif" font-size="13" lengthAdjust="spacingAndGlyphs" textLength="33" x="748" y="1034.0669">gRPC</text><!--link ANY to Query Router--><path d="M1136.19,654.66 C1116.02,692.15 1058,800 1058,800 C1058,800 1058,800 1058,1030.5 C1058,1030.5 759,1077 759,1077 C759,1077 727.89,1102.23 706.01,1119.97 " fill="none" id="ANY-Query Router" style="stroke: #A80036; stroke-width: 1.0;"/><polygon fill="#A80036" points="1138.67,650.05,1130.8941,656.0944,1136.3089,654.4574,1137.9459,659.8722,1138.67,650.05" style="stroke: #A80036; stroke-width: 1.0;"/><text fill="#000000" font-family="sans-serif" font-size="13" lengthAdjust="spacingAndGlyphs" textLength="33" x="1059" y="920.5669">gRPC</text><!--link Query Router to User--><path d="M685,1161.45 C685,1181.75 685,1212.14 685,1236.73 " fill="none" id="Query Router-User" style="stroke: #A80036; stroke-width: 1.0;"/><polygon fill="#A80036" points="685,1156.26,681,1165.26,685,1161.26,689,1165.26,685,1156.26" style="stroke: #A80036; stroke-width: 1.0;"/><text fill="#000000" font-family="sans-serif" font-size="13" lengthAdjust="spacingAndGlyphs" textLength="32" x="686" y="1201.0669">REST</text></g></svg>