<?xml version="1.0" encoding="UTF-8" standalone="no"?><svg xmlns="http://www.w3.org/2000/svg" xmlns:xlink="http://www.w3.org/1999/xlink" contentScriptType="application/ecmascript" contentStyleType="text/css" height="1353px" preserveAspectRatio="none" style="width:1372px;height:1353px;background:#FEFEFE;" version="1.1" viewBox="0 0 1372 1353" width="1372px" zoomAndPan="magnify"><defs><filter height="300%" id="fqjcc5dqovgzw" width="300%" x="-1" y="-1"><feGaussianBlur result="blurOut" stdDeviation="2.0"/><feColorMatrix in="blurOut" result="blurOut2" type="matrix" values="0 0 0 0 0 0 0 0 0 0 0 0 0 0 0 0 0 0 .4 0"/><feOffset dx="4.0" dy="4.0" in="blurOut2" result="blurOut3"/><feBlend in="SourceGraphic" in2="blurOut3" mode="normal"/></filter></defs><g><path d="M623.1938,233.6144 C626.5392,227.6892 630.433,228.6329 634.1735,233.2011 C637.2501,226.2037 642.454,226.3112 646.666,232.091 C650.3893,226.343 656.0308,225.4573 660.0204,231.7967 C663.0517,225.8063 667.5511,224.5584 672.2165,230.0631 C675.8493,223.5484 679.7539,223.3116 684.7296,228.6447 C688.7649,223.2238 692.6924,223.2656 696.372,229.0154 C700.8124,223.8931 705.1187,222.707 708.8154,229.7746 C712.7156,224.0173 716.957,223.9804 721.3648,229.1941 C725.93,224.8721 730.6492,225.7324 732.8728,231.7902 C736.8815,226.7363 741.4034,225.1386 745.3412,231.8652 C748.531,227.3033 754.2786,227.3847 757.0198,232.4115 C760.9969,227.525 767.3039,227.6358 769.9318,233.9649 C775.6871,236.6105 777.6945,241.1405 772.3307,246.0021 C779.3936,249.8443 779.3757,255.0181 773.3878,259.8562 C779.0049,264.8908 779.5311,269.4361 772.7961,273.9522 C777.2496,279.9726 775.759,283.9261 768.6362,285.9239 C766.3012,291.4243 761.3093,291.8631 757.3614,287.8318 C753.2557,294.0541 748.9542,293.9141 744.2232,288.5402 C740.8454,293.9097 736.5669,294.6197 733.0914,288.636 C729.4279,296.1644 723.6186,294.5551 719.3836,289.2463 C715.9948,295.927 711.9892,296.0525 707.4962,290.3023 C704.5138,296.854 698.7863,296.0726 695.3886,290.7249 C692.225,296.7813 686.9328,297.8481 683.0398,291.4481 C679.5914,297.0302 674.1353,295.8456 672.0009,290.1607 C668.3131,295.4302 661.7508,295.5446 658.5203,289.6107 C653.7321,294.0885 650.1455,292.3339 647.934,286.8676 C643.2655,293.7446 638.8325,292.2432 634.7469,286.2693 C630.6936,292.0776 625.4271,291.0459 622.4486,285.1409 C615.5676,282.1575 615.3595,276.2948 621.2128,272.1042 C616.3016,269.3224 615.2617,264.0122 621.0451,261.0679 C614.5222,256.8807 615.265,250.6298 621.6287,246.9762 C614.9804,242.1231 616.9364,236.9558 623.1938,233.6144 " fill="#FEFEFE" style="stroke: #000000; stroke-width: 1.5;"/><!--MD5=[4f3cd12709c786a0a2f762fcffec9368]
cluster Management Layer--><rect fill="#FEFEFE" filter="url(#fqjcc5dqovgzw)" height="87" style="stroke: #000000; stroke-width: 1.5;" width="247" x="850" y="206"/><path d="M1010,207 L1010,215.2969 L1000,225.2969 L850,225.2969 " fill="none" style="stroke: #000000; stroke-width: 1.5;"/><text fill="#000000" font-family="sans-serif" font-size="14" font-weight="bold" lengthAdjust="spacingAndGlyphs" textLength="150" x="853" y="219.9951">Management Layer</text><!--MD5=[819b80aa6b43c368ea8af63696246069]
cluster Ingestion Layer--><rect fill="#FEFEFE" filter="url(#fqjcc5dqovgzw)" height="87" style="stroke: #000000; stroke-width: 1.5;" width="138" x="632" y="342"/><path d="M764,343 L764,351.2969 L754,361.2969 L632,361.2969 " fill="none" style="stroke: #000000; stroke-width: 1.5;"/><text fill="#000000" font-family="sans-serif" font-size="14" font-weight="bold" lengthAdjust="spacingAndGlyphs" textLength="122" x="635" y="355.9951">Ingestion Layer</text><!--MD5=[88ea08e46b2affc2da7be5165fca9cff]
cluster Configuration Layer--><rect fill="#FEFEFE" filter="url(#fqjcc5dqovgzw)" height="87" style="stroke: #000000; stroke-width: 1.5;" width="323" x="729" y="24"/><path d="M895,25 L895,33.2969 L885,43.2969 L729,43.2969 " fill="none" style="stroke: #000000; stroke-width: 1.5;"/><text fill="#000000" font-family="sans-serif" font-size="14" font-weight="bold" lengthAdjust="spacingAndGlyphs" textLength="156" x="732" y="37.9951">Configuration Layer</text><!--MD5=[07cae965747ee1c7bffd7fd64e75133c]
cluster Storage Layer--><rect fill="#FEFEFE" filter="url(#fqjcc5dqovgzw)" height="434" style="stroke: #000000; stroke-width: 1.5;" width="1339" x="22" y="540"/><path d="M143,541 L143,549.2969 L133,559.2969 L22,559.2969 " fill="none" style="stroke: #000000; stroke-width: 1.5;"/><text fill="#000000" font-family="sans-serif" font-size="14" font-weight="bold" lengthAdjust="spacingAndGlyphs" textLength="111" x="25" y="553.9951">Storage Layer</text><!--MD5=[5ead9356182767515f472cd211495582]
cluster Repository Doc--><polygon fill="#FEFEFE" filter="url(#fqjcc5dqovgzw)" points="46,593,56,583,450,583,450,940,440,950,46,950,46,593" style="stroke: #000000; stroke-width: 1.5;"/><line style="stroke: #000000; stroke-width: 1.5;" x1="440" x2="449" y1="593" y2="584"/><line style="stroke: #000000; stroke-width: 1.5;" x1="46" x2="440" y1="593" y2="593"/><line style="stroke: #000000; stroke-width: 1.5;" x1="440" x2="440" y1="593" y2="950"/><text fill="#000000" font-family="sans-serif" font-size="14" font-weight="bold" lengthAdjust="spacingAndGlyphs" textLength="120" x="184" y="608.9951">Repository Doc</text><!--MD5=[1272c6417ae16a66c4a884d85e06d826]
cluster Postgres--><path d="M264,743 C264,733 345,733 345,733 C345,733 426,733 426,743 L426,825 C426,835 345,835 345,835 C345,835 264,835 264,825 L264,743 " fill="#FEFEFE" filter="url(#fqjcc5dqovgzw)" style="stroke: #000000; stroke-width: 1.5;"/><path d="M264,743 C264,753 345,753 345,753 C345,753 426,753 426,743 " fill="none" style="stroke: #000000; stroke-width: 1.5;"/><text fill="#000000" font-family="sans-serif" font-size="14" font-weight="bold" lengthAdjust="spacingAndGlyphs" textLength="71" x="309.5" y="767.9951">Postgres</text><!--MD5=[62d0db380be885a69501035c7119932b]
cluster Repository TS--><polygon fill="#FEFEFE" filter="url(#fqjcc5dqovgzw)" points="474,593,484,583,686,583,686,940,676,950,474,950,474,593" style="stroke: #000000; stroke-width: 1.5;"/><line style="stroke: #000000; stroke-width: 1.5;" x1="676" x2="685" y1="593" y2="584"/><line style="stroke: #000000; stroke-width: 1.5;" x1="474" x2="676" y1="593" y2="593"/><line style="stroke: #000000; stroke-width: 1.5;" x1="676" x2="676" y1="593" y2="950"/><text fill="#000000" font-family="sans-serif" font-size="14" font-weight="bold" lengthAdjust="spacingAndGlyphs" textLength="110" x="521" y="608.9951">Repository TS</text><!--MD5=[0c8ae09e6345b29318d4189ca7d0a290]
cluster Victoria Metrics--><path d="M498,743 C498,733 580,733 580,733 C580,733 662,733 662,743 L662,825 C662,835 580,835 580,835 C580,835 498,835 498,825 L498,743 " fill="#FEFEFE" filter="url(#fqjcc5dqovgzw)" style="stroke: #000000; stroke-width: 1.5;"/><path d="M498,743 C498,753 580,753 580,753 C580,753 662,753 662,743 " fill="none" style="stroke: #000000; stroke-width: 1.5;"/><text fill="#000000" font-family="sans-serif" font-size="14" font-weight="bold" lengthAdjust="spacingAndGlyphs" textLength="123" x="518.5" y="767.9951">Victoria Metrics</text><!--MD5=[920cc70fa76ddf32fbb5cb3e790d6fd9]
cluster Repository Blob--><polygon fill="#FEFEFE" filter="url(#fqjcc5dqovgzw)" points="710,593,720,583,922,583,922,940,912,950,710,950,710,593" style="stroke: #000000; stroke-width: 1.5;"/><line style="stroke: #000000; stroke-width: 1.5;" x1="912" x2="921" y1="593" y2="584"/><line style="stroke: #000000; stroke-width: 1.5;" x1="710" x2="912" y1="593" y2="593"/><line style="stroke: #000000; stroke-width: 1.5;" x1="912" x2="912" y1="593" y2="950"/><text fill="#000000" font-family="sans-serif" font-size="14" font-weight="bold" lengthAdjust="spacingAndGlyphs" textLength="124" x="750" y="608.9951">Repository Blob</text><!--MD5=[6793b85780ee156dd406ed731f2c5a96]
cluster Sled DB--><path d="M754,743 C754,733 814,733 814,733 C814,733 874,733 874,743 L874,825 C874,835 814,835 814,835 C814,835 754,835 754,825 L754,743 " fill="#FEFEFE" filter="url(#fqjcc5dqovgzw)" style="stroke: #000000; stroke-width: 1.5;"/><path d="M754,743 C754,753 814,753 814,753 C814,753 874,753 874,743 " fill="none" style="stroke: #000000; stroke-width: 1.5;"/><text fill="#000000" font-family="sans-serif" font-size="14" font-weight="bold" lengthAdjust="spacingAndGlyphs" textLength="60" x="784" y="767.9951">Sled DB</text><!--MD5=[2fc347c6367537f508ab77303b909c49]
cluster Retrieval Layer--><rect fill="#FEFEFE" filter="url(#fqjcc5dqovgzw)" height="87" style="stroke: #000000; stroke-width: 1.5;" width="144" x="613" y="1085"/><path d="M741,1086 L741,1094.2969 L731,1104.2969 L613,1104.2969 " fill="none" style="stroke: #000000; stroke-width: 1.5;"/><text fill="#000000" font-family="sans-serif" font-size="14" font-weight="bold" lengthAdjust="spacingAndGlyphs" textLength="118" x="616" y="1098.9951">Retrieval Layer</text><path d="M662.2077,1230.1669 C664.8626,1222.9418 668.9771,1222.8199 674.3192,1227.413 C677.1011,1220.0824 681.011,1219.8034 686.4484,1224.8003 C691.7121,1220.7203 696.1348,1222.4695 698.3485,1228.4191 C703.4442,1222.6123 707.2732,1222.8912 710.5187,1230.1434 C715.9135,1233.2648 717.0155,1237.4586 711.6919,1241.6708 C718.8809,1245.1627 718.119,1249.7423 713.0593,1254.5361 C718.7583,1258.3534 718.4858,1262.8742 712.6649,1266.3054 C718.233,1268.6194 719.2372,1273.4835 715.0727,1277.8308 C720.273,1282.1946 719.9164,1288.7207 713.0596,1291.2797 C718.1243,1294.6664 717.7076,1299.632 712.8367,1302.8269 C717.6864,1306.573 717.9199,1312.2078 711.6318,1314.8365 C715.9485,1319.728 716.1835,1323.3763 709.4229,1326.0943 C709.163,1332.2776 705.1821,1336.5008 698.7124,1332.8737 C696.975,1340.147 692.9038,1341.2047 687.0725,1337.0399 C681.4285,1340.7542 675.648,1339.4133 674.4623,1331.9915 C668.3574,1336.7532 663.8361,1334.9672 662.7415,1327.2759 C656.1593,1324.1164 655.6052,1320.1862 661.363,1315.5731 C655.3976,1311.1104 656.4891,1306.9774 661.7102,1302.8191 C654.9934,1300.0731 655.463,1296.2904 659.5222,1291.4674 C653.5325,1288.2198 652.85,1282.4814 659.1764,1278.8951 C653.2375,1275.6884 652.3405,1269.5393 659.2256,1266.3831 C653.5232,1261.5538 655.0106,1256.7375 661.1709,1253.7322 C656.0978,1250.2985 656.916,1245.4927 662.2584,1243.1271 C655.6,1239.334 655.7819,1234.0112 662.2077,1230.1669 " fill="#FEFEFE" style="stroke: #000000; stroke-width: 1.5;"/><!--MD5=[5038dd236865a5ae6bcce06bf5b06df8]
entity External System--><rect fill="#FEFECE" filter="url(#fqjcc5dqovgzw)" height="36.2969" style="stroke: #A80036; stroke-width: 1.5;" width="130" x="630" y="241"/><rect fill="#FEFECE" height="5" style="stroke: #A80036; stroke-width: 1.5;" width="10" x="625" y="246"/><rect fill="#FEFECE" height="5" style="stroke: #A80036; stroke-width: 1.5;" width="10" x="625" y="267.2969"/><text fill="#000000" font-family="sans-serif" font-size="14" lengthAdjust="spacingAndGlyphs" textLength="110" x="640" y="263.9951">External System</text><!--MD5=[df6a39b053164d23cc3ecae9c3484a54]
entity CLI--><rect fill="#FEFECE" filter="url(#fqjcc5dqovgzw)" height="36.2969" style="stroke: #A80036; stroke-width: 1.5;" width="40" x="1041" y="241"/><rect fill="#FEFECE" height="5" style="stroke: #A80036; stroke-width: 1.5;" width="10" x="1036" y="246"/><rect fill="#FEFECE" height="5" style="stroke: #A80036; stroke-width: 1.5;" width="10" x="1036" y="267.2969"/><text fill="#000000" font-family="sans-serif" font-size="14" lengthAdjust="spacingAndGlyphs" textLength="20" x="1051" y="263.9951">CLI</text><!--MD5=[86eaf70fa6e13b125327861aad3d23fb]
entity Admin Web Panel--><rect fill="#FEFECE" filter="url(#fqjcc5dqovgzw)" height="36.2969" style="stroke: #A80036; stroke-width: 1.5;" width="140" x="866" y="241"/><rect fill="#FEFECE" height="5" style="stroke: #A80036; stroke-width: 1.5;" width="10" x="861" y="246"/><rect fill="#FEFECE" height="5" style="stroke: #A80036; stroke-width: 1.5;" width="10" x="861" y="267.2969"/><text fill="#000000" font-family="sans-serif" font-size="14" lengthAdjust="spacingAndGlyphs" textLength="120" x="876" y="263.9951">Admin Web Panel</text><!--MD5=[cf888c605eeafccad47aa0425167adf4]
entity Data Router--><rect fill="#FEFECE" filter="url(#fqjcc5dqovgzw)" height="36.2969" style="stroke: #A80036; stroke-width: 1.5;" width="103" x="649.5" y="377"/><rect fill="#FEFECE" height="5" style="stroke: #A80036; stroke-width: 1.5;" width="10" x="644.5" y="382"/><rect fill="#FEFECE" height="5" style="stroke: #A80036; stroke-width: 1.5;" width="10" x="644.5" y="403.2969"/><text fill="#000000" font-family="sans-serif" font-size="14" lengthAdjust="spacingAndGlyphs" textLength="83" x="659.5" y="399.9951">Data Router</text><!--MD5=[3e9c3ed130f3cb255f17d42b3720edd3]
entity Schema Registry--><rect fill="#FEFECE" filter="url(#fqjcc5dqovgzw)" height="36.2969" style="stroke: #A80036; stroke-width: 1.5;" width="136" x="745" y="59"/><rect fill="#FEFECE" height="5" style="stroke: #A80036; stroke-width: 1.5;" width="10" x="740" y="64"/><rect fill="#FEFECE" height="5" style="stroke: #A80036; stroke-width: 1.5;" width="10" x="740" y="85.2969"/><text fill="#000000" font-family="sans-serif" font-size="14" lengthAdjust="spacingAndGlyphs" textLength="116" x="755" y="81.9951">Schema Registry</text><!--MD5=[133e589d77d0d33691ece5141ffc7c45]
entity Leader Elector--><rect fill="#FEFECE" filter="url(#fqjcc5dqovgzw)" height="36.2969" style="stroke: #A80036; stroke-width: 1.5;" width="119" x="916.5" y="59"/><rect fill="#FEFECE" height="5" style="stroke: #A80036; stroke-width: 1.5;" width="10" x="911.5" y="64"/><rect fill="#FEFECE" height="5" style="stroke: #A80036; stroke-width: 1.5;" width="10" x="911.5" y="85.2969"/><text fill="#000000" font-family="sans-serif" font-size="14" lengthAdjust="spacingAndGlyphs" textLength="99" x="926.5" y="81.9951">Leader Elector</text><!--MD5=[7b29630a198ecd6a83ebfc2e8cfa63fb]
entity ANY--><ellipse cx="1143" cy="641" fill="#FEFECE" filter="url(#fqjcc5dqovgzw)" rx="8" ry="8" style="stroke: #A80036; stroke-width: 2.0;"/><text fill="#000000" font-family="sans-serif" font-size="14" lengthAdjust="spacingAndGlyphs" textLength="389" x="948.5" y="670.9951">any number of repositories (Document/Timeseries/Blob)</text><!--MD5=[66733809daf1cf39667011dc962479ce]
entity Command Service Doc--><rect fill="#FEFECE" filter="url(#fqjcc5dqovgzw)" height="36.2969" style="stroke: #A80036; stroke-width: 1.5;" width="177" x="61.5" y="623"/><rect fill="#FEFECE" height="5" style="stroke: #A80036; stroke-width: 1.5;" width="10" x="56.5" y="628"/><rect fill="#FEFECE" height="5" style="stroke: #A80036; stroke-width: 1.5;" width="10" x="56.5" y="649.2969"/><text fill="#000000" font-family="sans-serif" font-size="14" lengthAdjust="spacingAndGlyphs" textLength="157" x="71.5" y="645.9951">Command Service Doc</text><!--MD5=[f13c9fc1a647541f2d653d1b5ee89536]
entity DB Shrinker Storage--><rect fill="#FEFECE" filter="url(#fqjcc5dqovgzw)" height="36.2969" style="stroke: #A80036; stroke-width: 1.5;" width="160" x="274" y="623"/><rect fill="#FEFECE" height="5" style="stroke: #A80036; stroke-width: 1.5;" width="10" x="269" y="628"/><rect fill="#FEFECE" height="5" style="stroke: #A80036; stroke-width: 1.5;" width="10" x="269" y="649.2969"/><text fill="#000000" font-family="sans-serif" font-size="14" lengthAdjust="spacingAndGlyphs" textLength="140" x="284" y="645.9951">DB Shrinker Storage</text><!--MD5=[83c96f83c8f7f1709054ca102926e368]
entity Query Service Doc--><rect fill="#FEFECE" filter="url(#fqjcc5dqovgzw)" height="36.2969" style="stroke: #A80036; stroke-width: 1.5;" width="147" x="279.5" y="898"/><rect fill="#FEFECE" height="5" style="stroke: #A80036; stroke-width: 1.5;" width="10" x="274.5" y="903"/><rect fill="#FEFECE" height="5" style="stroke: #A80036; stroke-width: 1.5;" width="10" x="274.5" y="924.2969"/><text fill="#000000" font-family="sans-serif" font-size="14" lengthAdjust="spacingAndGlyphs" textLength="127" x="289.5" y="920.9951">Query Service Doc</text><!--MD5=[94b5c02d79ce14349597e906e8d0e66f]
entity Document Data--><rect fill="#FEFECE" filter="url(#fqjcc5dqovgzw)" height="36.2969" style="stroke: #A80036; stroke-width: 1.5;" width="129" x="280.5" y="783"/><rect fill="#FEFECE" height="5" style="stroke: #A80036; stroke-width: 1.5;" width="10" x="275.5" y="788"/><rect fill="#FEFECE" height="5" style="stroke: #A80036; stroke-width: 1.5;" width="10" x="275.5" y="809.2969"/><text fill="#000000" font-family="sans-serif" font-size="14" lengthAdjust="spacingAndGlyphs" textLength="109" x="290.5" y="805.9951">Document Data</text><!--MD5=[c6bb2d2e58c63eeb9c8cd07a6031ca84]
entity Command Service TS--><rect fill="#FEFECE" filter="url(#fqjcc5dqovgzw)" height="36.2969" style="stroke: #A80036; stroke-width: 1.5;" width="167" x="501.5" y="623"/><rect fill="#FEFECE" height="5" style="stroke: #A80036; stroke-width: 1.5;" width="10" x="496.5" y="628"/><rect fill="#FEFECE" height="5" style="stroke: #A80036; stroke-width: 1.5;" width="10" x="496.5" y="649.2969"/><text fill="#000000" font-family="sans-serif" font-size="14" lengthAdjust="spacingAndGlyphs" textLength="147" x="511.5" y="645.9951">Command Service TS</text><!--MD5=[c108952375d474831c263e9a7f508dd8]
entity Query Service TS--><rect fill="#FEFECE" filter="url(#fqjcc5dqovgzw)" height="36.2969" style="stroke: #A80036; stroke-width: 1.5;" width="137" x="526.5" y="898"/><rect fill="#FEFECE" height="5" style="stroke: #A80036; stroke-width: 1.5;" width="10" x="521.5" y="903"/><rect fill="#FEFECE" height="5" style="stroke: #A80036; stroke-width: 1.5;" width="10" x="521.5" y="924.2969"/><text fill="#000000" font-family="sans-serif" font-size="14" lengthAdjust="spacingAndGlyphs" textLength="117" x="536.5" y="920.9951">Query Service TS</text><!--MD5=[05f113af448b024684b8671897d338e2]
entity Timeseries Data--><rect fill="#FEFECE" filter="url(#fqjcc5dqovgzw)" height="36.2969" style="stroke: #A80036; stroke-width: 1.5;" width="132" x="514" y="783"/><rect fill="#FEFECE" height="5" style="stroke: #A80036; stroke-width: 1.5;" width="10" x="509" y="788"/><rect fill="#FEFECE" height="5" style="stroke: #A80036; stroke-width: 1.5;" width="10" x="509" y="809.2969"/><text fill="#000000" font-family="sans-serif" font-size="14" lengthAdjust="spacingAndGlyphs" textLength="112" x="524" y="805.9951">Timeseries Data</text><!--MD5=[aca8363704ff1fa9499f5606192de1ef]
entity Command Service Blob--><rect fill="#FEFECE" filter="url(#fqjcc5dqovgzw)" height="36.2969" style="stroke: #A80036; stroke-width: 1.5;" width="180" x="726" y="623"/><rect fill="#FEFECE" height="5" style="stroke: #A80036; stroke-width: 1.5;" width="10" x="721" y="628"/><rect fill="#FEFECE" height="5" style="stroke: #A80036; stroke-width: 1.5;" width="10" x="721" y="649.2969"/><text fill="#000000" font-family="sans-serif" font-size="14" lengthAdjust="spacingAndGlyphs" textLength="160" x="736" y="645.9951">Command Service Blob</text><!--MD5=[a909ed9fc17b8d388588f1fea65f1392]
entity Query Service Blob--><rect fill="#FEFECE" filter="url(#fqjcc5dqovgzw)" height="36.2969" style="stroke: #A80036; stroke-width: 1.5;" width="150" x="730" y="898"/><rect fill="#FEFECE" height="5" style="stroke: #A80036; stroke-width: 1.5;" width="10" x="725" y="903"/><rect fill="#FEFECE" height="5" style="stroke: #A80036; stroke-width: 1.5;" width="10" x="725" y="924.2969"/><text fill="#000000" font-family="sans-serif" font-size="14" lengthAdjust="spacingAndGlyphs" textLength="130" x="740" y="920.9951">Query Service Blob</text><!--MD5=[bbe8472c9cbd19f37767e3343a726fd5]
entity Blob Data--><rect fill="#FEFECE" filter="url(#fqjcc5dqovgzw)" height="36.2969" style="stroke: #A80036; stroke-width: 1.5;" width="87" x="770.5" y="783"/><rect fill="#FEFECE" height="5" style="stroke: #A80036; stroke-width: 1.5;" width="10" x="765.5" y="788"/><rect fill="#FEFECE" height="5" style="stroke: #A80036; stroke-width: 1.5;" width="10" x="765.5" y="809.2969"/><text fill="#000000" font-family="sans-serif" font-size="14" lengthAdjust="spacingAndGlyphs" textLength="67" x="780.5" y="805.9951">Blob Data</text><!--MD5=[2a32de96e495c3ba104076bbbb7f6dd5]
entity Query Router--><rect fill="#FEFECE" filter="url(#fqjcc5dqovgzw)" height="36.2969" style="stroke: #A80036; stroke-width: 1.5;" width="112" x="629" y="1120"/><rect fill="#FEFECE" height="5" style="stroke: #A80036; stroke-width: 1.5;" width="10" x="624" y="1125"/><rect fill="#FEFECE" height="5" style="stroke: #A80036; stroke-width: 1.5;" width="10" x="624" y="1146.2969"/><text fill="#000000" font-family="sans-serif" font-size="14" lengthAdjust="spacingAndGlyphs" textLength="92" x="639" y="1142.9951">Query Router</text><!--MD5=[fee662a292a0353a69bd162820bae93b]
entity User--><ellipse cx="685" cy="1246.5" fill="#FEFECE" filter="url(#fqjcc5dqovgzw)" rx="8" ry="8" style="stroke: #A80036; stroke-width: 1.5;"/><path d="M685,1254.5 L685,1281.5 M672,1262.5 L698,1262.5 M685,1281.5 L672,1296.5 M685,1281.5 L698,1296.5 " fill="none" filter="url(#fqjcc5dqovgzw)" style="stroke: #A80036; stroke-width: 1.5;"/><text fill="#000000" font-family="sans-serif" font-size="14" lengthAdjust="spacingAndGlyphs" textLength="32" x="669" y="1314.9951">User</text><!--MD5=[b7c390c9300e2c598817efc437ce3cc6]
entity SRDoc--><ellipse cx="605" cy="395" fill="#FEFECE" filter="url(#fqjcc5dqovgzw)" rx="8" ry="8" style="stroke: #A80036; stroke-width: 2.0;"/><text fill="#000000" font-family="sans-serif" font-size="14" lengthAdjust="spacingAndGlyphs" textLength="116" x="547" y="424.9951">Schema Registry</text><!--MD5=[76ce10b70bcf37e4ce40077b9304b14a]
entity SRTS--><ellipse cx="785" cy="1138" fill="#FEFECE" filter="url(#fqjcc5dqovgzw)" rx="8" ry="8" style="stroke: #A80036; stroke-width: 2.0;"/><text fill="#000000" font-family="sans-serif" font-size="14" lengthAdjust="spacingAndGlyphs" textLength="116" x="727" y="1167.9951">Schema Registry</text><!--MD5=[645d8587175d8f7ad110cd370775931d]
entity API--><rect fill="#FEFECE" filter="url(#fqjcc5dqovgzw)" height="36.2969" style="stroke: #A80036; stroke-width: 1.5;" width="41" x="792.5" y="377"/><rect fill="#FEFECE" height="5" style="stroke: #A80036; stroke-width: 1.5;" width="10" x="787.5" y="382"/><rect fill="#FEFECE" height="5" style="stroke: #A80036; stroke-width: 1.5;" width="10" x="787.5" y="403.2969"/><text fill="#000000" font-family="sans-serif" font-size="14" lengthAdjust="spacingAndGlyphs" textLength="21" x="802.5" y="399.9951">API</text><!--MD5=[370821335a6ec17aff451b26597454dd]
link Data Router to API--><path d="M752.66,395 C763.19,395 775.67,395 775.67,395 C775.67,395 783.6,395 792.15,395 " fill="none" id="Data Router-API" style="stroke: #A80036; stroke-width: 1.0; stroke-dasharray: 7.0,7.0;"/><!--MD5=[6fb93660917d1b29c6bee7fb6380d1f9]
link SRDoc to Data Router--><path d="M614.08,395 C623.54,395 637,395 637,395 C637,395 642.7,395 649.28,395 " fill="none" id="SRDoc-Data Router" style="stroke: #A80036; stroke-width: 1.0; stroke-dasharray: 7.0,7.0;"/><!--MD5=[01b4e5a74d093f747f262186af1016ef]
link Schema Registry to API--><path d="M813,95.44 C813,150.82 813,322.24 813,377 " fill="none" id="Schema Registry-API" style="stroke: #A80036; stroke-width: 1.0; stroke-dasharray: 7.0,7.0;"/><!--MD5=[1cff82b6f08145f21d8f0c5117754f47]
link Schema Registry to Leader Elector--><path d="M881.04,77 C892.49,77 908.19,77 916.31,77 " fill="none" id="Schema Registry-Leader Elector" style="stroke: #A80036; stroke-width: 1.0; stroke-dasharray: 7.0,7.0;"/><!--MD5=[64489b34dc6a4caf912a20e818adacd9]
link Query Router to SRTS--><path d="M741.12,1138 C746.98,1138 751.67,1138 751.67,1138 C751.67,1138 766.02,1138 775.89,1138 " fill="none" id="Query Router-SRTS" style="stroke: #A80036; stroke-width: 1.0; stroke-dasharray: 7.0,7.0;"/><!--MD5=[c4524ad33e22386bf43c56ba0b3219dc]
link Admin Web Panel to API--><path d="M920.17,277.24 C897.66,301.77 856.45,346.67 832.22,373.07 " fill="none" id="Admin Web Panel-&gt;API" style="stroke: #A80036; stroke-width: 1.0;"/><polygon fill="#A80036" points="828.77,376.82,837.796,372.879,832.1447,373.1307,831.8931,367.4794,828.77,376.82" style="stroke: #A80036; stroke-width: 1.0;"/><text fill="#000000" font-family="sans-serif" font-size="13" lengthAdjust="spacingAndGlyphs" textLength="56" x="890" y="322.0669">GraphQL</text><!--MD5=[391b3047ad355094ee6e5310953d4f2d]
link External System to Data Router--><path d="M695.77,277.24 C696.85,301.37 698.81,345.2 700,371.75 " fill="none" id="External System-&gt;Data Router" style="stroke: #A80036; stroke-width: 1.0;"/><polygon fill="#A80036" points="700.23,376.82,703.8148,367.6467,700.0017,371.8252,695.8232,368.0121,700.23,376.82" style="stroke: #A80036; stroke-width: 1.0;"/><text fill="#000000" font-family="sans-serif" font-size="13" lengthAdjust="spacingAndGlyphs" textLength="21" x="698" y="322.0669">MQ</text><!--MD5=[a061202f324ddaf7e45f7e6696679b91]
link Data Router to Command Service Doc--><path d="M672.14,413.15 C653.23,424.39 632,437 632,437 C632,437 257,532 257,532 C257,532 202,587.51 170.86,618.94 " fill="none" id="Data Router-&gt;Command Service Doc" style="stroke: #A80036; stroke-width: 1.0;"/><polygon fill="#A80036" points="167.19,622.65,176.3752,619.0959,170.7184,619.1073,170.707,613.4505,167.19,622.65" style="stroke: #A80036; stroke-width: 1.0;"/><text fill="#000000" font-family="sans-serif" font-size="13" lengthAdjust="spacingAndGlyphs" textLength="21" x="476" y="489.0669">MQ</text><!--MD5=[a6409b1b168546ca24419fc19d560fa7]
link Data Router to Command Service TS--><path d="M692.84,413.16 C672.25,456.47 618.19,570.19 595.38,618.16 " fill="none" id="Data Router-&gt;Command Service TS" style="stroke: #A80036; stroke-width: 1.0;"/><polygon fill="#A80036" points="593.15,622.86,600.6316,616.4549,595.3002,618.346,593.4092,613.0146,593.15,622.86" style="stroke: #A80036; stroke-width: 1.0;"/><text fill="#000000" font-family="sans-serif" font-size="13" lengthAdjust="spacingAndGlyphs" textLength="21" x="663" y="489.0669">MQ</text><!--MD5=[51d95ef4ce3141944e93b15f25a774c6]
link Data Router to Command Service Blob--><path d="M709.09,413.16 C729.5,456.47 783.1,570.19 805.71,618.16 " fill="none" id="Data Router-&gt;Command Service Blob" style="stroke: #A80036; stroke-width: 1.0;"/><polygon fill="#A80036" points="807.92,622.86,807.6996,613.0136,805.7876,618.3375,800.4636,616.4255,807.92,622.86" style="stroke: #A80036; stroke-width: 1.0;"/><text fill="#000000" font-family="sans-serif" font-size="13" lengthAdjust="spacingAndGlyphs" textLength="21" x="747" y="489.0669">MQ</text><!--MD5=[6e3dc9be9345b8725332eaecea4bf05f]
link Data Router to ANY--><path d="M731.95,413.15 C752.23,424.39 775,437 775,437 C775,437 1063.23,596 1129.52,632.56 " fill="none" id="Data Router-&gt;ANY" style="stroke: #A80036; stroke-width: 1.0;"/><polygon fill="#A80036" points="1133.9,634.98,1127.9447,627.1356,1129.5198,632.5688,1124.0867,634.1439,1133.9,634.98" style="stroke: #A80036; stroke-width: 1.0;"/><text fill="#000000" font-family="sans-serif" font-size="13" lengthAdjust="spacingAndGlyphs" textLength="21" x="876" y="489.0669">MQ</text><!--MD5=[840db17dbdd2f301a946e1f2dbcef8ef]
link Command Service Doc to Document Data--><path d="M171.24,659.21 C207.43,688.53 280.89,748.06 319.69,779.49 " fill="none" id="Command Service Doc-&gt;Document Data" style="stroke: #A80036; stroke-width: 1.0;"/><polygon fill="#A80036" points="323.79,782.81,319.3079,774.0401,319.9024,779.6657,314.2769,780.2602,323.79,782.81" style="stroke: #A80036; stroke-width: 1.0;"/><text fill="#000000" font-family="sans-serif" font-size="13" lengthAdjust="spacingAndGlyphs" textLength="26" x="242" y="713.0669">SQL</text><!--MD5=[ee39953a4917b1886a6a278deeabd570]
link Command Service TS to Timeseries Data--><path d="M584.46,659.21 C583.55,687.94 581.72,745.66 580.71,777.55 " fill="none" id="Command Service TS-&gt;Timeseries Data" style="stroke: #A80036; stroke-width: 1.0;"/><polygon fill="#A80036" points="580.54,782.81,584.8207,773.9401,580.6971,777.8125,576.8247,773.6888,580.54,782.81" style="stroke: #A80036; stroke-width: 1.0;"/><text fill="#000000" font-family="sans-serif" font-size="13" lengthAdjust="spacingAndGlyphs" textLength="32" x="584" y="713.0669">REST</text><!--MD5=[db298e3a7257772eb0a9fdb0a0bd444a]
link Command Service Blob to Blob Data--><path d="M808.63,659.09 C801.26,676.2 791,700 791,700 C791,700 791,717 791,717 C791,717 801.02,753.16 807.83,777.75 " fill="none" id="Command Service Blob-&gt;Blob Data" style="stroke: #A80036; stroke-width: 1.0;"/><polygon fill="#A80036" points="809.23,782.8,810.6991,773.0613,807.9036,777.9792,802.9857,775.1836,809.23,782.8" style="stroke: #A80036; stroke-width: 1.0;"/><text fill="#000000" font-family="sans-serif" font-size="13" lengthAdjust="spacingAndGlyphs" textLength="32" x="792" y="713.0669">REST</text><!--MD5=[0b9a464ad57eab45152c24968f68f965]
link DB Shrinker Storage to Document Data--><path d="M353.02,659.21 C351.38,687.94 348.1,745.66 346.28,777.55 " fill="none" id="DB Shrinker Storage-&gt;Document Data" style="stroke: #A80036; stroke-width: 1.0;"/><polygon fill="#A80036" points="345.98,782.81,350.4884,774.0536,346.2661,777.8182,342.5015,773.5959,345.98,782.81" style="stroke: #A80036; stroke-width: 1.0;"/><text fill="#000000" font-family="sans-serif" font-size="13" lengthAdjust="spacingAndGlyphs" textLength="26" x="351" y="713.0669">SQL</text><!--MD5=[855f5574e295e4bd1ab6e7888464bc31]
reverse link Document Data to Query Service Doc--><path d="M346.59,824.4 C348.11,845.93 350.38,878.03 351.77,897.68 " fill="none" id="Document Data&lt;-Query Service Doc" style="stroke: #A80036; stroke-width: 1.0;"/><polygon fill="#A80036" points="346.22,819.16,342.8469,828.4132,346.563,824.1482,350.828,827.8644,346.22,819.16" style="stroke: #A80036; stroke-width: 1.0;"/><text fill="#000000" font-family="sans-serif" font-size="13" lengthAdjust="spacingAndGlyphs" textLength="26" x="350" y="864.0669">SQL</text><!--MD5=[965705f728fd1cc6c4109379e0e4bd51]
reverse link Timeseries Data to Query Service TS--><path d="M582.94,824.12 C585.8,845.66 590.08,877.94 592.7,897.68 " fill="none" id="Timeseries Data&lt;-Query Service TS" style="stroke: #A80036; stroke-width: 1.0;"/><polygon fill="#A80036" points="582.28,819.16,579.4974,828.6076,582.9371,824.1166,587.428,827.5563,582.28,819.16" style="stroke: #A80036; stroke-width: 1.0;"/><text fill="#000000" font-family="sans-serif" font-size="13" lengthAdjust="spacingAndGlyphs" textLength="32" x="589" y="864.0669">REST</text><!--MD5=[b2477abf9dfc1edc1ab16c063d972e79]
reverse link Blob Data to Query Service Blob--><path d="M800.38,823.53 C792.06,836.69 783,851 783,851 C783,851 783,868 783,868 C783,868 790.65,884.35 796.93,897.77 " fill="none" id="Blob Data&lt;-Query Service Blob" style="stroke: #A80036; stroke-width: 1.0;"/><polygon fill="#A80036" points="803.16,819.14,794.9631,824.5999,800.483,823.363,801.7199,828.883,803.16,819.14" style="stroke: #A80036; stroke-width: 1.0;"/><text fill="#000000" font-family="sans-serif" font-size="13" lengthAdjust="spacingAndGlyphs" textLength="32" x="784" y="864.0669">REST</text><!--MD5=[ba9cf0854bc139fc9616e43c9aea6435]
reverse link Query Service Doc to Query Router--><path d="M383.28,937.06 C447.91,979.89 598.4,1079.61 659.01,1119.78 " fill="none" id="Query Service Doc&lt;-Query Router" style="stroke: #A80036; stroke-width: 1.0;"/><polygon fill="#A80036" points="378.78,934.08,384.0826,942.3796,382.9512,936.837,388.4938,935.7056,378.78,934.08" style="stroke: #A80036; stroke-width: 1.0;"/><text fill="#000000" font-family="sans-serif" font-size="13" lengthAdjust="spacingAndGlyphs" textLength="33" x="536" y="1034.0669">gRPC</text><!--MD5=[a7b2f24f26ffffa95a5936db5ba1bfa2]
reverse link Query Service TS to Query Router--><path d="M604.04,939.09 C621.99,982.98 661.8,1080.3 677.97,1119.82 " fill="none" id="Query Service TS&lt;-Query Router" style="stroke: #A80036; stroke-width: 1.0;"/><polygon fill="#A80036" points="602.06,934.26,601.7513,944.104,603.9465,938.8905,609.16,941.0856,602.06,934.26" style="stroke: #A80036; stroke-width: 1.0;"/><text fill="#000000" font-family="sans-serif" font-size="13" lengthAdjust="spacingAndGlyphs" textLength="33" x="645" y="1034.0669">gRPC</text><!--MD5=[a73eff60e1ffe30d6edc99c6a0e151ad]
reverse link Query Service Blob to Query Router--><path d="M793.09,938.83 C769.23,982.58 715.97,1080.22 694.37,1119.82 " fill="none" id="Query Service Blob&lt;-Query Router" style="stroke: #A80036; stroke-width: 1.0;"/><polygon fill="#A80036" points="795.58,934.26,787.7587,940.2457,793.1857,938.6495,794.7819,944.0765,795.58,934.26" style="stroke: #A80036; stroke-width: 1.0;"/><text fill="#000000" font-family="sans-serif" font-size="13" lengthAdjust="spacingAndGlyphs" textLength="33" x="748" y="1034.0669">gRPC</text><!--MD5=[bc294b699fc22fa513c04cb4b1bdacb4]
reverse link ANY to Query Router--><path d="M1136.19,654.66 C1116.02,692.15 1058,800 1058,800 C1058,800 1058,800 1058,1030.5 C1058,1030.5 759,1077 759,1077 C759,1077 727.89,1102.23 706.01,1119.97 " fill="none" id="ANY&lt;-Query Router" style="stroke: #A80036; stroke-width: 1.0;"/><polygon fill="#A80036" points="1138.67,650.05,1130.8941,656.0944,1136.3089,654.4574,1137.9459,659.8722,1138.67,650.05" style="stroke: #A80036; stroke-width: 1.0;"/><text fill="#000000" font-family="sans-serif" font-size="13" lengthAdjust="spacingAndGlyphs" textLength="33" x="1059" y="920.5669">gRPC</text><!--MD5=[181f420cf8b78a01af492ddd64816a98]
reverse link Query Router to User--><path d="M685,1161.35 C685,1181.74 685,1212.35 685,1236.89 " fill="none" id="Query Router&lt;-User" style="stroke: #A80036; stroke-width: 1.0;"/><polygon fill="#A80036" points="685,1156.14,681,1165.14,685,1161.14,689,1165.14,685,1156.14" style="stroke: #A80036; stroke-width: 1.0;"/><text fill="#000000" font-family="sans-serif" font-size="13" lengthAdjust="spacingAndGlyphs" textLength="32" x="686" y="1201.0669">REST</text></g></svg>