<?xml version="1.0" encoding="UTF-8" standalone="no"?><svg xmlns="http://www.w3.org/2000/svg" xmlns:xlink="http://www.w3.org/1999/xlink" contentScriptType="application/ecmascript" contentStyleType="text/css" height="368px" preserveAspectRatio="none" style="width:688px;height:368px;background:#FEFEFE;" version="1.1" viewBox="0 0 688 368" width="688px" zoomAndPan="magnify"><defs><filter height="300%" id="f1jmkot8bkgc7x" width="300%" x="-1" y="-1"><feGaussianBlur result="blurOut" stdDeviation="2.0"/><feColorMatrix in="blurOut" result="blurOut2" type="matrix" values="0 0 0 0 0 0 0 0 0 0 0 0 0 0 0 0 0 0 .4 0"/><feOffset dx="4.0" dy="4.0" in="blurOut2" result="blurOut3"/><feBlend in="SourceGraphic" in2="blurOut3" mode="normal"/></filter></defs><g><line style="stroke: #A80036; stroke-width: 1.0; stroke-dasharray: 5.0,5.0;" x1="52" x2="52" y1="86.2969" y2="281.0938"/><line style="stroke: #A80036; stroke-width: 1.0; stroke-dasharray: 5.0,5.0;" x1="197.5" x2="197.5" y1="86.2969" y2="281.0938"/><line style="stroke: #A80036; stroke-width: 1.0; stroke-dasharray: 5.0,5.0;" x1="510.5" x2="510.5" y1="86.2969" y2="281.0938"/><line style="stroke: #A80036; stroke-width: 1.0; stroke-dasharray: 5.0,5.0;" x1="631.5" x2="631.5" y1="86.2969" y2="281.0938"/><text fill="#000000" font-family="sans-serif" font-size="14" lengthAdjust="spacingAndGlyphs" textLength="83" x="8" y="82.9951">User (REST)</text><ellipse cx="52.5" cy="13" fill="#FEFECE" filter="url(#f1jmkot8bkgc7x)" rx="8" ry="8" style="stroke: #A80036; stroke-width: 2.0;"/><path d="M52.5,21 L52.5,48 M39.5,29 L65.5,29 M52.5,48 L39.5,63 M52.5,48 L65.5,63 " fill="none" filter="url(#f1jmkot8bkgc7x)" style="stroke: #A80036; stroke-width: 2.0;"/><text fill="#000000" font-family="sans-serif" font-size="14" lengthAdjust="spacingAndGlyphs" textLength="83" x="8" y="293.0889">User (REST)</text><ellipse cx="52.5" cy="306.3906" fill="#FEFECE" filter="url(#f1jmkot8bkgc7x)" rx="8" ry="8" style="stroke: #A80036; stroke-width: 2.0;"/><path d="M52.5,314.3906 L52.5,341.3906 M39.5,322.3906 L65.5,322.3906 M52.5,341.3906 L39.5,356.3906 M52.5,341.3906 L65.5,356.3906 " fill="none" filter="url(#f1jmkot8bkgc7x)" style="stroke: #A80036; stroke-width: 2.0;"/><rect fill="#FEFECE" filter="url(#f1jmkot8bkgc7x)" height="30.2969" style="stroke: #A80036; stroke-width: 1.5;" width="106" x="142.5" y="51"/><text fill="#000000" font-family="sans-serif" font-size="14" lengthAdjust="spacingAndGlyphs" textLength="92" x="149.5" y="70.9951">Query Router</text><rect fill="#FEFECE" filter="url(#f1jmkot8bkgc7x)" height="30.2969" style="stroke: #A80036; stroke-width: 1.5;" width="106" x="142.5" y="280.0938"/><text fill="#000000" font-family="sans-serif" font-size="14" lengthAdjust="spacingAndGlyphs" textLength="92" x="149.5" y="300.0889">Query Router</text><text fill="#000000" font-family="sans-serif" font-size="14" lengthAdjust="spacingAndGlyphs" textLength="116" x="449.5" y="82.9951">Schema Registry</text><path d="M492.5,34 C492.5,24 510.5,24 510.5,24 C510.5,24 528.5,24 528.5,34 L528.5,60 C528.5,70 510.5,70 510.5,70 C510.5,70 492.5,70 492.5,60 L492.5,34 " fill="#FEFECE" filter="url(#f1jmkot8bkgc7x)" style="stroke: #000000; stroke-width: 1.5;"/><path d="M492.5,34 C492.5,44 510.5,44 510.5,44 C510.5,44 528.5,44 528.5,34 " fill="none" style="stroke: #000000; stroke-width: 1.5;"/><text fill="#000000" font-family="sans-serif" font-size="14" lengthAdjust="spacingAndGlyphs" textLength="116" x="449.5" y="293.0889">Schema Registry</text><path d="M492.5,306.3906 C492.5,296.3906 510.5,296.3906 510.5,296.3906 C510.5,296.3906 528.5,296.3906 528.5,306.3906 L528.5,332.3906 C528.5,342.3906 510.5,342.3906 510.5,342.3906 C510.5,342.3906 492.5,342.3906 492.5,332.3906 L492.5,306.3906 " fill="#FEFECE" filter="url(#f1jmkot8bkgc7x)" style="stroke: #000000; stroke-width: 1.5;"/><path d="M492.5,306.3906 C492.5,316.3906 510.5,316.3906 510.5,316.3906 C510.5,316.3906 528.5,316.3906 528.5,306.3906 " fill="none" style="stroke: #000000; stroke-width: 1.5;"/><text fill="#000000" font-family="sans-serif" font-size="14" lengthAdjust="spacingAndGlyphs" textLength="95" x="581.5" y="82.9951">Query Service</text><path d="M614,34 C614,24 632,24 632,24 C632,24 650,24 650,34 L650,60 C650,70 632,70 632,70 C632,70 614,70 614,60 L614,34 " fill="#FEFECE" filter="url(#f1jmkot8bkgc7x)" style="stroke: #000000; stroke-width: 1.5;"/><path d="M614,34 C614,44 632,44 632,44 C632,44 650,44 650,34 " fill="none" style="stroke: #000000; stroke-width: 1.5;"/><text fill="#000000" font-family="sans-serif" font-size="14" lengthAdjust="spacingAndGlyphs" textLength="95" x="581.5" y="293.0889">Query Service</text><path d="M614,306.3906 C614,296.3906 632,296.3906 632,296.3906 C632,296.3906 650,296.3906 650,306.3906 L650,332.3906 C650,342.3906 632,342.3906 632,342.3906 C632,342.3906 614,342.3906 614,332.3906 L614,306.3906 " fill="#FEFECE" filter="url(#f1jmkot8bkgc7x)" style="stroke: #000000; stroke-width: 1.5;"/><path d="M614,306.3906 C614,316.3906 632,316.3906 632,316.3906 C632,316.3906 650,316.3906 650,306.3906 " fill="none" style="stroke: #000000; stroke-width: 1.5;"/><polygon fill="#A80036" points="185.5,113.4297,195.5,117.4297,185.5,121.4297,189.5,117.4297" style="stroke: #A80036; stroke-width: 1.0;"/><line style="stroke: #A80036; stroke-width: 1.0;" x1="52.5" x2="191.5" y1="117.4297" y2="117.4297"/><text fill="#000000" font-family="sans-serif" font-size="13" lengthAdjust="spacingAndGlyphs" textLength="92" x="59.5" y="112.3638">Query for data</text><polygon fill="#A80036" points="498.5,142.5625,508.5,146.5625,498.5,150.5625,502.5,146.5625" style="stroke: #A80036; stroke-width: 1.0;"/><line style="stroke: #A80036; stroke-width: 1.0;" x1="197.5" x2="504.5" y1="146.5625" y2="146.5625"/><text fill="#000000" font-family="sans-serif" font-size="13" lengthAdjust="spacingAndGlyphs" textLength="132" x="204.5" y="141.4966">Query for schema_id</text><polygon fill="#A80036" points="208.5,171.6953,198.5,175.6953,208.5,179.6953,204.5,175.6953" style="stroke: #A80036; stroke-width: 1.0;"/><line style="stroke: #A80036; stroke-width: 1.0;" x1="202.5" x2="509.5" y1="175.6953" y2="175.6953"/><text fill="#000000" font-family="sans-serif" font-size="13" lengthAdjust="spacingAndGlyphs" textLength="289" x="214.5" y="170.6294">Retrieve associated query_service, data_type</text><polygon fill="#A80036" points="620,200.8281,630,204.8281,620,208.8281,624,204.8281" style="stroke: #A80036; stroke-width: 1.0;"/><line style="stroke: #A80036; stroke-width: 1.0;" x1="197.5" x2="626" y1="204.8281" y2="204.8281"/><text fill="#000000" font-family="sans-serif" font-size="13" lengthAdjust="spacingAndGlyphs" textLength="92" x="204.5" y="199.7622">Query for data</text><polygon fill="#A80036" points="208.5,229.9609,198.5,233.9609,208.5,237.9609,204.5,233.9609" style="stroke: #A80036; stroke-width: 1.0;"/><line style="stroke: #A80036; stroke-width: 1.0;" x1="202.5" x2="631" y1="233.9609" y2="233.9609"/><text fill="#000000" font-family="sans-serif" font-size="13" lengthAdjust="spacingAndGlyphs" textLength="121" x="214.5" y="228.895">Retrieve document</text><polygon fill="#A80036" points="63.5,259.0938,53.5,263.0938,63.5,267.0938,59.5,263.0938" style="stroke: #A80036; stroke-width: 1.0;"/><line style="stroke: #A80036; stroke-width: 1.0;" x1="57.5" x2="196.5" y1="263.0938" y2="263.0938"/><text fill="#000000" font-family="sans-serif" font-size="13" lengthAdjust="spacingAndGlyphs" textLength="121" x="69.5" y="258.0278">Retrieve document</text></g></svg>